
<svg xmlns="http://www.w3.org/2000/svg" version="1.1" xmlns:xlink="http://www.w3.org/1999/xlink" preserveAspectRatio="none" x="0px" y="0px" width="100px" height="100px" viewBox="0 0 100 100">
<defs>
<g id="Layer0_0_FILL">
<path fill="#FFFFFF" stroke="none" d="
M 100 0
L 0 0 0 100 100 100 100 0
M 96 4
L 96 96 4 96 4 4 96 4
M 53.95 28.8
L 46.55 25.5 39.15 28.8 39.15 47.5 46.55 44.4 53.95 47.8 60.95 44.75 60.95 25.3 53.95 28.8
M 53.25 34.3
L 51.3 32.45 51.95 31.75 53.95 33.7 55.9 31.75 56.55 32.45 54.45 34.3 56.55 36.2 55.9 36.9 53.95 34.95 53.95 35 51.95 36.9 51.3 36.3 53.25 34.3
M 58.9 61.25
L 58.9 58.25 48.25 58.25 48.25 73.05 59.2 73.05 59.2 70.15 51.55 70.15 51.55 67.05 58.2 67.05 58.2 64.25 51.55 64.25 51.55 61.25 58.9 61.25
M 65.55 61.25
Q 66 60.8 66.8 60.8 68.9 60.8 70.8 62.3
L 72.5 59.85
Q 71.4 58.9 69.9 58.4 68.4 58 66.95 58 64.7 58 63.2 59.1 61.65 60.25 61.65 62.35 61.65 64.4 62.9 65.4 64 66.4 66.55 67.05 68.25 67.4 68.8 67.8 69.4 68.15 69.4 68.85 69.4 69.5 68.8 69.9 68.3 70.3 67.4 70.3 65.4 70.3 63 68.25
L 61 70.6
Q 63.8 73.25 67.4 73.25 69.75 73.25 71.25 72 72.75 70.75 72.75 68.75 72.75 66.8 71.55 65.75 70.4 64.75 68.3 64.15 66.2 63.65 65.65 63.3 65.05 62.9 65.05 62.25 65.05 61.6 65.55 61.25
M 27.3 60.15
Q 25.05 58 21.8 58 18.5 58 16.25 60.15 14.05 62.35 14.05 65.6 14.05 68.85 16.25 71.05 18.5 73.25 21.8 73.25 24.2 73.25 26.05 72.05
L 25.7 72.4 28.4 75.1 30.45 73.05 27.9 70.5
Q 29.55 68.4 29.55 65.6 29.55 62.35 27.3 60.15
M 24.95 62.25
Q 26.2 63.6 26.2 65.6 26.2 67.6 24.95 68.9 23.7 70.35 21.8 70.35 20 70.35 18.7 68.9 17.45 67.6 17.45 65.6 17.45 63.6 18.7 62.25 20 60.8 21.8 60.8 23.7 60.8 24.95 62.25
M 35.45 58.25
L 32.2 58.25 32.2 66.55
Q 32.2 69.75 33.95 71.5 35.7 73.25 38.5 73.25 41.25 73.25 43.05 71.5 44.8 69.8 44.8 66.55
L 44.8 58.25 41.5 58.25 41.5 66.4
Q 41.5 68.25 40.7 69.25 39.9 70.25 38.5 70.25 37.15 70.25 36.3 69.25 35.45 68.25 35.45 66.4
L 35.45 58.25
M 81.8 73.05
L 81.8 61.1 86 61.1 86 58.25 74.3 58.25 74.3 61.1 78.5 61.1 78.5 73.05 81.8 73.05 Z"/>
</g>
</defs>

<g transform="matrix( 1, 0, 0, 1, 0,0) ">
<use xlink:href="#Layer0_0_FILL"/>
</g>
</svg>
