
<svg xmlns="http://www.w3.org/2000/svg" version="1.1" xmlns:xlink="http://www.w3.org/1999/xlink" preserveAspectRatio="none" x="0px" y="0px" width="40px" height="40px" viewBox="0 0 40 40">
<defs>
<g id="Layer0_0_FILL">
<path fill="#FFFFFF" stroke="none" d="
M 21.95 8.8
L 22 3.15 19.05 3.05 19.05 8.65 15.2 8.75 15.2 10.95 17.15 11 17.15 32.45 20.5 35.8 23.8 32.5 23.8 11.1 25.75 11.15 25.75 8.8 21.95 8.8 Z"/>
</g>

<g id="Layer0_0_MEMBER_0_FILL">
<path fill="#FFFFFF" stroke="none" d="
M 22.85 15.25
L 26.95 16.35 26.1 15 26.85 14.6 28.1 16.65 30.15 17.25 28.05 13.85 28.95 13.3 31.55 17.6 33.85 18.2 30.4 12.55 31.3 11.95 35.4 18.6 39.75 19.65 31.5 7.7 22.85 15.25
M 1.25 19.65
L 5.6 18.6 9.7 11.95 10.6 12.55 7.15 18.2 9.45 17.6 12.05 13.3 12.95 13.85 10.85 17.25 12.9 16.65 14.15 14.6 14.9 15 14.05 16.35 18.15 15.25 9.5 7.7 1.25 19.65 Z"/>
</g>
</defs>

<g transform="matrix( 1.219512939453125, 0, 0, 1.219512939453125, -4.95,-3.65) ">
<use xlink:href="#Layer0_0_FILL"/>
</g>

<g transform="matrix( 1.0814971923828125, 0, 0, 1.0814971923828125, -2.15,-2.5) ">
<use xlink:href="#Layer0_0_MEMBER_0_FILL"/>
</g>
</svg>
