
<svg xmlns="http://www.w3.org/2000/svg" version="1.1" xmlns:xlink="http://www.w3.org/1999/xlink" preserveAspectRatio="none" x="0px" y="0px" width="100px" height="100px" viewBox="0 0 100 100">
<defs>
<g id="Layer0_0_FILL">
<path fill="#FFFFFF" stroke="none" d="
M 100 0
L 0 0 0 100 100 100 100 0
M 96 4
L 96 96 4 96 4 4 96 4
M 64.8 71.35
Q 67.2 69.05 67.2 65.6 67.2 62.1 64.8 59.8 62.4 57.5 58.95 57.5 55.45 57.5 53.05 59.8 50.7 62.1 50.7 65.6 50.7 69.05 53.05 71.35 55.45 73.65 58.95 73.65 62.4 73.65 64.8 71.35
M 62.25 62
Q 63.65 63.5 63.65 65.6 63.65 67.65 62.25 69.15 60.9 70.65 58.95 70.65 56.95 70.65 55.65 69.15 54.25 67.65 54.25 65.6 54.25 63.5 55.65 62 56.95 60.55 58.95 60.55 60.9 60.55 62.25 62
M 80.95 59.25
Q 79.3 57.8 75.7 57.8
L 70.15 57.8 70.15 73.55 73.65 73.55 73.65 69.15 75.75 69.15
Q 79.2 69.15 80.95 67.8 82.65 66.5 82.65 63.55 82.65 60.6 80.95 59.25
M 75.65 60.85
Q 77.4 60.85 78.2 61.4 79 62 79 63.35 79 64.65 78.4 65.4 77.75 66.1 76 66.1
L 73.65 66.1 73.65 60.85 75.65 60.85
M 23.75 61
Q 24.25 60.55 25.15 60.55 27.3 60.55 29.4 62.1
L 31.15 59.55
Q 29.95 58.55 28.4 58 26.8 57.5 25.25 57.5 22.8 57.5 21.25 58.65 19.65 59.9 19.65 62.1 19.65 64.35 20.9 65.4 22.2 66.5 24.9 67.1 26.65 67.55 27.2 68 27.8 68.35 27.8 69.05 27.8 69.8 27.25 70.25 26.7 70.6 25.75 70.6 23.55 70.6 21 68.4
L 18.95 71
Q 21.95 73.75 25.7 73.75 28.25 73.75 29.8 72.4 31.45 71.1 31.45 69 31.45 66.85 30.2 65.75 28.95 64.65 26.7 64.1 24.5 63.55 23.9 63.15 23.25 62.75 23.25 62.05 23.25 61.35 23.75 61
M 37.95 57.8
L 34.45 57.8 34.45 73.55 37.95 73.55 37.95 67.35 44.2 67.35 44.2 73.55 47.7 73.55 47.7 57.8 44.2 57.8 44.2 64.35 37.95 64.35 37.95 57.8
M 61.15 30.15
L 61.15 26.9 40 26.9 40 30.15 61.15 30.15
M 48.25 36.15
L 48.25 32.7 40 32.7 40 46.7 60.9 46.7 60.9 32.7 52.4 32.7 52.4 36.15 48.25 36.15 Z"/>
</g>
</defs>

<g transform="matrix( 1, 0, 0, 1, 0,0) ">
<use xlink:href="#Layer0_0_FILL"/>
</g>
</svg>
