
<svg xmlns="http://www.w3.org/2000/svg" version="1.1" xmlns:xlink="http://www.w3.org/1999/xlink" preserveAspectRatio="none" x="0px" y="0px" width="57px" height="11px" viewBox="0 0 57 11">
<defs>
<g id="Layer0_0_FILL">
<path fill="#FFFFFF" stroke="none" d="
M 19.8 14.85
L 16.05 14.85 16.05 21.45 15.15 21.45 15.15 14.85 11.3 14.85 11.3 23.5 12.25 23.5 12.25 24.35 13.2 24.35 13.2 25.2 17.95 25.2 17.95 24.35 18.85 24.35 18.85 23.4 19.8 23.4 19.8 14.85
M 0.35 20.5
L 0.35 14.85 -8.1 14.85 -8.1 25.15 -4.35 25.15 -4.35 22.35 -3.4 22.35 -3.4 25.15 0.35 25.15 0.35 21.4 -1.55 21.4 -1.55 20.5 0.35 20.5
M -3.4 19.55
L -4.35 19.55 -4.35 16.75 -3.4 16.75 -3.4 19.55
M 6.35 17.65
L 10.1 17.65 10.1 14.85 1.65 14.85 1.65 25.15 10.1 25.15 10.1 22.35 6.35 22.35 6.35 21.4 10.1 21.4 10.1 18.6 6.35 18.6 6.35 17.65
M 29.85 14.85
L 29.85 23.5 30.8 23.5 30.8 24.35 31.75 24.35 31.75 25.2 36.5 25.2 36.5 24.35 37.4 24.35 37.4 23.4 38.35 23.4 38.35 14.85 34.6 14.85 34.6 21.45 33.7 21.45 33.7 14.85 29.85 14.85
M 26.75 17.65
L 28.65 17.65 28.65 14.85 21.15 14.85 21.15 17.65 23 17.65 23 22.35 21.15 22.35 21.15 25.15 28.65 25.15 28.65 22.35 26.75 22.35 26.75 17.65
M 48.15 17.65
L 48.15 14.85 39.7 14.85 39.7 25.15 48.15 25.15 48.15 22.35 44.4 22.35 44.4 21.4 48.15 21.4 48.15 18.6 44.4 18.6 44.4 17.65 48.15 17.65 Z"/>
</g>
</defs>

<g transform="matrix( 1, 0, 0, 1, 8.5,-14.5) ">
<use xlink:href="#Layer0_0_FILL"/>
</g>
</svg>
