
<svg xmlns="http://www.w3.org/2000/svg" version="1.1" xmlns:xlink="http://www.w3.org/1999/xlink" preserveAspectRatio="none" x="0px" y="0px" width="48px" height="11px" viewBox="0 0 48 11">
<defs>
<g id="Layer0_0_FILL">
<path fill="#FFFFFF" stroke="none" d="
M 24.25 25.15
L 24.25 14.85 15.8 14.85 15.8 25.15 24.25 25.15
M 20.5 17.65
L 20.5 22.35 19.55 22.35 19.55 17.65 20.5 17.65
M 4.75 20.5
L 2.85 20.5 2.85 19.55 4.75 19.55 4.75 14.85 -3.7 14.85 -3.7 25.15 4.75 25.15 4.75 20.5
M 0.05 16.75
L 1 16.75 1 18.6 0.05 18.6 0.05 16.75
M 0.05 23.3
L 0.05 21.4 1 21.4 1 23.3 0.05 23.3
M 9.8 14.85
L 6.05 14.85 6.05 25.15 14.5 25.15 14.5 22.35 9.8 22.35 9.8 14.85
M 29.3 17.65
L 30.25 17.65 30.25 19.55 34 19.55 34 14.85 25.55 14.85 25.55 25.15 34 25.15 34 20.5 30.25 20.5 30.25 22.35 29.3 22.35 29.3 17.65
M 43.75 25.15
L 43.75 20.5 41.85 20.5 41.85 19.55 43.75 19.55 43.75 14.85 40 14.85 40 17.65 39.05 17.65 39.05 14.85 35.3 14.85 35.3 25.15 39.05 25.15 39.05 22.35 40 22.35 40 25.15 43.75 25.15 Z"/>
</g>
</defs>

<g transform="matrix( 1, 0, 0, 1, 4,-14.5) ">
<use xlink:href="#Layer0_0_FILL"/>
</g>
</svg>
