
<svg xmlns="http://www.w3.org/2000/svg" version="1.1" xmlns:xlink="http://www.w3.org/1999/xlink" preserveAspectRatio="none" x="0px" y="0px" width="46px" height="46px" viewBox="0 0 46 46">
<defs>
<g id="Layer0_0_FILL">
<path fill="#5C6370" stroke="none" d="
M 8 41.9
L 8 5 4 5 4 41.9 8 41.9 Z"/>

<path fill="#929873" stroke="none" d="
M 41 41.9
L 41 5 8 5 8 41.9 41 41.9 Z"/>

<path fill="#FFFFFF" stroke="none" d="
M 87 18.45
L 87 5 50 5 50 41.9 87 41.9 87 28.45 92 23.45 87 18.45 Z"/>
</g>

<g id="Layer0_1_FILL">
<path fill="#9059C6" stroke="none" d="
M 37.55 23.45
L 28.75 26 36.15 33.35 46 23.45 36.55 14 28.9 21 37.55 23.45 Z"/>

<path fill="#784CA3" stroke="none" d="
M 26.25 23.45
L 28.75 26 37.55 23.45 28.9 21 26.25 23.45 Z"/>
</g>
</defs>

<g transform="matrix( 1, 0, 0, 1, 0,0) ">
<use xlink:href="#Layer0_0_FILL"/>
</g>

<g transform="matrix( 1, 0, 0, 1, 0,0) ">
<use xlink:href="#Layer0_1_FILL"/>
</g>
</svg>
