
<svg xmlns="http://www.w3.org/2000/svg" version="1.1" xmlns:xlink="http://www.w3.org/1999/xlink" preserveAspectRatio="none" x="0px" y="0px" width="46px" height="46px" viewBox="0 0 46 46">
<defs>
<g id="Layer0_0_FILL">
<path fill="#9059C6" stroke="none" d="
M 4 41.9
L 8 41.9 8 5 4 5 4 41.9 Z"/>

<path fill="#77665F" stroke="none" d="
M 41 41.9
L 41 10 46 10 46 5 13.2 5 13.2 0 8 0 8 5 8 41.9 41 41.9 Z"/>

<path fill="#FFFFFF" stroke="none" d="
M 87 41.9
L 87 10 92 10 92 5 59.2 5 59.2 0 54 0 54 5 50 5 50 41.9 87 41.9 Z"/>
</g>
</defs>

<g transform="matrix( 1, 0, 0, 1, 0,0) ">
<use xlink:href="#Layer0_0_FILL"/>
</g>
</svg>
