
<svg xmlns="http://www.w3.org/2000/svg" version="1.1" xmlns:xlink="http://www.w3.org/1999/xlink" preserveAspectRatio="none" x="0px" y="0px" width="80px" height="80px" viewBox="0 0 80 80">
<defs>
<g id="Layer0_0_FILL">
<path fill="#A85151" stroke="none" d="
M 61.75 55.25
L 57.7 50.7 53.25 55.25 61.75 55.25
M 31.9 7.75
L 26.2 2.7 10.75 14.15 19.25 14.15 40 20.35 22.85 20.35 16.85 26.3 22.85 26.3 16.85 32.3 22.85 32.3 15.1 40 22.85 47.75 16.85 47.75 22.85 53.75 16.85 53.75 22.85 59.7 40 59.7 19.25 65.85 10.75 65.85 26.2 77.35 46.1 59.7 26.4 40 46.1 20.35 31.95 7.8 31.9 7.75
M 35.65 25.9
L 30.1 31.45 35.65 25.9
M 30.1 48.6
L 35.65 54.15 30.1 48.6
M 53.65 24.3
L 57.7 28.35 61.75 24.3 53.65 24.3 Z"/>

<path fill="#9A4D4D" stroke="none" d="
M 19.25 65.85
L 40 59.7 22.85 59.7 19.25 65.85
M 22.85 20.35
L 40 20.35 19.25 14.15 22.85 20.35 Z"/>

<path fill="#BD5F5F" stroke="none" d="
M 68.85 39.55
L 57.7 28.35 53.65 24.3 61.75 24.3 65.75 20.35 46.1 20.35 26.4 40 46.1 59.7 65.75 59.7 61.75 55.25 53.25 55.25 57.7 50.7 68.85 39.55 Z"/>

<path fill="#FFFFFF" stroke="none" d="
M 148.85 39.55
L 137.7 28.35 145.75 20.35 126.1 20.35 106.2 2.7 90.75 14.15 99.25 14.15 102.85 20.35 96.85 26.3 102.85 26.3 96.85 32.3 102.85 32.3 95.1 40 102.85 47.75 96.85 47.75 102.85 53.75 96.85 53.75 102.85 59.7 99.25 65.85 90.75 65.85 106.2 77.35 126.1 59.7 145.75 59.7 137.7 50.7 148.85 39.55 Z"/>
</g>

<path id="Layer0_0_1_STROKES" stroke="#FFFF00" stroke-width="1" stroke-linejoin="miter" stroke-linecap="butt" stroke-miterlimit="3" fill="none" d="
M 35.65 25.9
L 30.1 31.45
M 30.1 48.6
L 35.65 54.15"/>
</defs>

<g transform="matrix( 1, 0, 0, 1, 0,0) ">
<use xlink:href="#Layer0_0_FILL"/>

<use xlink:href="#Layer0_0_1_STROKES"/>
</g>
</svg>
