
<svg xmlns="http://www.w3.org/2000/svg" version="1.1" xmlns:xlink="http://www.w3.org/1999/xlink" preserveAspectRatio="none" x="0px" y="0px" width="46px" height="46px" viewBox="0 0 46 46">
<defs>
<g id="Layer0_0_FILL">
<path fill="#CB8888" stroke="none" d="
M 41 20
L 41 5 3 5 3 13 0 13 0 33 3 33 3 41 41 41 41 26 41 20
M 11.75 7.25
L 13.75 7.25 13.75 9.15 11.75 9.15 11.75 7.25
M 37.75 26.25
L 39.75 26.25 39.75 28.15 37.75 28.15 37.75 26.25
M 30.75 35.25
L 34.75 35.25 34.75 39.25 30.75 39.15 30.75 35.25
M 25 36.25
L 27 36.25 27 38.15 25 38.15 25 36.25 Z"/>

<path fill="#A87373" stroke="none" d="
M 27 36.25
L 25 36.25 25 38.15 27 38.15 27 36.25
M 34.75 35.25
L 30.75 35.25 30.75 39.15 34.75 39.25 34.75 35.25
M 39.75 26.25
L 37.75 26.25 37.75 28.15 39.75 28.15 39.75 26.25
M 13.75 7.25
L 11.75 7.25 11.75 9.15 13.75 9.15 13.75 7.25 Z"/>

<path fill="#BD8484" stroke="none" d="
M 46 20
L 41 20 41 26 46 26 46 20 Z"/>

<path fill="#FFFFFF" stroke="none" d="
M 87 20
L 87 5 49 5 49 13 46 13 46 20 46 26 46 33 49 33 49 41 87 41 87 26 92 26 92 20 87 20 Z"/>
</g>

<g id="Layer0_1_FILL">
<path fill="#FFFFFF" stroke="none" d="
M 6.1 16.5
L 6.1 11.5 5.15 11.5 5.15 16.5 6.1 16.5
M 5.15 29.5
L 5.15 34.5 6.1 34.5 6.1 29.5 5.15 29.5 Z"/>
</g>

<g id="Layer0_2_FILL">
<path fill="#A87373" stroke="none" d="
M 0 25.95
L 0 27.95 0.95 27.95 0.95 25.95 0 25.95
M 0.95 20.1
L 0.95 18.1 0 18.1 0 20.1 0.95 20.1 Z"/>
</g>
</defs>

<g transform="matrix( 1, 0, 0, 1, 0,0) ">
<use xlink:href="#Layer0_0_FILL"/>
</g>

<g transform="matrix( 1, 0, 0, 1, 0,0) ">
<use xlink:href="#Layer0_1_FILL"/>
</g>

<g transform="matrix( 1, 0, 0, 1, 0,0) ">
<use xlink:href="#Layer0_2_FILL"/>
</g>
</svg>
