
<svg xmlns="http://www.w3.org/2000/svg" version="1.1" xmlns:xlink="http://www.w3.org/1999/xlink" preserveAspectRatio="none" x="0px" y="0px" width="80px" height="80px" viewBox="0 0 80 80">
<defs>
<g id="Layer0_0_FILL">
<path fill="#4F4F4F" stroke="none" d="
M 63.8 39.9
L 34 10.1 59.05 39.9 34 69.7 63.8 39.9 Z"/>

<path fill="#585858" stroke="none" d="
M 34 10.1
L 28.25 15.9 33.3 20.95 33.3 58.95 28.3 64 34 69.7 59.05 39.9 34 10.1
M 75.3 39.9
L 69.5 34.1 65.75 34.1 65.75 30.35 44.65 9.25 39.75 9.25 39.75 4.35 34 10.1 63.8 39.9 34 69.7 39.75 75.45 45.75 69.45 45.75 65.25 49.9 65.25 75.3 39.9 Z"/>

<path fill="#414141" stroke="none" d="
M 23.15 20.95
L 30.55 20.95 30.55 58.95 23.25 58.95 28.3 64 33.3 58.95 33.3 20.95 28.25 15.9 23.15 20.95 Z"/>

<path fill="#C2B49C" stroke="none" d="
M 23.15 20.95
L 17.95 20.95 17.95 58.95 23.25 58.95 30.55 58.95 30.55 20.95 23.15 20.95 Z"/>

<path fill="#FFFFFF" stroke="none" d="
M 155.3 39.9
L 149.5 34.1 145.75 34.1 145.75 30.35 124.65 9.25 119.75 9.25 119.75 4.35 106.95 17.15
Q 105.0578125 19.0515625 103.15 20.95
L 97.95 20.95 97.95 30.95 97.95 34.95 97.95 38.7 97.95 42.7 97.95 45.95 97.95 49.95 97.95 58.95 103.25 58.95 119.75 75.45 125.75 69.45 125.75 65.25 129.95 65.3 155.3 39.9 Z"/>
</g>

<g id="Layer0_1_FILL">
<path fill="#414141" stroke="none" d="
M 20.9 45.95
L 19.95 45.95 19.95 53.95 20.9 53.95 20.9 45.95
M 19.95 26.95
L 19.95 34.95 20.9 34.95 20.9 26.95 19.95 26.95 Z"/>
</g>

<g id="Layer0_1_MEMBER_0_FILL">
<path fill="#FF0000" stroke="none" d="
M 19.95 30.05
L 19.95 32.05 20.9 32.05 20.9 30.05 19.95 30.05
M 20.9 48.9
L 19.95 48.9 19.95 50.9 20.9 50.9 20.9 48.9 Z"/>
</g>

<path id="Layer0_0_1_STROKES" stroke="#FFFFFF" stroke-width="4" stroke-linejoin="miter" stroke-linecap="butt" stroke-miterlimit="3" fill="none" d="
M 97.95 45.95
L 97.95 49.95
M 97.95 38.7
L 97.95 42.7
M 97.95 30.95
L 97.95 34.95"/>

<path id="Layer0_2_1_STROKES" stroke="#C2B49C" stroke-width="4" stroke-linejoin="miter" stroke-linecap="butt" stroke-miterlimit="3" fill="none" d="
M 17.95 38.7
L 17.95 42.7
M 17.95 30.95
L 17.95 34.95
M 17.95 45.95
L 17.95 49.95"/>
</defs>

<g transform="matrix( 1, 0, 0, 1, 0,0) ">
<use xlink:href="#Layer0_0_FILL"/>

<use xlink:href="#Layer0_0_1_STROKES"/>
</g>

<g transform="matrix( 1, 0, 0, 1, 0,0) ">
<use xlink:href="#Layer0_1_FILL"/>
</g>

<g transform="matrix( 1, 0, 0, 1, 0,0) ">
<use xlink:href="#Layer0_1_MEMBER_0_FILL"/>
</g>

<g transform="matrix( 1, 0, 0, 1, 0,0) ">
<use xlink:href="#Layer0_2_1_STROKES"/>
</g>
</svg>
