
<svg xmlns="http://www.w3.org/2000/svg" version="1.1" xmlns:xlink="http://www.w3.org/1999/xlink" preserveAspectRatio="none" x="0px" y="0px" width="46px" height="46px" viewBox="0 0 46 46">
<defs>
<g id="Layer0_0_FILL">
<path fill="#C2B49C" stroke="none" d="
M 42 42
L 42 4 4 4 4 42 42 42
M 36.85 27
L 38.75 27.05 38.75 28.9 36.85 28.75 36.85 27
M 34 33.2
L 37.8 33.45 37.8 37 34 36.75 34 33.2 Z"/>

<path fill="#A69A86" stroke="none" d="
M 37.8 33.45
L 34 33.2 34 36.75 37.8 37 37.8 33.45
M 38.75 27.05
L 36.85 27 36.85 28.75 38.75 28.9 38.75 27.05 Z"/>

<path fill="#FFFFFF" stroke="none" d="
M 88 42
L 88 4 50 4 50 42 88 42 Z"/>
</g>

<g id="Layer0_1_FILL">
<path fill="#5F5953" stroke="none" d="
M 6 10
L 6 18 6.95 18 6.95 10 6 10
M 6.95 29
L 6 29 6 37 6.95 37 6.95 29 Z"/>
</g>

<path id="Layer0_2_1_STROKES" stroke="#C2B49C" stroke-width="3" stroke-linejoin="miter" stroke-linecap="butt" stroke-miterlimit="3" fill="none" d="
M 4 14
L 4 18
M 4 21.75
L 4 25.75
M 4 29
L 4 33"/>

<path id="Layer0_3_1_STROKES" stroke="#FFFFFF" stroke-width="3" stroke-linejoin="miter" stroke-linecap="butt" stroke-miterlimit="3" fill="none" d="
M 50 14
L 50 18
M 50 29
L 50 33
M 50 21.75
L 50 25.75"/>
</defs>

<g transform="matrix( 1, 0, 0, 1, 0,0) ">
<use xlink:href="#Layer0_0_FILL"/>
</g>

<g transform="matrix( 1, 0, 0, 1, 0,0) ">
<use xlink:href="#Layer0_1_FILL"/>
</g>

<g transform="matrix( 1, 0, 0, 1, 0,0) ">
<use xlink:href="#Layer0_2_1_STROKES"/>
</g>

<g transform="matrix( 1, 0, 0, 1, 0,0) ">
<use xlink:href="#Layer0_3_1_STROKES"/>
</g>
</svg>
