
<svg xmlns="http://www.w3.org/2000/svg" version="1.1" xmlns:xlink="http://www.w3.org/1999/xlink" preserveAspectRatio="none" x="0px" y="0px" width="80px" height="80px" viewBox="0 0 80 80">
<defs>
<linearGradient id="Gradient_1" gradientUnits="userSpaceOnUse" x1="27.150000000000002" y1="40" x2="62.25" y2="40" spreadMethod="pad">
<stop  offset="0%" stop-color="#636872"/>

<stop  offset="100%" stop-color="#898E9A"/>
</linearGradient>

<g id="Layer0_0_FILL">
<path fill="#FFFFFF" stroke="none" d="
M 116.1 22.75
L 111.3 17.95 89 40.05 111.3 62.3 116.35 57.25 142.2 57.25 142.2 22.75 116.1 22.75 Z"/>
</g>

<g id="Layer0_1_FILL">
<path fill="url(#Gradient_1)" stroke="none" d="
M 27.45 22.75
L 27.45 57.25 61.95 57.25 61.95 22.75 27.45 22.75 Z"/>
</g>

<g id="Layer0_1_MEMBER_0_FILL">
<path fill="#7B766D" stroke="none" d="
M 12 43.05
L 15 40.05 12.05 37.1 9 40.05 12 43.05 Z"/>

<path fill="#AFA492" stroke="none" d="
M 16.4 32.7
L 12.05 37.1 15 40.05 12 43.05 16.45 47.5 23.75 40.05 16.4 32.7 Z"/>

<path fill="#898E9A" stroke="none" d="
M 45.55 32.2
L 52.15 25.65 39 25.65 31.3 17.95 16.4 32.7 23.75 40.05 16.45 47.5 31.3 62.3 39 54.55 52.15 54.55 45.55 48 53.45 40.05 45.55 32.2
M 25.75 30.2
L 21.75 34.1 25.75 30.2
M 21.75 45.95
L 25.75 49.7 21.75 45.95 Z"/>
</g>

<path id="Layer0_1_MEMBER_0_1_STROKES" stroke="#514C46" stroke-width="1" stroke-linejoin="miter" stroke-linecap="butt" stroke-miterlimit="3" fill="none" d="
M 25.75 30.2
L 21.75 34.1
M 21.75 45.95
L 25.75 49.7"/>
</defs>

<g transform="matrix( 1, 0, 0, 1, 0,0) ">
<use xlink:href="#Layer0_0_FILL"/>
</g>

<g transform="matrix( 1, 0, 0, 1, 0,0) ">
<use xlink:href="#Layer0_1_FILL"/>
</g>

<g transform="matrix( 1, 0, 0, 1, 0,0) ">
<use xlink:href="#Layer0_1_MEMBER_0_FILL"/>

<use xlink:href="#Layer0_1_MEMBER_0_1_STROKES"/>
</g>
</svg>
