
<svg xmlns="http://www.w3.org/2000/svg" version="1.1" xmlns:xlink="http://www.w3.org/1999/xlink" preserveAspectRatio="none" x="0px" y="0px" width="46px" height="46px" viewBox="0 0 46 46">
<defs>
<g id="Layer0_0_FILL">
<path fill="#5A8A95" stroke="none" d="
M 12.25 4
L 4 4 4 42 12.25 42 12.25 4
M 7.3 5.4
L 9.2 5.45 9.2 7.3 7.3 7.15 7.3 5.4 Z"/>

<path fill="#46717B" stroke="none" d="
M 9.2 5.45
L 7.3 5.4 7.3 7.15 9.2 7.3 9.2 5.45 Z"/>

<path fill="#A6C1CD" stroke="none" d="
M 42 9.75
L 42 4 12.25 4 12.25 42 42 42 42 35.5 46.1 31.35 42 27.25 46.25 23 42 18.75 46.5 14.25 42 9.75 Z"/>
</g>

<g id="Layer0_1_FILL">
<path fill="#FFFFFF" stroke="none" d="
M 6.85 12
L 5.9 12 5.9 18 6.85 18 6.85 12
M 5.9 35
L 6.85 35 6.85 29 5.9 29 5.9 35 Z"/>
</g>
</defs>

<g transform="matrix( 1, 0, 0, 1, 0,0) ">
<use xlink:href="#Layer0_0_FILL"/>
</g>

<g transform="matrix( 1, 0, 0, 1, 0,0) ">
<use xlink:href="#Layer0_1_FILL"/>
</g>
</svg>
