
<svg xmlns="http://www.w3.org/2000/svg" version="1.1" xmlns:xlink="http://www.w3.org/1999/xlink" preserveAspectRatio="none" x="0px" y="0px" width="256px" height="256px" viewBox="0 0 256 256">
<defs>
<g id="Layer0_0_FILL">
<path fill="#7ECB64" stroke="none" d="
M 38 209
L 38 207 36 207 36 209 38 209
M 34 209
L 34 207 32 207 32 209 34 209
M 42 209
L 42 207 40 207 40 209 42 209
M 157.95 172
L 155.95 172 155.95 174 157.95 174 157.95 172
M 153.95 172
L 151.95 172 151.95 174 153.95 174 153.95 172
M 149.95 172
L 147.95 172 147.95 174 149.95 174 149.95 172
M 17 125
L 15 125 15 127 17 127 17 125
M 13 125
L 11 125 11 127 13 127 13 125
M 94.95 96
L 94.95 98 96.95 98 96.95 96 94.95 96
M 90.95 98
L 92.95 98 92.95 96 90.95 96 90.95 98
M 128.95 31
L 128.95 29 126.95 29 126.95 31 128.95 31
M 132.95 29
L 130.95 29 130.95 31 132.95 31 132.95 29
M 240 60
L 240 58 238 58 238 60 240 60
M 236 60
L 236 58 234 58 234 60 236 60 Z"/>

<path fill="#44954B" stroke="none" d="
M 140.05 177
L 140.05 179 142.05 179 142.05 177 140.05 177
M 136.05 177
L 136.05 179 138.05 179 138.05 177 136.05 177
M 31 148
L 29 148 29 150 31 150 31 148
M 35 148
L 33 148 33 150 35 150 35 148
M 50.05 98
L 50.05 96 48.05 96 48.05 98 50.05 98
M 54.05 98
L 54.05 96 52.05 96 52.05 98 54.05 98
M 178.05 111
L 178.05 109 176.05 109 176.05 111 178.05 111
M 174.05 111
L 174.05 109 172.05 109 172.05 111 174.05 111
M 254 82
L 254 80 252 80 252 82 254 82 Z"/>
</g>
</defs>

<g transform="matrix( 1, 0, 0, 1, 0,0) ">
<use xlink:href="#Layer0_0_FILL"/>
</g>
</svg>
