
<svg xmlns="http://www.w3.org/2000/svg" version="1.1" xmlns:xlink="http://www.w3.org/1999/xlink" preserveAspectRatio="none" x="0px" y="0px" width="40px" height="40px" viewBox="0 0 40 40">
<defs>
<g id="Layer0_0_FILL">
<path fill="#3BAA5E" stroke="none" d="
M 20.05 37.3
Q 19.9 37.55 19.75 37.8
L 21.75 37.8
Q 21.7 37.75 21.6 37.7 21 36.85 20.55 36.85 20.45 36.85 20.35 36.9 20.2 37.1 20.05 37.3 Z"/>

<path fill="#3DAF53" stroke="none" d="
M 30.95 5.5
L 30.95 1.7 25.35 1.7 21.6 9.9 24.2 13.35
Q 21.6 14.45 19.5 15.65
L 19.45 15.6 19.45 11.4
Q 19.45 11.1 19.8 10.2
L 19.8 6.25 17.9 6.25
Q 17.8 4.9 16.1 1.3
L 9.7 1.3
Q 9.8 10.7 11.95 7.1
L 11.95 11.6
Q 11.7 11.45 11.55 11.3 10.3 10.25 9.7 10.05
L 1.85 10.05 1.85 16.05
Q 1.85 16.1 1.9 16.1 2.75 16.9 4.3 17.45
L 4.45 17.55 4.45 18.55
Q 6.3 19.6 8.15 20.45 6.05 20.95 4.4 21.75 4.65 21.75 5.2 21.75
L 5.2 23.2
Q 3.4 23.4 2.2 23.85
L 2.15 30.35 9.45 30.35
Q 9.7 30.2 10.1 29.95 10.1 32.2 10.35 36.35
L 10.3 38.7 15.9 38.7
Q 16.8 37.35 17.8 35.75 18.6 34.45 19.05 33.65
L 19.15 29 19.25 28.65 19.25 27.75
Q 21 28.55 22.9 29.2
L 22.9 36.4
Q 23.4 36.7 23.9 37.3 24.15 37.65 24.7 38.45
L 24.7 38.85 31.15 38.85 31.15 36.7 31 36.25 31 31.4 34.15 31.4 34.15 30.65 37.75 30.7 37.85 24.3
Q 35.75 23.45 31 22.3
L 31.55 20.95 31.55 20.75
Q 31.7 20.7 31.95 20.6 34.55 19.55 36.35 18.75
L 36.15 18.75 36.15 17.25
Q 37.4 17.2 38.3 17.2
L 38.3 10.8 33.2 10.8 33.2 11.1 31.8 11.1 31.8 5.5 30.95 5.5
M 11.65 29.35
L 11.55 30.4 11.55 30.75
Q 11.3 29.95 11.15 29.5 11.35 29.25 11.65 29.15
L 11.65 29.35 Z"/>
</g>

<g id="Layer0_1_FILL">
<path fill="#34B84E" stroke="none" d="
M 26.05 20.7
L 26.15 19.1 37.2 8.7 37.25 3.25 31.6 3.15 20.75 13.15 19.15 13.15
Q 12.65 5.8 10.05 2.8
L 4.1 2.8 4.1 8.85
Q 9.15 15.05 13.05 19.3
L 13.05 20.65
Q 11.3 22.4 8.3 25 6.75 26.6 3.3 29.5
L 2.9 29.5 2.85 35.35 9.65 35.35
Q 13.9 31.1 15.85 29.6 17.7 28.1 18.4 27.4
L 18.75 27.45
Q 18.7 27.25 18.7 27.1 18.7 27 18.7 26.95
L 21.35 26.95 23.5 28.95
Q 26.45 31.75 30.75 36
L 36.35 36.05 36.35 30.6 26.05 20.7 Z"/>
</g>

<g id="Layer0_2_FILL">
<path fill="#38BF53" stroke="none" d="
M 24 16.8
Q 23.9 11.4 23.9 1.2
L 16.85 1.2 16.85 16.95 16.6 16.95 16.6 17 15.8 17 15.8 17.05 1.65 17.05 1.65 23.55 15.8 23.55 15.8 23.65 16.3 23.7 16.35 22 16.35 23.7 17.1 23.7 17.1 38.85 24.1 38.85 23.9 31.55 23.95 31.55 23.95 25.55 23.9 25.55 23.9 23.4 38.55 23.4 38.55 16.9 24.15 16.9 24.15 16.8 24 16.8 Z"/>
</g>

<g id="Layer0_3_FILL">
<path fill="#6AB10D" fill-opacity="0.2" stroke="none" d="
M 38.3 10.8
L 35 10.8 37.2 8.7 37.25 3.25 31.6 3.15 30.95 3.75 30.95 1.7 25.35 1.7 23.9 4.9
Q 23.9 3.1 23.9 1.2
L 16.85 1.2 16.85 2.95
Q 16.55 2.2 16.1 1.3
L 9.7 1.3
Q 9.7 2.1 9.75 2.8
L 4.1 2.8 4.1 8.85
Q 4.6 9.45 5.1 10.05
L 1.85 10.05 1.85 16.05
Q 1.85 16.1 1.9 16.1 2.45 16.65 3.35 17.05
L 1.65 17.05 1.65 23.55 3.2 23.55
Q 2.65 23.7 2.2 23.85
L 2.15 30.35 2.9 30.35 2.85 35.35 9.65 35.35
Q 9.95 35.05 10.25 34.75 10.3 35.5 10.35 36.35
L 10.3 38.7 15.9 38.7
Q 16.5 37.85 17.1 36.85
L 17.1 38.85 24.1 38.85 24.1 37.55
Q 24.3 37.85 24.7 38.45
L 24.7 38.85 31.15 38.85 31.15 36.7 31 36.25 31 36 36.35 36.05 36.35 30.7 37.75 30.7 37.85 24.3
Q 36.85 23.9 35.2 23.4
L 38.55 23.4 38.55 16.9 38.3 16.9 38.3 10.8 Z"/>
</g>
</defs>

<g transform="matrix( 1, 0, 0, 1, 0,0) ">
<use xlink:href="#Layer0_0_FILL"/>
</g>

<g transform="matrix( 1, 0, 0, 1, 0,0) ">
<use xlink:href="#Layer0_1_FILL"/>
</g>

<g transform="matrix( 1, 0, 0, 1, 0,0) ">
<use xlink:href="#Layer0_2_FILL"/>
</g>

<g transform="matrix( 1, 0, 0, 1, 0,0) ">
<use xlink:href="#Layer0_3_FILL"/>
</g>
</svg>
