
<svg xmlns="http://www.w3.org/2000/svg" version="1.1" xmlns:xlink="http://www.w3.org/1999/xlink" preserveAspectRatio="none" x="0px" y="0px" width="40px" height="40px" viewBox="0 0 40 40">
<defs>
<g id="Layer0_0_FILL">
<path fill="#E07D3F" stroke="none" d="
M 23.2 27.2
L 23.2 33.8 29.8 33.8 29.8 27.2 23.2 27.2
M 5.7 8.15
L 5.7 17.1 14.65 17.1 14.65 8.15 5.7 8.15
M 6.75 11.3
L 6.75 9.4 8.7 9.4 8.7 11.3 6.75 11.3
M 35.65 10.1
L 28.7 10.1 28.7 17.1 35.65 17.1 35.65 10.1
M 32.95 11.05
L 34.6 11.05 34.6 12.7 32.95 12.7 32.95 11.05 Z"/>

<path fill="#FF9B5D" stroke="none" d="
M 6.75 9.4
L 6.75 11.3 8.7 11.3 8.7 9.4 6.75 9.4
M 34.6 11.05
L 32.95 11.05 32.95 12.7 34.6 12.7 34.6 11.05 Z"/>
</g>
</defs>

<g transform="matrix( 1, 0, 0, 1, 0,0) ">
<use xlink:href="#Layer0_0_FILL"/>
</g>
</svg>
