
<svg xmlns="http://www.w3.org/2000/svg" version="1.1" xmlns:xlink="http://www.w3.org/1999/xlink" preserveAspectRatio="none" x="0px" y="0px" width="160px" height="40px" viewBox="0 0 160 40">
<defs>
<linearGradient id="Gradient_1" gradientUnits="userSpaceOnUse" x1="99.2" y1="18.849999999999998" x2="110.8" y2="30.45" spreadMethod="pad">
<stop  offset="0%" stop-color="#000000" stop-opacity="0.1607843137254902"/>

<stop  offset="100%" stop-color="#000000" stop-opacity="0"/>
</linearGradient>

<linearGradient id="Gradient_2" gradientUnits="userSpaceOnUse" x1="139.6625" y1="18.612499999999997" x2="151.23749999999998" y2="30.1875" spreadMethod="pad">
<stop  offset="0%" stop-color="#000000" stop-opacity="0.1607843137254902"/>

<stop  offset="100%" stop-color="#000000" stop-opacity="0"/>
</linearGradient>

<g id="Layer0_0_FILL">
<path fill="#B2C2A5" stroke="none" d="
M 40 2.5
L 39.9 2.5 39.9 0 0 0 0 40 39.9 40 39.9 37.5 40 37.5 40 2.5 Z"/>

<path fill="#8E929F" stroke="none" d="
M 79.9 2.5
L 79.9 0 40 0 40 2.5 40 37.5 40 40 79.9 40 79.9 37.5 80 37.5 80 2.5 79.9 2.5 Z"/>
</g>

<g id="Layer0_1_FILL">
<path fill="#9FA892" stroke="none" d="
M 36.35 32.5
L 32.85 32.5 32.85 36 36.35 36 36.35 32.5
M 6.6 30.85
L 4.05 30.85 4.05 33.4 6.6 33.4 6.6 30.85
M 35.75 3.35
L 34.5 3.35 34.5 4.6 35.75 4.6 35.75 3.35 Z"/>
</g>

<g id="Layer0_2_FILL">
<path fill="#757B8E" stroke="none" d="
M 76.35 32.5
L 72.85 32.5 72.85 36 76.35 36 76.35 32.5
M 46.6 30.85
L 44.05 30.85 44.05 33.4 46.6 33.4 46.6 30.85
M 75.75 3.35
L 74.5 3.35 74.5 4.6 75.75 4.6 75.75 3.35 Z"/>
</g>

<g id="Layer0_3_FILL">
<path fill="#BF9960" stroke="none" d="
M 120 23.4
L 120 16.8 80 16.8 80 23.4 120 23.4 Z"/>
</g>

<g id="Layer0_3_MEMBER_0_FILL">
<path fill="url(#Gradient_1)" stroke="none" d="
M 94.25 25.6
L 109.15 40.4 120.75 28.75 105.75 14.35 94.25 25.6 Z"/>
</g>

<g id="Layer0_3_MEMBER_1_FILL">
<path fill="#BF9960" stroke="none" d="
M 97.75 25.7
L 97.75 17.85 102.15 17.85 102.15 22 102.15 17.85 97.75 17.85 97.75 25.7 105.65 25.7 105.65 14.3 94.25 14.3 94.25 25.7 97.75 25.7 Z"/>
</g>

<g id="Layer0_4_FILL">
<path fill="#BF9960" stroke="none" d="
M 143.55 40
L 143.55 0 136.95 0 136.95 40 143.55 40 Z"/>
</g>

<g id="Layer0_4_MEMBER_0_FILL">
<path fill="url(#Gradient_2)" stroke="none" d="
M 134.7 25.35
L 149.6 40.15 161.25 28.55 146.2 14.15 134.7 25.35 Z"/>
</g>

<g id="Layer0_4_MEMBER_1_FILL">
<path fill="#BF9960" stroke="none" d="
M 134.75 17.6
L 142.55 17.6 142.55 22 138.45 22 142.55 22 142.55 17.6 134.75 17.6 134.75 25.5 146.1 25.5 146.1 14.1 134.75 14.1 134.75 17.6 Z"/>
</g>

<path id="Layer0_3_MEMBER_1_1_STROKES" stroke="#B48F55" stroke-width="1" stroke-linejoin="miter" stroke-linecap="butt" stroke-miterlimit="3" fill="none" d="
M 97.75 25.7
L 97.75 17.85 102.15 17.85 102.15 22"/>

<path id="Layer0_4_MEMBER_1_1_STROKES" stroke="#B48F55" stroke-width="1" stroke-linejoin="miter" stroke-linecap="butt" stroke-miterlimit="3" fill="none" d="
M 134.75 17.6
L 142.55 17.6 142.55 22 138.45 22"/>
</defs>

<g transform="matrix( 1, 0, 0, 1, 0,0) ">
<use xlink:href="#Layer0_0_FILL"/>
</g>

<g transform="matrix( 1, 0, 0, 1, 0,0) ">
<use xlink:href="#Layer0_1_FILL"/>
</g>

<g transform="matrix( 1, 0, 0, 1, 0,0) ">
<use xlink:href="#Layer0_2_FILL"/>
</g>

<g transform="matrix( 1, 0, 0, 1, 0,0) ">
<use xlink:href="#Layer0_3_FILL"/>
</g>

<g transform="matrix( 1, 0, 0, 1, 0,0) ">
<use xlink:href="#Layer0_3_MEMBER_0_FILL"/>
</g>

<g transform="matrix( 1, 0, 0, 1, 0,0) ">
<use xlink:href="#Layer0_3_MEMBER_1_FILL"/>

<use xlink:href="#Layer0_3_MEMBER_1_1_STROKES"/>
</g>

<g transform="matrix( 1, 0, 0, 1, 0,0) ">
<use xlink:href="#Layer0_4_FILL"/>
</g>

<g transform="matrix( 1, 0, 0, 1, 0,0) ">
<use xlink:href="#Layer0_4_MEMBER_0_FILL"/>
</g>

<g transform="matrix( 1, 0, 0, 1, 0,0) ">
<use xlink:href="#Layer0_4_MEMBER_1_FILL"/>

<use xlink:href="#Layer0_4_MEMBER_1_1_STROKES"/>
</g>
</svg>
