
<svg xmlns="http://www.w3.org/2000/svg" version="1.1" xmlns:xlink="http://www.w3.org/1999/xlink" preserveAspectRatio="none" x="0px" y="0px" width="480px" height="80px" viewBox="0 0 480 80">
<defs>
<linearGradient id="Gradient_1" gradientUnits="userSpaceOnUse" x1="68.4625" y1="68.5625" x2="81.5375" y2="81.63749999999999" spreadMethod="pad">
<stop  offset="0%" stop-color="#000000" stop-opacity="0.2"/>

<stop  offset="100%" stop-color="#000000" stop-opacity="0"/>
</linearGradient>

<linearGradient id="Gradient_2" gradientUnits="userSpaceOnUse" x1="40.0125" y1="68.2625" x2="52.4875" y2="80.7375" spreadMethod="pad">
<stop  offset="0%" stop-color="#000000" stop-opacity="0.2"/>

<stop  offset="100%" stop-color="#000000" stop-opacity="0"/>
</linearGradient>

<linearGradient id="Gradient_3" gradientUnits="userSpaceOnUse" x1="11.412500000000001" y1="68.1625" x2="24.6875" y2="81.4375" spreadMethod="pad">
<stop  offset="0%" stop-color="#000000" stop-opacity="0.2"/>

<stop  offset="100%" stop-color="#000000" stop-opacity="0"/>
</linearGradient>

<linearGradient id="Gradient_4" gradientUnits="userSpaceOnUse" x1="11.274999999999999" y1="39.775" x2="27.025" y2="55.525" spreadMethod="pad">
<stop  offset="0%" stop-color="#000000" stop-opacity="0.2"/>

<stop  offset="100%" stop-color="#000000" stop-opacity="0"/>
</linearGradient>

<linearGradient id="Gradient_5" gradientUnits="userSpaceOnUse" x1="11.074999999999998" y1="11.074999999999998" x2="28.225" y2="28.225" spreadMethod="pad">
<stop  offset="0%" stop-color="#000000" stop-opacity="0.2"/>

<stop  offset="100%" stop-color="#000000" stop-opacity="0"/>
</linearGradient>

<linearGradient id="Gradient_6" gradientUnits="userSpaceOnUse" x1="39.775" y1="11.274999999999999" x2="55.525" y2="27.025" spreadMethod="pad">
<stop  offset="0%" stop-color="#000000" stop-opacity="0.2"/>

<stop  offset="100%" stop-color="#000000" stop-opacity="0"/>
</linearGradient>

<linearGradient id="Gradient_7" gradientUnits="userSpaceOnUse" x1="68.5125" y1="39.9625" x2="80.28750000000001" y2="51.737500000000004" spreadMethod="pad">
<stop  offset="0%" stop-color="#000000" stop-opacity="0.2"/>

<stop  offset="100%" stop-color="#000000" stop-opacity="0"/>
</linearGradient>

<linearGradient id="Gradient_8" gradientUnits="userSpaceOnUse" x1="68.1125" y1="11.2625" x2="80.4875" y2="23.6375" spreadMethod="pad">
<stop  offset="0%" stop-color="#000000" stop-opacity="0.2"/>

<stop  offset="100%" stop-color="#000000" stop-opacity="0"/>
</linearGradient>

<linearGradient id="Gradient_9" gradientUnits="userSpaceOnUse" x1="148.4625" y1="68.5625" x2="161.5375" y2="81.63749999999999" spreadMethod="pad">
<stop  offset="0%" stop-color="#000000" stop-opacity="0.2"/>

<stop  offset="100%" stop-color="#000000" stop-opacity="0"/>
</linearGradient>

<linearGradient id="Gradient_10" gradientUnits="userSpaceOnUse" x1="120.0125" y1="68.2625" x2="132.4875" y2="80.7375" spreadMethod="pad">
<stop  offset="0%" stop-color="#000000" stop-opacity="0.2"/>

<stop  offset="100%" stop-color="#000000" stop-opacity="0"/>
</linearGradient>

<linearGradient id="Gradient_11" gradientUnits="userSpaceOnUse" x1="91.4125" y1="68.1625" x2="104.6875" y2="81.4375" spreadMethod="pad">
<stop  offset="0%" stop-color="#000000" stop-opacity="0.2"/>

<stop  offset="100%" stop-color="#000000" stop-opacity="0"/>
</linearGradient>

<linearGradient id="Gradient_12" gradientUnits="userSpaceOnUse" x1="91.275" y1="39.775" x2="107.025" y2="55.525" spreadMethod="pad">
<stop  offset="0%" stop-color="#000000" stop-opacity="0.2"/>

<stop  offset="100%" stop-color="#000000" stop-opacity="0"/>
</linearGradient>

<linearGradient id="Gradient_13" gradientUnits="userSpaceOnUse" x1="91.075" y1="11.074999999999998" x2="108.22500000000001" y2="28.225" spreadMethod="pad">
<stop  offset="0%" stop-color="#000000" stop-opacity="0.2"/>

<stop  offset="100%" stop-color="#000000" stop-opacity="0"/>
</linearGradient>

<linearGradient id="Gradient_14" gradientUnits="userSpaceOnUse" x1="119.775" y1="11.274999999999999" x2="135.525" y2="27.025" spreadMethod="pad">
<stop  offset="0%" stop-color="#000000" stop-opacity="0.2"/>

<stop  offset="100%" stop-color="#000000" stop-opacity="0"/>
</linearGradient>

<linearGradient id="Gradient_15" gradientUnits="userSpaceOnUse" x1="148.51250000000002" y1="39.9625" x2="160.2875" y2="51.737500000000004" spreadMethod="pad">
<stop  offset="0%" stop-color="#000000" stop-opacity="0.2"/>

<stop  offset="100%" stop-color="#000000" stop-opacity="0"/>
</linearGradient>

<linearGradient id="Gradient_16" gradientUnits="userSpaceOnUse" x1="148.1125" y1="11.2625" x2="160.4875" y2="23.6375" spreadMethod="pad">
<stop  offset="0%" stop-color="#000000" stop-opacity="0.2"/>

<stop  offset="100%" stop-color="#000000" stop-opacity="0"/>
</linearGradient>

<linearGradient id="Gradient_17" gradientUnits="userSpaceOnUse" x1="228.4625" y1="68.5625" x2="241.5375" y2="81.63749999999999" spreadMethod="pad">
<stop  offset="0%" stop-color="#000000" stop-opacity="0.2"/>

<stop  offset="100%" stop-color="#000000" stop-opacity="0"/>
</linearGradient>

<linearGradient id="Gradient_18" gradientUnits="userSpaceOnUse" x1="200.0125" y1="68.2625" x2="212.4875" y2="80.7375" spreadMethod="pad">
<stop  offset="0%" stop-color="#000000" stop-opacity="0.2"/>

<stop  offset="100%" stop-color="#000000" stop-opacity="0"/>
</linearGradient>

<linearGradient id="Gradient_19" gradientUnits="userSpaceOnUse" x1="171.41250000000002" y1="68.1625" x2="184.6875" y2="81.4375" spreadMethod="pad">
<stop  offset="0%" stop-color="#000000" stop-opacity="0.2"/>

<stop  offset="100%" stop-color="#000000" stop-opacity="0"/>
</linearGradient>

<linearGradient id="Gradient_20" gradientUnits="userSpaceOnUse" x1="171.275" y1="39.775" x2="187.025" y2="55.525" spreadMethod="pad">
<stop  offset="0%" stop-color="#000000" stop-opacity="0.2"/>

<stop  offset="100%" stop-color="#000000" stop-opacity="0"/>
</linearGradient>

<linearGradient id="Gradient_21" gradientUnits="userSpaceOnUse" x1="171.07500000000002" y1="11.074999999999998" x2="188.225" y2="28.225" spreadMethod="pad">
<stop  offset="0%" stop-color="#000000" stop-opacity="0.2"/>

<stop  offset="100%" stop-color="#000000" stop-opacity="0"/>
</linearGradient>

<linearGradient id="Gradient_22" gradientUnits="userSpaceOnUse" x1="228.51250000000002" y1="39.9625" x2="240.2875" y2="51.737500000000004" spreadMethod="pad">
<stop  offset="0%" stop-color="#000000" stop-opacity="0.2"/>

<stop  offset="100%" stop-color="#000000" stop-opacity="0"/>
</linearGradient>

<linearGradient id="Gradient_23" gradientUnits="userSpaceOnUse" x1="199.775" y1="11.274999999999999" x2="215.525" y2="27.025" spreadMethod="pad">
<stop  offset="0%" stop-color="#000000" stop-opacity="0.2"/>

<stop  offset="100%" stop-color="#000000" stop-opacity="0"/>
</linearGradient>

<linearGradient id="Gradient_24" gradientUnits="userSpaceOnUse" x1="228.1125" y1="11.2625" x2="240.4875" y2="23.6375" spreadMethod="pad">
<stop  offset="0%" stop-color="#000000" stop-opacity="0.2"/>

<stop  offset="100%" stop-color="#000000" stop-opacity="0"/>
</linearGradient>

<linearGradient id="Gradient_25" gradientUnits="userSpaceOnUse" x1="308.4625" y1="68.5625" x2="321.5375" y2="81.63749999999999" spreadMethod="pad">
<stop  offset="0%" stop-color="#000000" stop-opacity="0.2"/>

<stop  offset="100%" stop-color="#000000" stop-opacity="0"/>
</linearGradient>

<linearGradient id="Gradient_26" gradientUnits="userSpaceOnUse" x1="280.0125" y1="68.2625" x2="292.4875" y2="80.7375" spreadMethod="pad">
<stop  offset="0%" stop-color="#000000" stop-opacity="0.2"/>

<stop  offset="100%" stop-color="#000000" stop-opacity="0"/>
</linearGradient>

<linearGradient id="Gradient_27" gradientUnits="userSpaceOnUse" x1="251.41250000000002" y1="68.1625" x2="264.6875" y2="81.4375" spreadMethod="pad">
<stop  offset="0%" stop-color="#000000" stop-opacity="0.2"/>

<stop  offset="100%" stop-color="#000000" stop-opacity="0"/>
</linearGradient>

<linearGradient id="Gradient_28" gradientUnits="userSpaceOnUse" x1="251.27499999999998" y1="39.775" x2="267.025" y2="55.525" spreadMethod="pad">
<stop  offset="0%" stop-color="#000000" stop-opacity="0.2"/>

<stop  offset="100%" stop-color="#000000" stop-opacity="0"/>
</linearGradient>

<linearGradient id="Gradient_29" gradientUnits="userSpaceOnUse" x1="251.075" y1="11.074999999999998" x2="268.22499999999997" y2="28.225" spreadMethod="pad">
<stop  offset="0%" stop-color="#000000" stop-opacity="0.2"/>

<stop  offset="100%" stop-color="#000000" stop-opacity="0"/>
</linearGradient>

<linearGradient id="Gradient_30" gradientUnits="userSpaceOnUse" x1="308.5125" y1="39.9625" x2="320.28749999999997" y2="51.737500000000004" spreadMethod="pad">
<stop  offset="0%" stop-color="#000000" stop-opacity="0.2"/>

<stop  offset="100%" stop-color="#000000" stop-opacity="0"/>
</linearGradient>

<linearGradient id="Gradient_31" gradientUnits="userSpaceOnUse" x1="279.775" y1="11.274999999999999" x2="295.525" y2="27.025" spreadMethod="pad">
<stop  offset="0%" stop-color="#000000" stop-opacity="0.2"/>

<stop  offset="100%" stop-color="#000000" stop-opacity="0"/>
</linearGradient>

<linearGradient id="Gradient_32" gradientUnits="userSpaceOnUse" x1="308.1125" y1="11.2625" x2="320.4875" y2="23.6375" spreadMethod="pad">
<stop  offset="0%" stop-color="#000000" stop-opacity="0.2"/>

<stop  offset="100%" stop-color="#000000" stop-opacity="0"/>
</linearGradient>

<linearGradient id="Gradient_33" gradientUnits="userSpaceOnUse" x1="388.4625" y1="68.5625" x2="401.5375" y2="81.63749999999999" spreadMethod="pad">
<stop  offset="0%" stop-color="#000000" stop-opacity="0.2"/>

<stop  offset="100%" stop-color="#000000" stop-opacity="0"/>
</linearGradient>

<linearGradient id="Gradient_34" gradientUnits="userSpaceOnUse" x1="360.0125" y1="68.2625" x2="372.4875" y2="80.7375" spreadMethod="pad">
<stop  offset="0%" stop-color="#000000" stop-opacity="0.2"/>

<stop  offset="100%" stop-color="#000000" stop-opacity="0"/>
</linearGradient>

<linearGradient id="Gradient_35" gradientUnits="userSpaceOnUse" x1="331.4125" y1="68.1625" x2="344.6875" y2="81.4375" spreadMethod="pad">
<stop  offset="0%" stop-color="#000000" stop-opacity="0.2"/>

<stop  offset="100%" stop-color="#000000" stop-opacity="0"/>
</linearGradient>

<linearGradient id="Gradient_36" gradientUnits="userSpaceOnUse" x1="331.275" y1="39.775" x2="347.025" y2="55.525" spreadMethod="pad">
<stop  offset="0%" stop-color="#000000" stop-opacity="0.2"/>

<stop  offset="100%" stop-color="#000000" stop-opacity="0"/>
</linearGradient>

<linearGradient id="Gradient_37" gradientUnits="userSpaceOnUse" x1="331.075" y1="11.074999999999998" x2="348.22499999999997" y2="28.225" spreadMethod="pad">
<stop  offset="0%" stop-color="#000000" stop-opacity="0.2"/>

<stop  offset="100%" stop-color="#000000" stop-opacity="0"/>
</linearGradient>

<linearGradient id="Gradient_38" gradientUnits="userSpaceOnUse" x1="388.5125" y1="39.9625" x2="400.28749999999997" y2="51.737500000000004" spreadMethod="pad">
<stop  offset="0%" stop-color="#000000" stop-opacity="0.2"/>

<stop  offset="100%" stop-color="#000000" stop-opacity="0"/>
</linearGradient>

<linearGradient id="Gradient_39" gradientUnits="userSpaceOnUse" x1="359.775" y1="11.274999999999999" x2="375.525" y2="27.025" spreadMethod="pad">
<stop  offset="0%" stop-color="#000000" stop-opacity="0.2"/>

<stop  offset="100%" stop-color="#000000" stop-opacity="0"/>
</linearGradient>

<linearGradient id="Gradient_40" gradientUnits="userSpaceOnUse" x1="388.1125" y1="11.2625" x2="400.4875" y2="23.6375" spreadMethod="pad">
<stop  offset="0%" stop-color="#000000" stop-opacity="0.2"/>

<stop  offset="100%" stop-color="#000000" stop-opacity="0"/>
</linearGradient>

<g id="Layer0_0_FILL">
<path fill="#B2C2A5" stroke="none" d="
M 0 0
L 0 79.8 79.8 79.8 79.8 0 0 0
M 10.75 11
L 68.5 11 68.5 68.75 10.75 68.75 10.75 11
M 159.8 79.8
L 159.8 0 80 0 80 79.8 159.8 79.8
M 90.75 11
L 148.5 11 148.5 68.75 90.75 68.75 90.75 11
M 239.8 79.8
L 239.8 0 160 0 160 79.8 239.8 79.8
M 170.75 11
L 228.5 11 228.5 68.75 170.75 68.75 170.75 11
M 319.8 79.8
L 319.8 0 240 0 240 79.8 319.8 79.8
M 250.75 11
L 308.5 11 308.5 68.75 250.75 68.75 250.75 11
M 399.8 79.8
L 399.8 0 320 0 320 79.8 399.8 79.8
M 330.75 11
L 388.5 11 388.5 68.75 330.75 68.75 330.75 11 Z"/>

<path fill="#A5B499" stroke="none" d="
M 68.5 11
L 10.75 11 10.75 68.75 68.5 68.75 68.5 11
M 148.5 11
L 90.75 11 90.75 68.75 148.5 68.75 148.5 11
M 228.5 11
L 170.75 11 170.75 68.75 228.5 68.75 228.5 11
M 308.5 11
L 250.75 11 250.75 68.75 308.5 68.75 308.5 11
M 388.5 11
L 330.75 11 330.75 68.75 388.5 68.75 388.5 11 Z"/>
</g>

<g id="Layer0_1_FILL">
<path fill="#9FA892" stroke="none" d="
M 53.9 73.65
L 51.9 73.65 51.9 75.55 53.9 75.55 53.9 73.65
M 22.9 62.15
L 20.9 62.15 20.9 64.05 22.9 64.05 22.9 62.15
M 29.9 63.65
L 25.9 63.65 25.9 67.55 29.9 67.65 29.9 63.65
M 6.9 29.65
L 4.9 29.65 4.9 31.55 6.9 31.55 6.9 29.65
M 50.9 18.4
L 48.9 18.4 48.9 20.3 50.9 20.3 50.9 18.4
M 70.15 17.65
L 66.15 17.65 66.15 21.55 70.15 21.65 70.15 17.65 Z"/>
</g>

<g id="Layer0_2_FILL">
<path fill="#9FA892" stroke="none" d="
M 133.9 73.65
L 131.9 73.65 131.9 75.55 133.9 75.55 133.9 73.65
M 102.9 62.15
L 100.9 62.15 100.9 64.05 102.9 64.05 102.9 62.15
M 109.9 63.65
L 105.9 63.65 105.9 67.55 109.9 67.65 109.9 63.65
M 86.9 29.65
L 84.9 29.65 84.9 31.55 86.9 31.55 86.9 29.65
M 130.9 18.4
L 128.9 18.4 128.9 20.3 130.9 20.3 130.9 18.4
M 150.15 17.65
L 146.15 17.65 146.15 21.55 150.15 21.65 150.15 17.65 Z"/>
</g>

<g id="Layer0_3_FILL">
<path fill="#9FA892" stroke="none" d="
M 213.9 73.65
L 211.9 73.65 211.9 75.55 213.9 75.55 213.9 73.65
M 182.9 62.15
L 180.9 62.15 180.9 64.05 182.9 64.05 182.9 62.15
M 189.9 63.65
L 185.9 63.65 185.9 67.55 189.9 67.65 189.9 63.65
M 166.9 29.65
L 164.9 29.65 164.9 31.55 166.9 31.55 166.9 29.65
M 210.9 18.4
L 208.9 18.4 208.9 20.3 210.9 20.3 210.9 18.4
M 230.15 17.65
L 226.15 17.65 226.15 21.55 230.15 21.65 230.15 17.65 Z"/>
</g>

<g id="Layer0_4_FILL">
<path fill="#9FA892" stroke="none" d="
M 293.9 73.65
L 291.9 73.65 291.9 75.55 293.9 75.55 293.9 73.65
M 262.9 62.15
L 260.9 62.15 260.9 64.05 262.9 64.05 262.9 62.15
M 269.9 63.65
L 265.9 63.65 265.9 67.55 269.9 67.65 269.9 63.65
M 246.9 29.65
L 244.9 29.65 244.9 31.55 246.9 31.55 246.9 29.65
M 290.9 18.4
L 288.9 18.4 288.9 20.3 290.9 20.3 290.9 18.4
M 310.15 17.65
L 306.15 17.65 306.15 21.55 310.15 21.65 310.15 17.65 Z"/>
</g>

<g id="Layer0_5_FILL">
<path fill="#EE5A48" stroke="none" d="
M 103.15 50.05
L 103.35 50.4 120.6 59.1 137.05 50.4 137.05 21 103.15 21 103.15 50.05
M 123.35 25.3
Q 119.3296875 32.3630859375 124.05 37.3 128.7810546875 42.2984375 119.8 51.85 122.033203125 45.40703125 117.5 41.7 112.96953125 37.9951171875 114.85 34.1 116.777734375 30.250390625 123.35 25.3 Z"/>
</g>

<g id="Layer0_6_FILL">
<path fill="#3675BB" stroke="none" d="
M 182.95 50.05
L 183.15 50.4 200.4 59.1 216.85 50.4 216.85 21 182.95 21 182.95 50.05
M 199.4 41.2
L 193 38.5 203.9 25.45 200.3 36 206.4 38.65 196.2 52.05 199.4 41.2 Z"/>
</g>

<g id="Layer0_7_FILL">
<path fill="#DBA234" stroke="none" d="
M 262.95 50.05
L 263.15 50.4 280.4 59.1 296.85 50.4 296.85 21 262.95 21 262.95 50.05
M 286.9 36.1
L 293.15 46.95 289.95 46.95
Q 286.45 46.95 282.95 46.95 282.3 46.95 281.8 46.95
L 267.1 46.9 278.55 27.15 284.5 37.15 281.9 43.45 286.9 36.1 Z"/>
</g>

<g id="Layer0_8_FILL">
<path fill="#FFFFFF" stroke="none" d="
M 480 80
L 480 0 400 0 400 80 480 80 Z"/>
</g>

<g id="Layer0_9_FILL">
<path fill="#C9D9BB" stroke="none" d="
M 75 61.45
L 61.45 61.45 61.45 75 75 75 75 61.45
M 32.9 61.45
L 32.9 75 47.05 75 47.05 61.45 32.9 61.45
M 4.8 61.45
L 4.8 75 17.55 75 17.55 61.45 4.8 61.45
M 4.8 47.05
L 17.55 47.05 17.55 32.9 4.8 32.9 4.8 47.05
M 17.55 17.55
L 17.55 4.8 4.8 4.8 4.8 17.55 17.55 17.55
M 47.05 17.55
L 47.05 4.8 32.9 4.8 32.9 17.55 47.05 17.55
M 75 32.9
L 61.45 32.9 61.45 47.05 75 47.05 75 32.9
M 75 17.55
L 75 4.8 61.45 4.8 61.45 17.55 75 17.55 Z"/>

<path fill="url(#Gradient_1)" stroke="none" d="
M 79.5 65.95
L 75 61.45 75 75 61.45 75 75 88.75 79.5 84.15 79.5 65.95 Z"/>

<path fill="url(#Gradient_2)" stroke="none" d="
M 59.65 74
L 47.05 61.45 47.05 75 32.9 75 46.05 87.55 59.65 74 Z"/>

<path fill="url(#Gradient_3)" stroke="none" d="
M 31.3 75.2
L 17.55 61.45 17.55 75 4.8 75 18.35 88.15 31.3 75.2 Z"/>

<path fill="url(#Gradient_4)" stroke="none" d="
M 17.55 47.05
L 4.8 47.05 20.15 62.4 33.6 48.95 17.55 32.9 17.55 47.05 Z"/>

<path fill="url(#Gradient_5)" stroke="none" d="
M 17.55 4.8
L 17.55 17.55 4.8 17.55 21.75 34.5 34.5 21.75 17.55 4.8 Z"/>

<path fill="url(#Gradient_6)" stroke="none" d="
M 47.05 4.8
L 47.05 17.55 32.9 17.55 48.95 33.6 62.4 20.15 47.05 4.8 Z"/>

<path fill="url(#Gradient_7)" stroke="none" d="
M 79.5 37.4
L 75 32.9 75 47.05 61.45 47.05 73.3 58.95 79.5 52.7 79.5 37.4 Z"/>

<path fill="url(#Gradient_8)" stroke="none" d="
M 79.5 9.3
L 75 4.8 75 17.55 61.45 17.55 74.1 30.2 79.5 24.8 79.5 9.3 Z"/>
</g>

<g id="Layer0_10_FILL">
<path fill="#C9D9BB" stroke="none" d="
M 141.45 75
L 155 75 155 61.45 141.45 61.45 141.45 75
M 112.9 61.45
L 112.9 75 127.05 75 127.05 61.45 112.9 61.45
M 84.8 61.45
L 84.8 75 97.55 75 97.55 61.45 84.8 61.45
M 84.8 32.9
L 84.8 47.05 97.55 47.05 97.55 32.9 84.8 32.9
M 97.55 17.55
L 97.55 4.8 84.8 4.8 84.8 17.55 97.55 17.55
M 127.05 17.55
L 127.05 4.8 112.9 4.8 112.9 17.55 127.05 17.55
M 141.45 32.9
L 141.45 47.05 155 47.05 155 32.9 141.45 32.9
M 155 17.55
L 155 4.8 141.45 4.8 141.45 17.55 155 17.55 Z"/>

<path fill="url(#Gradient_9)" stroke="none" d="
M 159.5 65.95
L 155 61.45 155 75 141.45 75 155 88.75 159.5 84.15 159.5 65.95 Z"/>

<path fill="url(#Gradient_10)" stroke="none" d="
M 139.65 74
L 127.05 61.45 127.05 75 112.9 75 126.05 87.55 139.65 74 Z"/>

<path fill="url(#Gradient_11)" stroke="none" d="
M 111.3 75.2
L 97.55 61.45 97.55 75 84.8 75 98.35 88.15 111.3 75.2 Z"/>

<path fill="url(#Gradient_12)" stroke="none" d="
M 97.55 47.05
L 84.8 47.05 100.15 62.4 113.6 48.95 97.55 32.9 97.55 47.05 Z"/>

<path fill="url(#Gradient_13)" stroke="none" d="
M 97.55 4.8
L 97.55 17.55 84.8 17.55 101.75 34.5 114.5 21.75 97.55 4.8 Z"/>

<path fill="url(#Gradient_14)" stroke="none" d="
M 127.05 4.8
L 127.05 17.55 112.9 17.55 128.95 33.6 142.4 20.15 127.05 4.8 Z"/>

<path fill="url(#Gradient_15)" stroke="none" d="
M 159.5 37.4
L 155 32.9 155 47.05 141.45 47.05 153.3 58.95 159.5 52.7 159.5 37.4 Z"/>

<path fill="url(#Gradient_16)" stroke="none" d="
M 159.5 9.3
L 155 4.8 155 17.55 141.45 17.55 154.1 30.2 159.5 24.8 159.5 9.3 Z"/>
</g>

<g id="Layer0_11_FILL">
<path fill="#C9D9BB" stroke="none" d="
M 221.45 75
L 235 75 235 61.45 221.45 61.45 221.45 75
M 192.9 61.45
L 192.9 75 207.05 75 207.05 61.45 192.9 61.45
M 164.8 61.45
L 164.8 75 177.55 75 177.55 61.45 164.8 61.45
M 164.8 47.05
L 177.55 47.05 177.55 32.9 164.8 32.9 164.8 47.05
M 177.55 17.55
L 177.55 4.8 164.8 4.8 164.8 17.55 177.55 17.55
M 221.45 32.9
L 221.45 47.05 235 47.05 235 32.9 221.45 32.9
M 207.05 17.55
L 207.05 4.8 192.9 4.8 192.9 17.55 207.05 17.55
M 235 17.55
L 235 4.8 221.45 4.8 221.45 17.55 235 17.55 Z"/>

<path fill="url(#Gradient_17)" stroke="none" d="
M 240 66.45
L 235 61.45 235 75 221.45 75 235 88.75 240 83.65 240 66.45 Z"/>

<path fill="url(#Gradient_18)" stroke="none" d="
M 219.65 74
L 207.05 61.45 207.05 75 192.9 75 206.05 87.55 219.65 74 Z"/>

<path fill="url(#Gradient_19)" stroke="none" d="
M 191.3 75.2
L 177.55 61.45 177.55 75 164.8 75 178.35 88.15 191.3 75.2 Z"/>

<path fill="url(#Gradient_20)" stroke="none" d="
M 177.55 47.05
L 164.8 47.05 180.15 62.4 193.6 48.95 177.55 32.9 177.55 47.05 Z"/>

<path fill="url(#Gradient_21)" stroke="none" d="
M 177.55 4.8
L 177.55 17.55 164.8 17.55 181.75 34.5 194.5 21.75 177.55 4.8 Z"/>

<path fill="url(#Gradient_22)" stroke="none" d="
M 240 37.9
L 235 32.9 235 47.05 221.45 47.05 233.3 58.95 240 52.2 240 37.9 Z"/>

<path fill="url(#Gradient_23)" stroke="none" d="
M 207.05 4.8
L 207.05 17.55 192.9 17.55 208.95 33.6 222.4 20.15 207.05 4.8 Z"/>

<path fill="url(#Gradient_24)" stroke="none" d="
M 240 24.3
L 240 9.8 235 4.8 235 17.55 221.45 17.55 234.1 30.2 240 24.3 Z"/>
</g>

<g id="Layer0_12_FILL">
<path fill="#C9D9BB" stroke="none" d="
M 301.45 75
L 315 75 315 61.45 301.45 61.45 301.45 75
M 272.9 61.45
L 272.9 75 287.05 75 287.05 61.45 272.9 61.45
M 244.8 61.45
L 244.8 75 257.55 75 257.55 61.45 244.8 61.45
M 244.8 47.05
L 257.55 47.05 257.55 32.9 244.8 32.9 244.8 47.05
M 257.55 17.55
L 257.55 4.8 244.8 4.8 244.8 17.55 257.55 17.55
M 301.45 32.9
L 301.45 47.05 315 47.05 315 32.9 301.45 32.9
M 287.05 17.55
L 287.05 4.8 272.9 4.8 272.9 17.55 287.05 17.55
M 315 17.55
L 315 4.8 301.45 4.8 301.45 17.55 315 17.55 Z"/>

<path fill="url(#Gradient_25)" stroke="none" d="
M 319.5 65.95
L 315 61.45 315 75 301.45 75 315 88.75 319.5 84.15 319.5 65.95 Z"/>

<path fill="url(#Gradient_26)" stroke="none" d="
M 299.65 74
L 287.05 61.45 287.05 75 272.9 75 286.05 87.55 299.65 74 Z"/>

<path fill="url(#Gradient_27)" stroke="none" d="
M 271.3 75.2
L 257.55 61.45 257.55 75 244.8 75 258.35 88.15 271.3 75.2 Z"/>

<path fill="url(#Gradient_28)" stroke="none" d="
M 257.55 47.05
L 244.8 47.05 260.15 62.4 273.6 48.95 257.55 32.9 257.55 47.05 Z"/>

<path fill="url(#Gradient_29)" stroke="none" d="
M 257.55 4.8
L 257.55 17.55 244.8 17.55 261.75 34.5 274.5 21.75 257.55 4.8 Z"/>

<path fill="url(#Gradient_30)" stroke="none" d="
M 319.5 37.4
L 315 32.9 315 47.05 301.45 47.05 313.3 58.95 319.5 52.7 319.5 37.4 Z"/>

<path fill="url(#Gradient_31)" stroke="none" d="
M 287.05 4.8
L 287.05 17.55 272.9 17.55 288.95 33.6 302.4 20.15 287.05 4.8 Z"/>

<path fill="url(#Gradient_32)" stroke="none" d="
M 319.5 9.3
L 315 4.8 315 17.55 301.45 17.55 314.1 30.2 319.5 24.8 319.5 9.3 Z"/>
</g>

<g id="Layer0_13_FILL">
<path fill="#9059C6" stroke="none" d="
M 342.95 50.05
L 343.15 50.4 360.4 59.1 376.85 50.4 376.85 21 342.95 21 342.95 50.05
M 360.1 52
Q 348.45 38.95 359.85 25.45 371.4 38.7 360.1 52
M 363.05 35.8
Q 361.75 34.45 359.95 34.45 359.9 34.45 359.85 34.45 358.1 34.5 356.8 35.8 355.55 37.1 355.55 38.9 355.55 40.75 356.8 42 358.1 43.25 359.85 43.3 359.9 43.3 359.95 43.3 361.75 43.3 363.05 42 364.3 40.75 364.3 38.9 364.3 37.1 363.05 35.8
M 359.85 36.7
Q 359.9 36.7 359.95 36.7 360.8 36.7 361.5 37.4 362.15 37.95 362.15 38.9 362.15 39.75 361.5 40.45 360.8 41 359.95 41 359.9 41 359.85 41 359 41 358.4 40.45 357.75 39.75 357.75 38.9 357.75 37.95 358.4 37.4 359 36.7 359.85 36.7 Z"/>
</g>

<g id="Layer0_14_FILL">
<path fill="#9FA892" stroke="none" d="
M 373.9 73.65
L 371.9 73.65 371.9 75.55 373.9 75.55 373.9 73.65
M 342.9 62.15
L 340.9 62.15 340.9 64.05 342.9 64.05 342.9 62.15
M 349.9 63.65
L 345.9 63.65 345.9 67.55 349.9 67.65 349.9 63.65
M 326.9 29.65
L 324.9 29.65 324.9 31.55 326.9 31.55 326.9 29.65
M 370.9 18.4
L 368.9 18.4 368.9 20.3 370.9 20.3 370.9 18.4
M 390.15 17.65
L 386.15 17.65 386.15 21.55 390.15 21.65 390.15 17.65 Z"/>
</g>

<g id="Layer0_15_FILL">
<path fill="#C9D9BB" stroke="none" d="
M 395 61.45
L 381.45 61.45 381.45 75 395 75 395 61.45
M 352.9 61.45
L 352.9 75 367.05 75 367.05 61.45 352.9 61.45
M 324.8 61.45
L 324.8 75 337.55 75 337.55 61.45 324.8 61.45
M 324.8 32.9
L 324.8 47.05 337.55 47.05 337.55 32.9 324.8 32.9
M 337.55 17.55
L 337.55 4.8 324.8 4.8 324.8 17.55 337.55 17.55
M 381.45 32.9
L 381.45 47.05 395 47.05 395 32.9 381.45 32.9
M 367.05 17.55
L 367.05 4.8 352.9 4.8 352.9 17.55 367.05 17.55
M 395 17.55
L 395 4.8 381.45 4.8 381.45 17.55 395 17.55 Z"/>

<path fill="url(#Gradient_33)" stroke="none" d="
M 399.5 65.95
L 395 61.45 395 75 381.45 75 395 88.75 399.5 84.2 399.5 65.95 Z"/>

<path fill="url(#Gradient_34)" stroke="none" d="
M 379.65 74
L 367.05 61.45 367.05 75 352.9 75 366.05 87.55 379.65 74 Z"/>

<path fill="url(#Gradient_35)" stroke="none" d="
M 351.3 75.2
L 337.55 61.45 337.55 75 324.8 75 338.35 88.15 351.3 75.2 Z"/>

<path fill="url(#Gradient_36)" stroke="none" d="
M 337.55 47.05
L 324.8 47.05 340.15 62.4 353.6 48.95 337.55 32.9 337.55 47.05 Z"/>

<path fill="url(#Gradient_37)" stroke="none" d="
M 337.55 4.8
L 337.55 17.55 324.8 17.55 341.75 34.5 354.5 21.75 337.55 4.8 Z"/>

<path fill="url(#Gradient_38)" stroke="none" d="
M 395 32.9
L 395 47.05 381.45 47.05 393.3 58.95 399.5 52.75 399.5 37.4 395 32.9 Z"/>

<path fill="url(#Gradient_39)" stroke="none" d="
M 367.05 4.8
L 367.05 17.55 352.9 17.55 368.95 33.6 382.4 20.15 367.05 4.8 Z"/>

<path fill="url(#Gradient_40)" stroke="none" d="
M 399.5 9.3
L 395 4.8 395 17.55 381.45 17.55 394.1 30.2 399.5 24.8 399.5 9.3 Z"/>
</g>
</defs>

<g transform="matrix( 1, 0, 0, 1, 0,0) ">
<use xlink:href="#Layer0_0_FILL"/>
</g>

<g transform="matrix( 1, 0, 0, 1, 0,0) ">
<use xlink:href="#Layer0_1_FILL"/>
</g>

<g transform="matrix( 1, 0, 0, 1, 0,0) ">
<use xlink:href="#Layer0_2_FILL"/>
</g>

<g transform="matrix( 1, 0, 0, 1, 0,0) ">
<use xlink:href="#Layer0_3_FILL"/>
</g>

<g transform="matrix( 1, 0, 0, 1, 0,0) ">
<use xlink:href="#Layer0_4_FILL"/>
</g>

<g transform="matrix( 1, 0, 0, 1, 0,0) ">
<use xlink:href="#Layer0_5_FILL"/>
</g>

<g transform="matrix( 1, 0, 0, 1, 0,0) ">
<use xlink:href="#Layer0_6_FILL"/>
</g>

<g transform="matrix( 1, 0, 0, 1, 0,0) ">
<use xlink:href="#Layer0_7_FILL"/>
</g>

<g transform="matrix( 1, 0, 0, 1, 0,0) ">
<use xlink:href="#Layer0_8_FILL"/>
</g>

<g transform="matrix( 1, 0, 0, 1, 0,0) ">
<use xlink:href="#Layer0_9_FILL"/>
</g>

<g transform="matrix( 1, 0, 0, 1, 0,0) ">
<use xlink:href="#Layer0_10_FILL"/>
</g>

<g transform="matrix( 1, 0, 0, 1, 0,0) ">
<use xlink:href="#Layer0_11_FILL"/>
</g>

<g transform="matrix( 1, 0, 0, 1, 0,0) ">
<use xlink:href="#Layer0_12_FILL"/>
</g>

<g transform="matrix( 1, 0, 0, 1, 0,0) ">
<use xlink:href="#Layer0_13_FILL"/>
</g>

<g transform="matrix( 1, 0, 0, 1, 0,0) ">
<use xlink:href="#Layer0_14_FILL"/>
</g>

<g transform="matrix( 1, 0, 0, 1, 0,0) ">
<use xlink:href="#Layer0_15_FILL"/>
</g>
</svg>
