
<svg xmlns="http://www.w3.org/2000/svg" version="1.1" xmlns:xlink="http://www.w3.org/1999/xlink" preserveAspectRatio="none" x="0px" y="0px" width="40px" height="40px" viewBox="0 0 40 40">
<defs>
<g id="Layer0_0_FILL">
<path fill="#FFFFFF" stroke="none" d="
M 40 17.85
Q 39.80078125 11.396484375 34.05 6.75 28.25 2.2 20 2.2 19.9248046875 2.2 19.85 2.2 11.69765625 2.24140625 6 6.75 0.2 11.4 0.2 17.8 0.2 24.35 6.45 29.1 10.9138671875 32.523828125 19.85 32.6
L 19.85 37.4
Q 27.33359375 34.0853515625 33.5 29.4 40.251171875 24.3580078125 40 17.85
M 6.4 17.3
L 9.2 17.3 9.2 18.5 6.4 18.5 6.4 19.8 9.6 19.8 9.6 21.05 4.95 21.05 4.95 14.75 9.5 14.75 9.5 16 6.4 16 6.4 17.3
M 15.3 14.75
L 16.7 14.75 16.7 21.05 15.3 21.05 12.3 17.1 12.3 21.05 10.85 21.05 10.85 14.75 12.2 14.75 15.3 18.8 15.3 14.75
M 28.2 14.75
L 28.2 16 25.1 16 25.1 17.3 27.9 17.3 27.9 18.5 25.1 18.5 25.1 19.8 28.3 19.8 28.3 21.05 23.65 21.05 23.65 14.75 28.2 14.75
M 29.55 21.05
L 29.55 14.75 31.95 14.75
Q 33.45 14.75 34.05 15.25 34.7 15.75 34.7 16.85 34.7 18.35 33.5 18.8
L 35.05 21.05 33.35 21.05 31.95 19.05 31 19.05 31 21.05 29.55 21.05
M 22.65 15.95
L 20.9 15.95 20.9 21.05 19.5 21.05 19.5 15.95 17.7 15.95 17.7 14.75 22.65 14.75 22.65 15.95
M 32.05 15.95
L 31 15.95 31 17.85 32 17.85
Q 32.7 17.85 33 17.6 33.25 17.35 33.25 16.85 33.25 16.35 32.95 16.15 32.7 15.95 32.05 15.95 Z"/>
</g>
</defs>

<g transform="matrix( 1, 0, 0, 1, 0,0) ">
<use xlink:href="#Layer0_0_FILL"/>
</g>
</svg>
