
<svg xmlns="http://www.w3.org/2000/svg" version="1.1" xmlns:xlink="http://www.w3.org/1999/xlink" preserveAspectRatio="none" x="0px" y="0px" width="40px" height="40px" viewBox="0 0 40 40">
<defs>
<g id="Layer0_0_FILL">
<path fill="#FFFFFF" stroke="none" d="
M 40 17.85
Q 39.80078125 11.396484375 34.05 6.75 28.25 2.2 20 2.2 19.9248046875 2.2 19.85 2.2 11.69765625 2.24140625 6 6.75 0.2 11.4 0.2 17.8 0.2 24.35 6.45 29.1 10.9138671875 32.523828125 19.85 32.6
L 19.85 37.4
Q 27.33359375 34.0853515625 33.5 29.4 40.251171875 24.3580078125 40 17.85
M 28 18.5
Q 28 17.55 28.65 16.95 29.25 16.3 30.2 16.3 31.15 16.3 31.75 16.95 32.4 17.55 32.4 18.5 32.4 19.45 31.75 20.05 31.15 20.7 30.2 20.7 29.25 20.7 28.65 20.05 28 19.45 28 18.5
M 22.2 18.5
Q 22.2 19.45 21.55 20.05 20.95 20.7 20 20.7 19.05 20.7 18.45 20.05 17.8 19.45 17.8 18.5 17.8 17.55 18.45 16.95 19.05 16.3 20 16.3 20.95 16.3 21.55 16.95 22.2 17.55 22.2 18.5
M 8.25 16.95
Q 8.85 16.3 9.8 16.3 10.75 16.3 11.35 16.95 12 17.55 12 18.5 12 19.45 11.35 20.05 10.75 20.7 9.8 20.7 8.85 20.7 8.25 20.05 7.6 19.45 7.6 18.5 7.6 17.55 8.25 16.95 Z"/>
</g>
</defs>

<g transform="matrix( 1, 0, 0, 1, 0,0) ">
<use xlink:href="#Layer0_0_FILL"/>
</g>
</svg>
