
<svg xmlns="http://www.w3.org/2000/svg" version="1.1" xmlns:xlink="http://www.w3.org/1999/xlink" preserveAspectRatio="none" x="0px" y="0px" width="9px" height="13px" viewBox="0 0 9 13">
<defs>
<g id="Layer0_0_FILL">
<path fill="#FFBE1C" stroke="none" d="
M 3.05 5.7
Q 3.15 3.6 3.9 2.05 4.2 1.4 4.5 1.05 5 0.4 5.6 0.25
L 3.45 0.25
Q 3.25 0.2 3.05 0.2 2.85 0.2 2.65 0.25 1.7 0.55 1 2.05 0.15 3.9 0.15 6.5 0.15 7.55 0.3 8.5 0.5 9.9 1 10.95 1.75 12.6 2.75 12.8 2.9 12.85 3.05 12.85 3.15 12.85 3.35 12.8
L 5.65 12.8
Q 5.05 12.7 4.5 12 4.45 11.95 4.4 11.85 4.15 11.5 3.9 10.95 3.05 9.15 3.05 6.5 3.05 6.1 3.05 5.7 Z"/>

<path fill="#FFDB35" stroke="none" d="
M 5.95 0.2
Q 5.75 0.2 5.6 0.25 5 0.4 4.5 1.05 4.2 1.4 3.9 2.05 3.15 3.6 3.05 5.7 3.05 6.1 3.05 6.5 3.05 9.15 3.9 10.95 4.15 11.5 4.4 11.85 4.45 11.95 4.5 12 5.05 12.7 5.65 12.8 5.75 12.85 5.95 12.85 7.15 12.85 8 10.95 8.7 9.45 8.8 7.45 8.85 7 8.85 6.5 8.85 3.9 8 2.05 7.8 1.55 7.55 1.2 7 0.4 6.3 0.25 6.1 0.2 5.95 0.2 Z"/>
</g>
</defs>

<g transform="matrix( 1, 0, 0, 1, 0,0) ">
<use xlink:href="#Layer0_0_FILL"/>
</g>
</svg>
