
<svg xmlns="http://www.w3.org/2000/svg" version="1.1" xmlns:xlink="http://www.w3.org/1999/xlink" preserveAspectRatio="none" x="0px" y="0px" width="35px" height="35px" viewBox="0 0 35 35">
<defs>
<g id="Layer0_0_FILL">
<path fill="#FFFFFF" stroke="none" d="
M 35 17.5
Q 35 10.25 29.9 5.1 24.7 0 17.5 0 10.25 0 5.1 5.1 0 10.25 0 17.5 0 24.7 5.1 29.85 10.25 35 17.5 35 24.7 35 29.9 29.85 35 24.7 35 17.5
M 22.5 7.7
Q 24.35 9.3 24.35 12.15 24.35 13.4 24 14 23.65 14.6 23.55 14.9 23.35 15.15 22.95 15.65 22.5 16.2 22.3 16.35 21.6 17.15 20.9 17.85 20.2 18.45 20.05 18.9 19.8 19.35 19.8 20.15
L 19.8 22.05 15.05 22.05 15.05 19.7
Q 15.05 18.4 15.3 17.75 15.65 17.15 16.7 16
L 18.9 13.85
Q 19.35 13.2 19.35 12.35 19.35 11.45 18.8 10.85 18.4 10.25 17.5 10.25 16.7 10.25 16.2 10.95 15.6 11.65 15.5 12.85
L 10.5 12.85
Q 10.85 9.7 12.8 7.9 14.7 6.15 17.7 6.15 20.55 6.15 22.5 7.7
M 15.5 24.15
Q 16.3 23.35 17.4 23.35 18.65 23.35 19.45 24.15 20.2 24.95 20.2 26.1 20.2 27.3 19.45 28.1 18.65 28.9 17.4 28.9 16.3 28.9 15.5 28.1 14.7 27.3 14.7 26.1 14.7 24.95 15.5 24.15 Z"/>
</g>
</defs>

<g transform="matrix( 1, 0, 0, 1, 0,0) ">
<use xlink:href="#Layer0_0_FILL"/>
</g>
</svg>
