
<svg xmlns="http://www.w3.org/2000/svg" version="1.1" xmlns:xlink="http://www.w3.org/1999/xlink" preserveAspectRatio="none" x="0px" y="0px" width="200px" height="200px" viewBox="0 0 200 200">
<defs>
<g id="Layer0_0_FILL">
<path fill="#999999" stroke="none" d="
M 188.7 78.45
Q 188.7 69.95 180.4 69.95
L 19.75 69.95
Q 11.2 69.95 11.2 78.45
L 11.2 158.45
Q 11.2 166.7 19.75 166.7
L 180.4 166.7
Q 188.7 166.7 188.7 158.45
L 188.7 78.45
M 183.1 120.05
L 172.15 131.2 160.95 119.8 171.9 109.1 183.1 120.05
M 27 79.2
L 155.4 79.2 155.4 158.2 27 158.2 27 79.2 Z"/>
</g>

<path id="Layer0_0_1_STROKES" stroke="#999999" stroke-width="5" stroke-linejoin="bevel" stroke-linecap="square" fill="none" d="
M 48.9 43.7
L 48.9 55.15
Q 78.1 20.35 116.95 30.8 138.1 36.4 149.8 56.35
M 48.9 55.15
L 61.05 55.15"/>
</defs>

<g transform="matrix( 1, 0, 0, 1, 0,0) ">
<use xlink:href="#Layer0_0_FILL"/>

<use xlink:href="#Layer0_0_1_STROKES"/>
</g>
</svg>
