
<svg xmlns="http://www.w3.org/2000/svg" version="1.1" xmlns:xlink="http://www.w3.org/1999/xlink" preserveAspectRatio="none" x="0px" y="0px" width="120px" height="120px" viewBox="0 0 120 120">
<defs>
<g id="Layer0_0_FILL">
<path fill="#FFFFFF" fill-opacity="0.6" stroke="none" d="
M 120 60
Q 120 35.1 102.45 17.4 85.05 0 60 0 35.1 0 17.55 17.4 0 35.1 0 60 0 85.05 17.55 102.45 35.1 120 60 120 85.05 120 102.45 102.45 120 85.05 120 60
M 98.55 49.2
L 100.95 46.8 113.85 59.7 100.95 72.6 98.55 70.2 109.05 59.7 98.55 49.2
M 71.1 20.85
L 60.6 10.35 50.1 20.85 47.7 18.45 60.6 5.55 73.5 18.45 71.1 20.85
M 18.45 46.8
L 20.85 49.2 10.35 59.7 20.85 70.2 18.45 72.6 5.55 59.7 18.45 46.8
M 73.5 100.35
L 60.6 113.25 47.7 100.35 50.1 97.95 60.6 108.45 71.1 97.95 73.5 100.35 Z"/>
</g>
</defs>

<g transform="matrix( 1, 0, 0, 1, 0,0) ">
<use xlink:href="#Layer0_0_FILL"/>
</g>
</svg>
