
<svg xmlns="http://www.w3.org/2000/svg" version="1.1" xmlns:xlink="http://www.w3.org/1999/xlink" preserveAspectRatio="none" x="0px" y="0px" width="12px" height="12px" viewBox="0 0 12 12">
<defs>
<g id="Layer0_0_FILL">
<path fill="#6FB0D4" stroke="none" d="
M 10 10
Q 11.7 8.35 11.7 6 11.7 3.65 10 1.95 8.35 0.3 6 0.3 3.65 0.3 1.95 1.95 0.3 3.65 0.3 6 0.3 8.35 1.95 10 3.65 11.7 6 11.7 8.35 11.7 10 10 Z"/>
</g>

<g id="Layer0_0_MEMBER_0_FILL">
<path fill="#FFFFFF" stroke="none" d="
M 17.15 19.25
L 16.25 20.15 18.9 22.8 18.95 22.8 23.25 18.5 22.4 17.65 19 21.05 17.15 19.25 Z"/>
</g>
</defs>

<g transform="matrix( 1, 0, 0, 1, 0,0) ">
<use xlink:href="#Layer0_0_FILL"/>
</g>

<g transform="matrix( 1, 0, 0, 1, -14,-14) ">
<use xlink:href="#Layer0_0_MEMBER_0_FILL"/>
</g>
</svg>
