
<svg xmlns="http://www.w3.org/2000/svg" version="1.1" xmlns:xlink="http://www.w3.org/1999/xlink" preserveAspectRatio="none" x="0px" y="0px" width="120px" height="80px" viewBox="0 0 120 80">
<defs>
<g id="Layer0_0_FILL">
<path fill="#FFFFFF" stroke="none" d="
M 120 80
L 120 0 0 0 0 80 120 80
M 81.8 35.1
L 85.8 35.1 79.55 50.95
Q 78.85 52.85 78.2 54.5
L 74.75 53.05 76.45 48.9 76.45 48.8
Q 76.45 48.75 76.45 48.7 76.15 47.45 71.25 35.1
L 75.25 35.1 78.5 43.45 81.8 35.1
M 50.75 30
L 54.55 30 54.55 48.55 50.75 48.55 50.75 30
M 48.1 37.45
Q 48.1 40.7 46.2 42.2 44.3 43.7 40.4 43.7
L 38.1 43.7 38.1 48.55 34.2 48.55 34.2 31.05 40.4 31.05
Q 44.4 31.05 46.25 32.65 48.1 34.2 48.1 37.45
M 57.35 44.2
Q 57.35 42.15 58.85 41.15 60.35 40.1 62.95 40.1
L 65.75 40.1 65.75 40.05
Q 65.75 37.9 63.5 37.9 62.5 37.9 61.4 38.25 60.35 38.65 59.55 39.2
L 57.9 36.8
Q 60.55 34.9 63.95 34.9 66.4 34.9 67.95 36.1 69.5 37.3 69.5 40
L 69.5 48.55 66 48.55 66 46.95
Q 64.55 48.75 62.4 48.75 60.25 48.75 58.8 47.5 57.35 46.3 57.35 44.2
M 65.7 42.8
L 63.4 42.8
Q 61.1 42.8 61.1 44.2 61.1 44.9 61.65 45.3 62.2 45.65 63.2 45.65 64.2 45.65 64.95 45.05 65.7 44.45 65.7 43.4
L 65.7 42.8
M 40.75 40.3
Q 42.65 40.3 43.4 39.5 44.05 38.7 44.05 37.2 44.05 35.7 43.15 35.05 42.25 34.45 40.35 34.45
L 38.1 34.45 38.1 40.3 40.75 40.3 Z"/>
</g>
</defs>

<g transform="matrix( 1, 0, 0, 1, 0,0) ">
<use xlink:href="#Layer0_0_FILL"/>
</g>
</svg>
