
<svg xmlns="http://www.w3.org/2000/svg" version="1.1" xmlns:xlink="http://www.w3.org/1999/xlink" preserveAspectRatio="none" x="0px" y="0px" width="120px" height="80px" viewBox="0 0 120 80">
<defs>
<g id="Layer0_0_FILL">
<path fill="#FFFFFF" stroke="none" d="
M 66.55 36
L 62.75 36 62.75 54.55 66.55 54.55 66.55 36
M 58.2 48.2
Q 60.1 46.7 60.1 43.45 60.1 40.2 58.25 38.65 56.4 37.05 52.4 37.05
L 46.2 37.05 46.2 54.55 50.1 54.55 50.1 49.7 52.4 49.7
Q 56.3 49.7 58.2 48.2
M 50.1 46.3
L 50.1 40.45 52.35 40.45
Q 54.25 40.45 55.15 41.05 56.05 41.7 56.05 43.2 56.05 44.7 55.4 45.5 54.65 46.3 52.75 46.3
L 50.1 46.3
M 81.5 54.55
L 81.5 46
Q 81.5 43.3 79.95 42.1 78.4 40.9 75.95 40.9 72.55 40.9 69.9 42.8
L 71.55 45.2
Q 72.35 44.65 73.4 44.25 74.5 43.9 75.5 43.9 77.75 43.9 77.75 46.05
L 77.75 46.1 74.95 46.1
Q 72.35 46.1 70.85 47.15 69.35 48.15 69.35 50.2 69.35 52.3 70.8 53.5 72.25 54.75 74.4 54.75 76.55 54.75 78 52.95
L 78 54.55 81.5 54.55
M 75.4 48.8
L 77.7 48.8 77.7 49.4
Q 77.7 50.45 76.95 51.05 76.2 51.65 75.2 51.65 74.2 51.65 73.65 51.3 73.1 50.9 73.1 50.2 73.1 48.8 75.4 48.8
M 97.8 41.1
L 93.8 41.1 90.5 49.45 87.25 41.1 83.25 41.1
Q 88.15 53.45 88.45 54.7 88.45 54.75 88.45 54.8
L 88.45 54.9 86.75 59.05 90.2 60.5
Q 90.85 58.85 91.55 56.95
L 97.8 41.1 Z"/>
</g>
</defs>

<g transform="matrix( 1, 0, 0, 1, -12,-6) ">
<use xlink:href="#Layer0_0_FILL"/>
</g>
</svg>
