
<svg xmlns="http://www.w3.org/2000/svg" version="1.1" xmlns:xlink="http://www.w3.org/1999/xlink" preserveAspectRatio="none" x="0px" y="0px" width="40px" height="40px" viewBox="0 0 40 40">
<defs>
<g id="Layer0_0_MEMBER_0_FILL">
<path fill="#FFFFFF" stroke="none" d="
M -34.2 18.2
Q -35.10234375 17.3884765625 -36.75 17.4 -38.34765625 17.411328125 -39.35 18.3 -40.30078125 19.19609375 -40.65 19.9
L -45.65 28.85
Q -39.5 23.15 -32.85 31.65
L -32.85 28.45 -28.85 28.45 -28.85 31.65
Q -22.2 23.15 -16.25 28.4
L -21.1 19.85
Q -21.40390625 19.201171875 -22.45 18.3 -23.4888671875 17.396484375 -25.15 17.35 -26.761328125 17.303515625 -27.6 18.15 -28.4462890625 19.048828125 -28.7 19.75 -28.75 19.8 -28.85 20.2
L -28.85 22.75 -32.85 22.75 -32.85 20.2
Q -32.95 19.8 -33 19.75 -33.24921875 19.0537109375 -34.2 18.2 Z"/>
</g>

<path id="Layer0_0_1_STROKES" stroke="#FFFFFF" stroke-width="2" stroke-linejoin="miter" stroke-linecap="round" stroke-miterlimit="3" fill="none" d="
M 36.71437377929688 23.965312957763672
Q 36.71437377929688 26.721746063232423 34.761900329589835 28.616793823242183 34.37921194434166 29.011146801710133 33.95794067382812 29.334614944458004 33.532407340407374 29.643502345681192 33.06784248352051 29.880158996582033 31.747948896884918 30.56926727294922 30.110419464111327 30.56926727294922 28.472890031337737 30.56926727294922 27.124283599853513 29.880158996582033 26.194032290577884 29.409313204884533 25.401512908935544 28.616793823242183 23.506465148925777 26.721746063232423 23.506465148925777 23.965312957763672 23.506465148925777 23.391056060791016 23.62131652832031 22.874224853515628 23.90844497680664 20.806900024414062 25.401512908935544 19.25640640258789 27.353986358642576 17.361358642578125 30.110419464111327 17.361358642578125 30.512399291992185 17.361358642578125 30.914379119873043 17.41878433227539 32.61920428276062 17.593753230571746 33.95794067382812 18.567298126220702 34.37809034883976 18.87259642183781 34.761900329589835 19.25640640258789 36.71437377929688 21.20887985229492 36.71437377929688 23.965312957763672 Z
M 3.522325134277345 23.965312957763672
Q 3.522325134277345 26.721746063232423 5.474798583984374 28.616793823242183 5.8767784118652315 29.01877365112305 6.2787582397460895 29.363327789306645 6.6807380676269545 29.650456237792973 7.140143585205074 29.880158996582033 8.460934448242185 30.56926727294922 10.126279449462892 30.56926727294922 11.791624450683592 30.56926727294922 13.112415313720696 29.880158996582033 14.031226348876949 29.420753479003906 14.835186004638665 28.616793823242183 16.73023376464844 26.721746063232423 16.73023376464844 23.965312957763672 16.73023376464844 23.391056060791016 16.615382385253902 22.874224853515628 16.328253936767574 20.806900024414062 14.835186004638665 19.25640640258789 12.882712554931636 17.361358642578125 10.126279449462892 17.361358642578125 9.724299621582027 17.361358642578125 9.322319793701169 17.41878433227539 7.5995491027832 17.591061401367188 6.2787582397460895 18.567298126220702 5.8767784118652315 18.85442657470703 5.474798583984374 19.25640640258789 3.522325134277345 21.20887985229492 3.522325134277345 23.965312957763672 Z"/>
</defs>

<g transform="matrix( 1.1485137939453125, 0, 0, 1.1485137939453125, 55.55,-12.5) ">
<use xlink:href="#Layer0_0_1_STROKES" transform="matrix( 0.870697021484375, 0, 0, 0.870697021484375, -48.35,10.9) "/>
</g>

<g transform="matrix( 1.1485137939453125, 0, 0, 1.1485137939453125, 55.5,-12.65) ">
<use xlink:href="#Layer0_0_MEMBER_0_FILL"/>
</g>
</svg>
