
<svg xmlns="http://www.w3.org/2000/svg" version="1.1" xmlns:xlink="http://www.w3.org/1999/xlink" preserveAspectRatio="none" x="0px" y="0px" width="46px" height="46px" viewBox="0 0 46 46">
<defs>
<g id="Layer0_0_FILL">
<path fill="#987B4F" stroke="none" d="
M 34.9 11
L 19.8 11 20.95 12.45 34.9 29.85 34.9 11
M 26.2 35
L 25.1 33.65 11.15 16.2 11.15 35 26.2 35 Z"/>

<path fill="#B6915A" stroke="none" d="
M 39 35
L 37.9 33.6 25.1 33.65 26.2 35 39 35
M 7 11
L 8.15 12.45 20.95 12.45 19.8 11 7 11
M 5.8 37.95
L 5.8 40.3 8.15 40.3 8.15 37.95 5.8 37.95
M 40.2 5.85
L 37.85 5.85 37.85 8.2 40.2 8.2 40.2 5.85 Z"/>

<path fill="#BF9960" stroke="none" d="
M 8.15 12.45
L 11.15 16.2 25.1 33.65 37.9 33.6 34.9 29.85 20.95 12.45 8.15 12.45
M 43 43
L 43 35 39 35 26.2 35 11.15 35 3 35 3 43 43 43
M 5.8 40.3
L 5.8 37.95 8.15 37.95 8.15 40.3 5.8 40.3
M 43 11
L 43 3 3 3 3 11 7 11 19.8 11 34.9 11 43 11
M 37.85 5.85
L 40.2 5.85 40.2 8.2 37.85 8.2 37.85 5.85 Z"/>

<path fill="#AA8957" stroke="none" d="
M 7 11
L 3 11 3 35 11.15 35 11.15 16.2 8.15 12.45 7 11
M 43 35
L 43 11 34.9 11 34.9 29.85 37.9 33.6 39 35 43 35 Z"/>

<path fill="#FFFFFF" stroke="none" d="
M 89 43
L 89 3 49 3 49 43 89 43 Z"/>
</g>
</defs>

<g transform="matrix( 1, 0, 0, 1, 0,0) ">
<use xlink:href="#Layer0_0_FILL"/>
</g>
</svg>
