
<svg xmlns="http://www.w3.org/2000/svg" version="1.1" xmlns:xlink="http://www.w3.org/1999/xlink" preserveAspectRatio="none" x="0px" y="0px" width="46px" height="46px" viewBox="0 0 46 46">
<defs>
<g id="Layer0_0_FILL">
<path fill="#C65F4C" stroke="none" d="
M 22.85 26
L 22.85 45.2 41.9 26 22.85 26 Z"/>

<path fill="#E07254" stroke="none" d="
M 22.85 45.2
L 22.85 26 4 26.35 22.85 45.2
M 10.8 19.7
L 15.85 14.6 15.85 12.7 10.8 12.7 10.8 19.7
M 22.85 1
L 22.85 7.7 22.85 26 41.9 26 36.05 20.1 36.05 6.5 30.85 6.5 30.85 15.05 28.55 12.75 28.55 1 22.85 1 Z"/>

<path fill="#F07B5A" stroke="none" d="
M 15.85 14.6
L 10.8 19.7 4 26.35 22.85 26 22.85 7.7 15.85 14.6 Z"/>

<path fill="#FFFFFF" stroke="none" d="
M 87.85 26
L 81.95 20.1 81.95 6.5 76.8 6.5 76.8 15.05 74.55 12.75 74.55 1 68.85 1 68.85 7.7 61.8 14.6 61.8 12.7 56.8 12.7 56.8 19.7 50 26.35 68.85 45.2 87.85 26 Z"/>
</g>
</defs>

<g transform="matrix( 1, 0, 0, 1, 0,0) ">
<use xlink:href="#Layer0_0_FILL"/>
</g>
</svg>
