
<svg xmlns="http://www.w3.org/2000/svg" version="1.1" xmlns:xlink="http://www.w3.org/1999/xlink" preserveAspectRatio="none" x="0px" y="0px" width="46px" height="46px" viewBox="0 0 46 46">
<defs>
<g id="Layer0_0_FILL">
<path fill="#987B4F" stroke="none" d="
M 26.05 3
L 3 3 3 43 26.05 43 26.05 3 Z"/>

<path fill="#AA8957" stroke="none" d="
M 43 43
L 43 3 26.05 3 26.05 43 43 43 Z"/>

<path fill="#FFFFFF" stroke="none" d="
M 89 43
L 89 3 49 3 49 43 89 43 Z"/>
</g>

<g id="Layer0_1_FILL">
<path fill="#F3AE02" stroke="none" d="
M 37.7 38
Q 37.61015625 38.13203125 37.5 38.25
L 38.25 38.25 38.25 36.25
Q 38.2328125 37.128125 37.7 38
M 11.95 35.85
Q 11.5 35.1 11.5 34.15 11.5 33.7744140625 11.55 33.45 10.813671875 34 9.75 34 8.4947265625 34 7.75 33.3
L 7.75 38.25 15.65 38.25
Q 15.5 37.73828125 15.5 37.15
L 15.5 37.1
Q 15.043359375 37.25 14.5 37.25 12.7 37.25 11.95 35.85
M 18.05 7.75
Q 18.25 8.2705078125 18.25 8.95 18.25 9.85 17.7 10.75 16.85 12 15.25 12 13.45 12 12.7 10.6 12.25 9.85 12.25 8.9 12.25 8.2515625 12.35 7.75
L 7.75 7.75 7.75 12.65
Q 8.3658203125 11.1578125 10.5 11.3 13.0673828125 11.4283203125 13.4 13.45 14.0765625 13.20390625 15 13.25 18 13.45 18 16.2 18 17.1 17.45 18 16.6 19.25 15 19.25 13.2 19.25 12.45 17.85 12.1732421875 17.3888671875 12.05 16.85 11.4029296875 17.25 10.5 17.25 8.7 17.25 7.95 15.85 7.8353515625 15.658984375 7.75 15.45
L 7.75 28.45
Q 8.4822265625 27.9654296875 9.75 28.05 10.296875 28.07734375 10.75 28.2 10.5 27.599609375 10.5 26.9 10.5 26.6251953125 10.5 26.35 9.4775390625 26.084765625 8.95 25.1 8.5 24.35 8.5 23.4 8.5 20.35 11.5 20.55 14.5 20.7 14.5 23.45 14.5 23.810546875 14.4 24.15 16.5 24.6556640625 16.5 26.95 16.5 27.85 15.95 28.75 15.1 30 13.5 30 13.0201171875 30 12.6 29.9 12.75 30.3666015625 12.75 30.95 12.75 31.26640625 12.65 31.55 13.382421875 31.194140625 14.5 31.25 17.5 31.45 17.5 34.2 17.5 34.2515625 17.5 34.3 17.9482421875 34.2224609375 18.5 34.25 21.5 34.45 21.5 37.2 21.5 37.725 21.3 38.25
L 32.95 38.25
Q 32.8162109375 38.066796875 32.7 37.85 32.25 37.1 32.25 36.15 32.25 35.6490234375 32.3 35.2 32.169921875 35.25 32 35.25 30.2 35.25 29.45 33.85 29 33.1 29 32.15 29 29.1 32 29.3 35 29.45 35 32.2 35 32.7443359375 34.8 33.3 35.015234375 33.284375 35.25 33.3 38.203125 33.44765625 38.25 36.1
L 38.25 7.75 18.05 7.75
M 31 11.9
Q 31 8.85 34 9.05 37 9.2 37 11.95 37 12.85 36.45 13.75 35.6 15 34 15 32.2 15 31.45 13.6 31 12.85 31 11.9
M 24.75 11.15
Q 24.75 8.1 27.75 8.3 30.75 8.45 30.75 11.2 30.75 12.1 30.2 13 29.35 14.25 27.75 14.25 25.95 14.25 25.2 12.85 24.75 12.1 24.75 11.15
M 25 14.7
Q 25 15.6 24.45 16.5 23.6 17.75 22 17.75 20.2 17.75 19.45 16.35 19 15.6 19 14.65 19 11.6 22 11.75 25 11.95 25 14.7
M 28.7 20.35
Q 28.25 19.6 28.25 18.65 28.25 15.6 31.25 15.8 34.25 15.95 34.25 18.7 34.25 19.6 33.7 20.5 32.85 21.75 31.25 21.75 29.45 21.75 28.7 20.35
M 16 24.15
Q 16 21.1 19 21.3 22 21.45 22 24.2 22 25.1 21.45 26 20.6 27.25 19 27.25 17.2 27.25 16.45 25.85 16 25.1 16 24.15
M 36.5 25.2
Q 36.5 26.1 35.95 27 35.1 28.25 33.5 28.25 31.7 28.25 30.95 26.85 30.5 26.1 30.5 25.15 30.5 22.1 33.5 22.25 36.5 22.45 36.5 25.2
M 27.5 32.7
Q 27.5 33.6 26.95 34.5 26.1 35.75 24.5 35.75 22.7 35.75 21.95 34.35 21.5 33.6 21.5 32.65 21.5 29.6 24.5 29.75 27.5 29.95 27.5 32.7 Z"/>

<path fill="#FFBE1C" stroke="none" d="
M 35.25 33.3
Q 35.015234375 33.284375 34.8 33.3 35 32.7443359375 35 32.2 35 29.45 32 29.3 29 29.1 29 32.15 29 33.1 29.45 33.85 30.2 35.25 32 35.25 32.169921875 35.25 32.3 35.2 32.25 35.6490234375 32.25 36.15 32.25 37.1 32.7 37.85 32.8162109375 38.066796875 32.95 38.25 33.7287109375 39.25 35.25 39.25 36.6810546875 39.25 37.5 38.25 37.61015625 38.13203125 37.7 38 38.2328125 37.128125 38.25 36.25
L 38.25 36.1
Q 38.203125 33.44765625 35.25 33.3
M 14.4 24.15
Q 13.9970703125 24.0748046875 13.5 24.05 10.7703125 23.86796875 10.5 26.35 10.5 26.6251953125 10.5 26.9 10.5 27.599609375 10.75 28.2 10.296875 28.07734375 9.75 28.05 8.4822265625 27.9654296875 7.75 28.45 6.75 29.1390625 6.75 30.9 6.75 31.85 7.2 32.6 7.426953125 33.0236328125 7.75 33.3 8.4947265625 34 9.75 34 10.813671875 34 11.55 33.45 11.5 33.7744140625 11.5 34.15 11.5 35.1 11.95 35.85 12.7 37.25 14.5 37.25 15.043359375 37.25 15.5 37.1
L 15.5 37.15
Q 15.5 37.73828125 15.65 38.25 15.7919921875 38.5677734375 16.45 38.95 17.166015625 39.3751953125 18.3 39.5 19.4380859375 39.6330078125 20.3 39.1 21.159375 38.6123046875 21.3 38.25 21.5 37.725 21.5 37.2 21.5 34.45 18.5 34.25 17.9482421875 34.2224609375 17.5 34.3 17.5 34.2515625 17.5 34.2 17.5 31.45 14.5 31.25 13.382421875 31.194140625 12.65 31.55 12.75 31.26640625 12.75 30.95 12.75 30.3666015625 12.6 29.9 13.0201171875 30 13.5 30 15.1 30 15.95 28.75 16.5 27.85 16.5 26.95 16.5 24.6556640625 14.4 24.15
M 7.5 14.15
Q 7.5 14.8580078125 7.75 15.45 7.8353515625 15.658984375 7.95 15.85 8.7 17.25 10.5 17.25 11.4029296875 17.25 12.05 16.85 12.1732421875 17.3888671875 12.45 17.85 13.2 19.25 15 19.25 16.6 19.25 17.45 18 18 17.1 18 16.2 18 13.45 15 13.25 14.0765625 13.20390625 13.4 13.45 13.0673828125 11.4283203125 10.5 11.3 8.3658203125 11.1578125 7.75 12.65 7.5 13.2697265625 7.5 14.15
M 18.25 8.95
Q 18.25 8.2705078125 18.05 7.75 17.5087890625 6.162890625 15.25 6.05 12.887890625 5.892578125 12.35 7.75 12.25 8.2515625 12.25 8.9 12.25 9.85 12.7 10.6 13.45 12 15.25 12 16.85 12 17.7 10.75 18.25 9.85 18.25 8.95
M 35.95 27
Q 36.5 26.1 36.5 25.2 36.5 22.45 33.5 22.25 30.5 22.1 30.5 25.15 30.5 26.1 30.95 26.85 31.7 28.25 33.5 28.25 35.1 28.25 35.95 27
M 19 21.3
Q 16 21.1 16 24.15 16 25.1 16.45 25.85 17.2 27.25 19 27.25 20.6 27.25 21.45 26 22 25.1 22 24.2 22 21.45 19 21.3
M 28.25 18.65
Q 28.25 19.6 28.7 20.35 29.45 21.75 31.25 21.75 32.85 21.75 33.7 20.5 34.25 19.6 34.25 18.7 34.25 15.95 31.25 15.8 28.25 15.6 28.25 18.65
M 24.45 16.5
Q 25 15.6 25 14.7 25 11.95 22 11.75 19 11.6 19 14.65 19 15.6 19.45 16.35 20.2 17.75 22 17.75 23.6 17.75 24.45 16.5
M 34 9.05
Q 31 8.85 31 11.9 31 12.85 31.45 13.6 32.2 15 34 15 35.6 15 36.45 13.75 37 12.85 37 11.95 37 9.2 34 9.05 Z"/>

<path fill="#FFDB35" stroke="none" d="
M 13.5 24.05
Q 13.9970703125 24.0748046875 14.4 24.15 14.5 23.810546875 14.5 23.45 14.5 20.7 11.5 20.55 8.5 20.35 8.5 23.4 8.5 24.35 8.95 25.1 9.4775390625 26.084765625 10.5 26.35 10.7703125 23.86796875 13.5 24.05
M 26.95 34.5
Q 27.5 33.6 27.5 32.7 27.5 29.95 24.5 29.75 21.5 29.6 21.5 32.65 21.5 33.6 21.95 34.35 22.7 35.75 24.5 35.75 26.1 35.75 26.95 34.5
M 27.75 8.3
Q 24.75 8.1 24.75 11.15 24.75 12.1 25.2 12.85 25.95 14.25 27.75 14.25 29.35 14.25 30.2 13 30.75 12.1 30.75 11.2 30.75 8.45 27.75 8.3 Z"/>
</g>

<g id="Layer0_2_MEMBER_0_FILL">
<path fill="#FFDB35" stroke="none" d="
M 31.4 29.5
Q 31.1 29.7 30.7 30.2 29.8 31.25 29.25 32.9 29.2 33.2 29.1 33.5 28.5 35.65 28.85 37.25 28.85 37.75 29.05 38.1
L 29.05 38.2
Q 29.35 38.9 29.8 39.1 29.9 39.15 30.05 39.2 31 39.45 32.15 38.1 33 37.05 33.45 35.55 33.6 35.15 33.7 34.8 34.25 32.75 34 31.05 33.95 30.65 33.75 30.3 33.55 29.55 33.05 29.25 32.9 29.15 32.7 29.1 32.55 29.1 32.45 29.1 31.9 29.1 31.4 29.5 Z"/>

<path fill="#FFBE1C" stroke="none" d="
M 30.75 28.65
Q 30.6 28.6 30.4 28.5 30.3 28.5 30.1 28.5 29.35 28.5 28.45 29.55 27.35 30.85 26.8 32.9 26.55 33.8 26.5 34.55 26.35 35.65 26.55 36.65 26.75 38.1 27.5 38.5 27.65 38.55 27.8 38.55 27.8 38.6 27.95 38.6
L 29.8 39.1
Q 29.35 38.9 29.05 38.2
L 29.05 38.1
Q 28.85 37.75 28.85 37.25 28.5 35.65 29.1 33.5 29.2 33.2 29.25 32.9 29.8 31.25 30.7 30.2 31.1 29.7 31.4 29.5 31.9 29.1 32.45 29.1
L 30.75 28.65 Z"/>
</g>

<g id="Layer0_2_MEMBER_1_FILL">
<path fill="#FFBE1C" stroke="none" d="
M 32.45 17.1
Q 32.35 16.5 32.45 16.15 32.55 15.45 32.95 15.1
L 31.4 16
Q 31.25 16.05 31.05 16.15 30.95 16.2 30.8 16.35 30.25 16.9 30.4 18.25 30.5 19.95 31.6 21.8 32.05 22.55 32.55 23.15 33.25 24.05 34.05 24.6 35.25 25.5 36.05 25.25 36.2 25.15 36.3 25.15 36.35 25.1 36.45 25
L 38.1 24.05
Q 37.65 24.25 36.95 23.9
L 36.85 23.85
Q 36.5 23.75 36.1 23.4 34.75 22.5 33.65 20.6 33.5 20.3 33.3 20.05 32.55 18.5 32.45 17.1 Z"/>

<path fill="#FFDB35" stroke="none" d="
M 33.1 14.9
Q 33 15.05 32.95 15.1 32.55 15.45 32.45 16.15 32.35 16.5 32.45 17.1 32.55 18.5 33.3 20.05 33.5 20.3 33.65 20.6 34.75 22.5 36.1 23.4 36.5 23.75 36.85 23.85
L 36.95 23.9
Q 37.65 24.25 38.1 24.05 38.2 24.05 38.35 23.9 39.2 23.45 39 21.7 38.9 20.35 38.15 18.95 38 18.6 37.8 18.2 36.7 16.4 35.35 15.4 35.05 15.15 34.65 15.05 34 14.65 33.45 14.8 33.25 14.85 33.1 14.9 Z"/>
</g>

<g id="Layer0_2_MEMBER_2_FILL">
<path fill="#FFDB35" stroke="none" d="
M 16.15 30.75
Q 15.9 30.6 15.65 30.45 13.7 29.4 12.1 29.25 11.65 29.15 11.25 29.25
L 11.15 29.25
Q 10.4 29.35 10.1 29.7 10 29.8 9.95 29.9 9.45 30.8 10.45 32.15 11.2 33.3 12.6 34.15 12.85 34.35 13.25 34.6 15.1 35.7 16.75 35.85 17.15 35.9 17.55 35.8 18.35 35.8 18.7 35.35 18.85 35.2 18.95 35.1 19 34.95 19.05 34.85 19.15 34.35 18.9 33.75 18.8 33.4 18.45 32.9 17.6 31.7 16.15 30.75 Z"/>

<path fill="#FFBE1C" stroke="none" d="
M 15.65 30.45
Q 15.9 30.6 16.15 30.75 17.6 31.7 18.45 32.9 18.8 33.4 18.9 33.75 19.15 34.35 19.05 34.85
L 19.9 33.3
Q 20.05 33.2 20.15 33.05 20.2 32.9 20.25 32.75 20.4 32 19.65 30.85 18.7 29.45 16.8 28.4 16.05 27.95 15.3 27.7 14.25 27.25 13.25 27.2 11.8 27.05 11.25 27.65 11.15 27.8 11.1 27.85 11.05 27.95 11.05 28.05
L 10.1 29.7
Q 10.4 29.35 11.15 29.25
L 11.25 29.25
Q 11.65 29.15 12.1 29.25 13.7 29.4 15.65 30.45 Z"/>
</g>

<g id="Layer0_2_MEMBER_3_FILL">
<path fill="#FFDB35" stroke="none" d="
M 16.9 6.9
Q 15.6 7.4 14.4 8.5 14.15 8.7 13.85 9 12.3 10.5 11.7 12.1 11.55 12.45 11.55 12.85 11.35 13.65 11.7 14.1 11.75 14.25 11.85 14.4 11.95 14.5 12.1 14.55 12.55 14.8 13.2 14.7 13.6 14.7 14.1 14.5 15.45 14 16.8 12.85 17 12.65 17.2 12.4 18.75 10.85 19.25 9.3 19.5 8.9 19.5 8.5
L 19.6 8.35
Q 19.65 7.6 19.4 7.2 19.35 7.1 19.2 7 18.5 6.35 16.9 6.9 Z"/>

<path fill="#FFBE1C" stroke="none" d="
M 20.9 8.65
Q 20.85 8.65 20.75 8.55
L 19.4 7.2
Q 19.65 7.6 19.6 8.35
L 19.5 8.5
Q 19.5 8.9 19.25 9.3 18.75 10.85 17.2 12.4 17 12.65 16.8 12.85 15.45 14 14.1 14.5 13.6 14.7 13.2 14.7 12.55 14.8 12.1 14.55
L 13.35 15.8
Q 13.4 15.95 13.55 16.05 13.65 16.15 13.8 16.3 14.5 16.6 15.8 16.15 17.4 15.55 18.85 14.1 19.55 13.45 19.95 12.8 20.65 11.9 20.95 10.95 21.55 9.6 21.1 8.9 20.95 8.75 20.9 8.65 Z"/>
</g>

<g id="Layer0_2_MEMBER_4_FILL">
<path fill="#FFBE1C" stroke="none" d="
M 20.8 17.65
Q 20.9 16.95 21.3 16.65
L 19.75 17.5
Q 19.6 17.55 19.45 17.6 19.3 17.65 19.2 17.85 18.6 18.45 18.75 19.8 18.9 21.45 19.95 23.3 20.35 24.05 20.85 24.65 21.6 25.6 22.4 26.15 23.6 27 24.4 26.75 24.55 26.7 24.65 26.65 24.7 26.6 24.85 26.5
L 26.45 25.55
Q 26 25.7 25.3 25.45
L 25.2 25.35
Q 24.85 25.2 24.45 24.95 23.15 24 22.05 22.1 21.9 21.8 21.7 21.55 20.95 20 20.8 18.6 20.75 18 20.8 17.65 Z"/>

<path fill="#FFDB35" stroke="none" d="
M 23.75 16.95
Q 23.4 16.65 23.05 16.5 22.3 16.15 21.8 16.3 21.6 16.35 21.5 16.4 21.35 16.5 21.3 16.65 20.9 16.95 20.8 17.65 20.75 18 20.8 18.6 20.95 20 21.7 21.55 21.9 21.8 22.05 22.1 23.15 24 24.45 24.95 24.85 25.2 25.2 25.35
L 25.3 25.45
Q 26 25.7 26.45 25.55 26.55 25.55 26.7 25.45 27.55 24.95 27.4 23.25 27.25 21.9 26.5 20.4 26.35 20.1 26.15 19.7 25.1 17.9 23.75 16.95 Z"/>
</g>

<g id="Layer0_3_FILL">
<path fill="#BF9960" stroke="none" d="
M 21 43
L 21 3 14.6 3 14.6 43 21 43 Z"/>

<path fill="#B6915A" stroke="none" d="
M 14.6 3
L 8.5 3 8.5 43 14.6 43 14.6 3 Z"/>

<path fill="#AA8957" stroke="none" d="
M 8.5 3
L 3 3 3 43 8.5 43 8.5 3 Z"/>
</g>

<path id="Layer0_4_1_STROKES" stroke="#C2B199" stroke-width="2" stroke-linejoin="miter" stroke-linecap="butt" stroke-miterlimit="3" fill="none" d="
M 10.95 17.25
L 6.65 17.25 6.65 28.8 10.95 28.8"/>
</defs>

<g transform="matrix( 1, 0, 0, 1, 0,0) ">
<use xlink:href="#Layer0_0_FILL"/>
</g>

<g transform="matrix( 1, 0, 0, 1, 0,0) ">
<use xlink:href="#Layer0_1_FILL"/>
</g>

<g transform="matrix( 1, 0, 0, 1, 0,0) ">
<use xlink:href="#Layer0_2_MEMBER_0_FILL"/>
</g>

<g transform="matrix( 1, 0, 0, 1, 0,0) ">
<use xlink:href="#Layer0_2_MEMBER_1_FILL"/>
</g>

<g transform="matrix( 1, 0, 0, 1, 0,0) ">
<use xlink:href="#Layer0_2_MEMBER_2_FILL"/>
</g>

<g transform="matrix( 1, 0, 0, 1, 0,0) ">
<use xlink:href="#Layer0_2_MEMBER_3_FILL"/>
</g>

<g transform="matrix( 1, 0, 0, 1, 0,0) ">
<use xlink:href="#Layer0_2_MEMBER_4_FILL"/>
</g>

<g transform="matrix( 1, 0, 0, 1, 0,0) ">
<use xlink:href="#Layer0_3_FILL"/>
</g>

<g transform="matrix( 1, 0, 0, 1, 0,0) ">
<use xlink:href="#Layer0_4_1_STROKES"/>
</g>
</svg>
