
<svg xmlns="http://www.w3.org/2000/svg" version="1.1" xmlns:xlink="http://www.w3.org/1999/xlink" preserveAspectRatio="none" x="0px" y="0px" width="40px" height="40px" viewBox="0 0 40 40">
<defs>
<g id="Layer0_0_FILL">
<path fill="#B88943" stroke="none" d="
M 34.15 21.95
L 22.5 21.95 22.5 25.4 17.15 25.4 17.15 21.95 5.7 21.95 5.7 31.05 4.65 31.05 4.65 34.9 35.15 34.9 35.15 29.9 34.15 29.9 34.15 21.95
M 22.5 15.25
L 22.5 19.55 35.15 19.55 35.15 8.35 4.65 8.35 4.65 19.55 17.15 19.55 17.15 15.25 22.5 15.25 Z"/>

<path fill="#9A773E" stroke="none" d="
M 22.5 19.55
L 22.5 20.7 17.15 20.7 17.15 19.55 4.65 19.55 4.65 20.75 1.9 20.75 1.9 28.95 4.65 28.95 4.65 31.05 5.7 31.05 5.7 21.95 17.15 21.95 17.15 25.4 22.5 25.4 22.5 21.95 34.15 21.95 34.15 29.9 35.15 29.9 35.15 28.95 38.1 28.95 38.1 20.75 35.15 20.75 35.15 19.55 22.5 19.55 Z"/>

<path fill="#D29F54" stroke="none" d="
M 22.5 20.7
L 22.5 19.55 22.5 15.25 17.15 15.25 17.15 19.55 17.15 20.7 22.5 20.7
M 35.15 8.35
L 35.15 1.3 4.65 1.3 4.65 8.35 35.15 8.35 Z"/>
</g>

<path id="Layer0_0_1_STROKES" stroke="#9A773E" stroke-width="2" stroke-linejoin="miter" stroke-linecap="square" stroke-miterlimit="3" fill="none" d="
M 4.65 8.35
L 4.65 1.3 35.15 1.3 35.15 8.35 35.15 19.55 35.15 20.75 38.1 20.75 38.1 28.95 35.15 28.95 35.15 29.9 35.15 34.9 4.65 34.9 4.65 31.05 4.65 28.95 1.9 28.95 1.9 20.75 4.65 20.75 4.65 19.55 4.65 8.35 Z"/>
</defs>

<g transform="matrix( 1, 0, 0, 1, 0,0) ">
<use xlink:href="#Layer0_0_FILL"/>

<use xlink:href="#Layer0_0_1_STROKES"/>
</g>
</svg>
