
<svg xmlns="http://www.w3.org/2000/svg" version="1.1" xmlns:xlink="http://www.w3.org/1999/xlink" preserveAspectRatio="none" x="0px" y="0px" width="80px" height="80px" viewBox="0 0 80 80">
<defs>
<g id="Layer0_0_FILL">
<path fill="#6C7AA6" stroke="none" d="
M 34 21
L 21 21 21 60 34 60 34 54.9 38 50.8 34 46.65 34 35.4 38 31.3 34 27.15 34 21
M 23.1 35.4
L 23.1 27.15 23.95 27.15 24.05 27.15 24.05 35.4 23.95 35.4 23.1 35.4
M 23.1 46.65
L 23.95 46.65 24.05 46.65 24.05 54.9 23.95 54.9 23.1 54.9 23.1 46.65 Z"/>

<path fill="#FFFFFF" stroke="none" d="
M 23.95 46.65
L 23.1 46.65 23.1 54.9 23.95 54.9 23.95 46.65
M 23.1 27.15
L 23.1 35.4 23.95 35.4 23.95 27.15 23.1 27.15 Z"/>
</g>

<g id="Layer0_1_FILL">
<path fill="#FFFFFF" stroke="none" d="
M 114 21
L 101 21 101 60 114 60 114 54.9 118 50.8 114 46.65 114 35.4 118 31.3 114 27.15 114 21 Z"/>
</g>
</defs>

<g transform="matrix( 1, 0, 0, 1, 0,0) ">
<use xlink:href="#Layer0_0_FILL"/>
</g>

<g transform="matrix( 1, 0, 0, 1, 0,0) ">
<use xlink:href="#Layer0_1_FILL"/>
</g>
</svg>
