
<svg xmlns="http://www.w3.org/2000/svg" version="1.1" xmlns:xlink="http://www.w3.org/1999/xlink" preserveAspectRatio="none" x="0px" y="0px" width="80px" height="80px" viewBox="0 0 80 80">
<defs>
<g id="Layer0_0_FILL">
<path fill="#DB8E7F" stroke="none" d="
M 36.45 50.6
L 35.25 52.5 50.55 63.25 53.2 59.25 36.45 50.6
M 53.2 21.45
L 50.55 17.45 35.25 28.2 36.45 30.1 53.2 21.45 Z"/>

<path fill="#CDD8DE" stroke="none" d="
M 35.25 52.5
L 33.7 54.9 54.65 70.15 61.6 59.45 38.15 47.95 36.45 50.6 53.2 59.25 50.55 63.25 35.25 52.5
M 61.6 21.25
L 54.65 10.5 33.7 25.8 35.25 28.2 50.55 17.45 53.2 21.45 36.45 30.1 38.15 32.75 61.6 21.25 Z"/>
</g>

<g id="Layer0_1_FILL">
<path fill="#FFFFFF" stroke="none" d="
M 134.65 70.15
L 141.6 59.45 118.15 47.95 113.7 54.9 134.65 70.15
M 141.6 21.25
L 134.65 10.5 113.7 25.8 118.15 32.75 141.6 21.25 Z"/>
</g>
</defs>

<g transform="matrix( 1, 0, 0, 1, 0,0) ">
<use xlink:href="#Layer0_0_FILL"/>
</g>

<g transform="matrix( 1, 0, 0, 1, 0,0) ">
<use xlink:href="#Layer0_1_FILL"/>
</g>
</svg>
