
<svg xmlns="http://www.w3.org/2000/svg" version="1.1" xmlns:xlink="http://www.w3.org/1999/xlink" preserveAspectRatio="none" x="0px" y="0px" width="80px" height="80px" viewBox="0 0 80 80">
<defs>
<g id="Layer0_0_FILL">
<path fill="#689F3A" stroke="none" d="
M 36 21
L 21 21 18 40.45 21 60 36 60 36 21
M 24.1 28.05
L 24.1 33.5 23.15 33.5 23.15 28.05 24.1 28.05
M 23.15 47.35
L 24.1 47.35 24.1 52.95 23.15 52.95 23.15 47.35 Z"/>

<path fill="#FFFFFF" stroke="none" d="
M 24.1 47.35
L 23.15 47.35 23.15 52.95 24.1 52.95 24.1 47.35
M 24.1 33.5
L 24.1 28.05 23.15 28.05 23.15 33.5 24.1 33.5 Z"/>
</g>

<g id="Layer0_1_FILL">
<path fill="#FFFFFF" stroke="none" d="
M 116 21
L 101 21 98 40.45 101 60 116 60 116 21 Z"/>
</g>

<path id="Layer0_0_MEMBER_0_1_STROKES" stroke="#4D7928" stroke-width="1" stroke-linejoin="miter" stroke-linecap="butt" stroke-miterlimit="3" fill="none" d="
M 19.55 42.15
L 19.9 44.35
M 19.6 38.7
L 19.9 36.55"/>
</defs>

<g transform="matrix( 1, 0, 0, 1, 0,0) ">
<use xlink:href="#Layer0_0_FILL"/>
</g>

<g transform="matrix( 1, 0, 0, 1, 0,0) ">
<use xlink:href="#Layer0_0_MEMBER_0_1_STROKES"/>
</g>

<g transform="matrix( 1, 0, 0, 1, 0,0) ">
<use xlink:href="#Layer0_1_FILL"/>
</g>
</svg>
