
<svg xmlns="http://www.w3.org/2000/svg" version="1.1" xmlns:xlink="http://www.w3.org/1999/xlink" preserveAspectRatio="none" x="0px" y="0px" width="80px" height="80px" viewBox="0 0 80 80">
<defs>
<linearGradient id="Gradient_1" gradientUnits="userSpaceOnUse" x1="36.225" y1="40.1" x2="70.17500000000001" y2="40.1" spreadMethod="pad">
<stop  offset="0%" stop-color="#70757E"/>

<stop  offset="100%" stop-color="#82899A"/>
</linearGradient>

<g id="Layer0_0_FILL">
<path fill="#FFFFFF" stroke="none" d="
M 150.2 40.3
L 136.2 17.95 116.25 17.95 116.25 18 94 40.05 116.25 62.25 116.25 62.3 136.1 62.3 150.2 40.3 Z"/>
</g>

<g id="Layer0_1_FILL">
<path fill="url(#Gradient_1)" stroke="none" d="
M 70.2 40.3
L 56.2 17.95 36.25 17.95 36.25 62.3 56.1 62.3 70.2 40.3 Z"/>
</g>

<g id="Layer0_1_MEMBER_0_FILL">
<path fill="#AFA492" stroke="none" d="
M 20 40.05
L 17 43.05 21.5 47.55 28.75 40.05 21.45 32.75 17.05 37.1 20 40.05 Z"/>

<path fill="#7B766D" stroke="none" d="
M 17 43.05
L 20 40.05 17.05 37.1 14 40.05 17 43.05 Z"/>

<path fill="#898E9A" stroke="none" d="
M 57.15 25.65
L 44 25.65 36.3 17.95 21.45 32.75 28.75 40.05 21.5 47.55 36.3 62.3 44 54.55 57.15 54.55 50.55 48 58.45 40.05 50.55 32.2 57.15 25.65
M 30.75 30.2
L 26.75 34.1 30.75 30.2
M 26.75 45.95
L 30.75 49.7 26.75 45.95 Z"/>
</g>

<path id="Layer0_1_MEMBER_0_1_STROKES" stroke="#514C46" stroke-width="1" stroke-linejoin="miter" stroke-linecap="butt" stroke-miterlimit="3" fill="none" d="
M 30.75 30.2
L 26.75 34.1
M 26.75 45.95
L 30.75 49.7"/>
</defs>

<g transform="matrix( 1, 0, 0, 1, 0,0) ">
<use xlink:href="#Layer0_0_FILL"/>
</g>

<g transform="matrix( 1, 0, 0, 1, 0,0) ">
<use xlink:href="#Layer0_1_FILL"/>
</g>

<g transform="matrix( 1, 0, 0, 1, 0,0) ">
<use xlink:href="#Layer0_1_MEMBER_0_FILL"/>

<use xlink:href="#Layer0_1_MEMBER_0_1_STROKES"/>
</g>
</svg>
