
<svg xmlns="http://www.w3.org/2000/svg" version="1.1" xmlns:xlink="http://www.w3.org/1999/xlink" preserveAspectRatio="none" x="0px" y="0px" width="46px" height="46px" viewBox="0 0 46 46">
<defs>
<g id="Layer0_0_FILL">
<path fill="#B6872D" stroke="none" d="
M 4 41.9
L 8 41.9 8 5 4 5 4 41.9 Z"/>

<path fill="#5C6370" stroke="none" d="
M 41 41.9
L 41 5 8 5 8 41.9 41 41.9 Z"/>

<path fill="#FFFFFF" stroke="none" d="
M 87 41.9
L 87 5 50 5 50 41.9 87 41.9 Z"/>
</g>

<g id="Layer0_1_FILL">
<path fill="#DBA234" stroke="none" d="
M 10.75 17.25
L 4.75 23.25 10.75 29.25 16.75 23.25 10.75 17.25
M 34.75 17.25
L 28.75 23.25 34.75 29.25 40.75 23.25 34.75 17.25
M 28.75 23.25
L 22.75 17.25 16.75 23.25 22.75 29.25 28.75 23.25 Z"/>
</g>
</defs>

<g transform="matrix( 1, 0, 0, 1, 0,0) ">
<use xlink:href="#Layer0_0_FILL"/>
</g>

<g transform="matrix( 1, 0, 0, 1, 0,0) ">
<use xlink:href="#Layer0_1_FILL"/>
</g>
</svg>
