
<svg xmlns="http://www.w3.org/2000/svg" version="1.1" xmlns:xlink="http://www.w3.org/1999/xlink" preserveAspectRatio="none" x="0px" y="0px" width="960px" height="160px" viewBox="0 0 960 160">
<defs>
<g id="Layer2_0_FILL">
<path fill="#6D9F44" stroke="none" d="
M 50 92
L 50 93.6 51.65 93.6 51.65 94.6 50 94.6 50 96.45 51.65 96.45 51.65 97.45 50 97.45 50 99 78 99 78 92 50 92
M 78 68
L 78 61 50 61 50 62.6 51.65 62.6 51.65 63.6 50 63.6 50 65.45 51.65 65.45 51.65 66.45 50 66.45 50 68 78 68 Z"/>
</g>

<g id="Layer2_1_FILL">
<path fill="#6D9F44" stroke="none" d="
M 51.65 97.45
L 50 97.45 50 99 78 99 78 92 50 92 50 93.6 51.65 93.6 51.65 94.6 50 94.6 50 96.45 51.65 96.45 51.65 97.45
M 78 68
L 78 61 50 61 50 62.6 51.65 62.6 51.65 63.6 50 63.6 50 65.45 51.65 65.45 51.65 66.45 50 66.45 50 68 78 68 Z"/>
</g>

<g id="Layer2_2_FILL">
<path fill="#6D9F44" stroke="none" d="
M 51.65 97.45
L 50 97.45 50 99 78 99 78 92 50 92 50 93.6 51.65 93.6 51.65 94.6 50 94.6 50 96.45 51.65 96.45 51.65 97.45
M 78 68
L 78 61 50 61 50 62.6 51.65 62.6 51.65 63.6 50 63.6 50 65.45 51.65 65.45 51.65 66.45 50 66.45 50 68 78 68 Z"/>
</g>

<g id="Layer2_3_FILL">
<path fill="#6D9F44" stroke="none" d="
M 51.65 97.45
L 50 97.45 50 99 78 99 78 92 50 92 50 93.6 51.65 93.6 51.65 94.6 50 94.6 50 96.45 51.65 96.45 51.65 97.45
M 78 68
L 78 61 50 61 50 62.6 51.65 62.6 51.65 63.6 50 63.6 50 65.45 51.65 65.45 51.65 66.45 50 66.45 50 68 78 68 Z"/>
</g>

<g id="Layer2_4_FILL">
<path fill="#6D9F44" stroke="none" d="
M 51.65 97.45
L 50 97.45 50 99 78 99 78 92 50 92 50 93.6 51.65 93.6 51.65 94.6 50 94.6 50 96.45 51.65 96.45 51.65 97.45
M 78 68
L 78 61 50 61 50 62.6 51.65 62.6 51.65 63.6 50 63.6 50 65.45 51.65 65.45 51.65 66.45 50 66.45 50 68 78 68 Z"/>
</g>

<g id="Layer2_5_FILL">
<path fill="#6D9F44" stroke="none" d="
M 51.65 97.45
L 50 97.45 50 99 78 99 78 92 50 92 50 93.6 51.65 93.6 51.65 94.6 50 94.6 50 96.45 51.65 96.45 51.65 97.45
M 78 68
L 78 61 50 61 50 62.6 51.65 62.6 51.65 63.6 50 63.6 50 65.45 51.65 65.45 51.65 66.45 50 66.45 50 68 78 68 Z"/>
</g>

<path id="Layer2_6_1_STROKES" stroke="#FFFFFF" stroke-width="1" stroke-linejoin="miter" stroke-linecap="square" stroke-miterlimit="3" fill="none" d="
M 949 80
L 960 80
M 929.175 30.825
L 936.575 23.425
M 880 9.95
L 880 0
M 823.4 23.4
L 830.325 30.325
M 823.425 136.575
L 830.875 129.125
M 880 148.95
L 880 160
M 928.625 128.625
L 936.55 136.55
M 762.15 37.85
L 767.775 32.225
M 788 80
L 779.1 80
M 720 19.9
L 720 12.9
M 672.7 32.7
L 677.4 37.4
M 660 80
L 653 80
M 720 139
L 720 147.9
M 672.325 127.675
L 677.95 122.05
M 761.6 121.6
L 768.15 128.15
M 810 80
L 800.3 80
M 594.325 45.675
L 600.475 39.525
M 617 80
L 608 80
M 560 30.95
L 560 22.55
M 519.325 39.325
L 525.175 45.175
M 511 80
L 502.6 80
M 560 127.95
L 560 136.95
M 519.575 120.425
L 525.725 114.275
M 593.775 113.775
L 600.225 120.225
M 428.675 51.325
L 433.6 46.4
M 448 80
L 441 80
M 400 39.95
L 400 33
M 360 80
L 353 80
M 366.9 46.9
L 371.825 51.825
M 400 120.95
L 400 128
M 366.4 113.6
L 371.375 108.625
M 429.125 109.125
L 434.1 114.1
M 257.675 62.325
L 263.5 56.5
M 273.5 80
L 265 80
M 216.75 56.75
L 222.3 62.3
M 215 80
L 207 80
M 240 55
L 240 47
M 240 105
L 240 113.5
M 257.65 97.65
L 263.75 103.75
M 216.5 103.5
L 222.325 97.675"/>
</defs>

<g transform="matrix( 1, 0, 0, 1, 0,0) ">
<use xlink:href="#Layer2_0_FILL"/>
</g>

<g transform="matrix( 1, 0, 0, 1, 160,0) ">
<use xlink:href="#Layer2_1_FILL"/>
</g>

<g transform="matrix( 1, 0, 0, 1, 320,0) ">
<use xlink:href="#Layer2_2_FILL"/>
</g>

<g transform="matrix( 1, 0, 0, 1, 480,0) ">
<use xlink:href="#Layer2_3_FILL"/>
</g>

<g transform="matrix( 1, 0, 0, 1, 640,0) ">
<use xlink:href="#Layer2_4_FILL"/>
</g>

<g transform="matrix( 1, 0, 0, 1, 800,0) ">
<use xlink:href="#Layer2_5_FILL"/>
</g>

<g transform="matrix( 1, 0, 0, 1, 0,0) ">
<use xlink:href="#Layer2_6_1_STROKES"/>
</g>
</svg>
