
<svg xmlns="http://www.w3.org/2000/svg" version="1.1" xmlns:xlink="http://www.w3.org/1999/xlink" preserveAspectRatio="none" x="0px" y="0px" width="960px" height="160px" viewBox="0 0 960 160">
<defs>
<g id="root_0_Layer0_0_FILL">
<path fill="#877B61" stroke="none" d="
M 9.2 42.15
L 19.9 30.45 20.4 17.95 15.05 17.95 0 32.95 9.2 42.15
M 45.1 2.75
L 42.35 0 29.3 10.5 31.2 5.95 26.95 3.85 24.15 8.8 24.15 16.05 38.55 10 45.1 2.75 Z"/>

<path fill="#776553" stroke="none" d="
M 38.55 10
L 24.15 16.05 24.15 8.8 15.05 17.95 20.4 17.95 19.9 30.45 38.55 10 Z"/>
</g>

<g id="Layer2_0_MEMBER_1_FILL">
<path fill="#5A8A95" stroke="none" d="
M 853.15 116.6
L 857.4 112.35 849.05 104 844.8 108.25 853.15 116.6 Z"/>

<path fill="#99B3BF" stroke="none" d="
M 857.4 112.35
L 869 100.75 860.65 92.4 849.05 104 857.4 112.35 Z"/>
</g>

<g id="Layer2_1_MEMBER_1_FILL">
<path fill="#5A8A95" stroke="none" d="
M 57 54.95
L 57 66.8 63 66.8 63 54.95 57 54.95 Z"/>

<path fill="#99B3BF" stroke="none" d="
M 79.4 66.8
L 79.4 54.95 63 54.95 63 66.8 79.4 66.8 Z"/>
</g>

<g id="Layer2_2_MEMBER_1_FILL">
<path fill="#99B3BF" stroke="none" d="
M 251.05 57.95
L 251.05 41.55 239.25 41.55 239.25 57.95 251.05 57.95 Z"/>

<path fill="#5A8A95" stroke="none" d="
M 251.05 41.55
L 251.05 35.55 239.25 35.55 239.25 41.55 251.05 41.55 Z"/>
</g>

<g id="Layer2_3_MEMBER_1_FILL">
<path fill="#5A8A95" stroke="none" d="
M 529.95 111.45
L 534.2 107.2 525.85 98.85 521.6 103.1 529.95 111.45 Z"/>

<path fill="#99B3BF" stroke="none" d="
M 545.8 95.6
L 537.45 87.25 525.85 98.85 534.2 107.2 545.8 95.6 Z"/>
</g>

<g id="Layer2_4_MEMBER_1_FILL">
<path fill="#5A8A95" stroke="none" d="
M 369.45 111.45
L 373.7 107.2 365.35 98.85 361.1 103.1 369.45 111.45 Z"/>

<path fill="#99B3BF" stroke="none" d="
M 376.95 87.25
L 365.35 98.85 373.7 107.2 385.3 95.6 376.95 87.25 Z"/>
</g>

<g id="Layer2_5_FILL">
<path fill="#99B3BF" stroke="none" d="
M 79.4 54
L 79.4 92.15 63 92.15 63 104 106 104 106 54 79.4 54
M 239.4 54
L 239.4 92.15 223 92.15 223 104 266 104 266 54 239.4 54
M 399.4 54
L 399.4 92.15 383 92.15 383 104 426 104 426 54 399.4 54
M 559.4 54
L 559.4 92.15 543 92.15 543 104 586 104 586 54 559.4 54
M 719.4 54
L 719.4 92.15 703 92.15 703 104 746 104 746 54 719.4 54
M 879.4 54
L 879.4 92.15 863 92.15 863 104 906 104 906 54 879.4 54 Z"/>

<path fill="#5A8A95" stroke="none" d="
M 63 92.15
L 57 92.15 57 104 63 104 63 92.15
M 223 92.15
L 217 92.15 217 104 223 104 223 92.15
M 383 92.15
L 377 92.15 377 104 383 104 383 92.15
M 543 92.15
L 537 92.15 537 104 543 104 543 92.15
M 703 92.15
L 697 92.15 697 104 703 104 703 92.15
M 863 92.15
L 857 92.15 857 104 863 104 863 92.15 Z"/>
</g>

<g id="Layer2_6_MEMBER_1_FILL">
<path fill="#5A8A95" stroke="none" d="
M 532.85 107.85
L 528.6 112.1 536.95 120.45 541.2 116.2 532.85 107.85 Z"/>

<path fill="#99B3BF" stroke="none" d="
M 541.2 116.2
L 552.8 104.6 544.45 96.25 532.85 107.85 541.2 116.2 Z"/>
</g>

<g id="Layer1_0_FILL">
<path fill="#FFFFFF" fill-opacity="0.6" stroke="none" d="
M 439.35 26.95
L 439.35 24.25
Q 442.75 24.15 447 23.95 444.35 21.35 444.35 17.5 445.7 17.75 452.55 19.65 430.35 0 400 0 399.1 0 398.2 0.05 366.15 0.65 343.4 23.4 320 46.85 320 80 320 113.2 343.4 136.6 349.098828125 142.298828125 354.5 145.8 355.46484375 146.43984375 356.4 147 368.958984375 155.2375 371.35 151.05
L 389.8 92.2
Q 364.75 48.95 432.3 27.3 436.05 27.05 438.4 26.95 438.85 26.95 439.35 26.95 Z"/>
</g>

<g id="Layer1_1_FILL">
<path fill="#FFFFFF" fill-opacity="0.4" stroke="none" d="
M 552.35 1.25
Q 552.55 0.8 552.8 0.3 524.2 2.6 503.4 23.4 480 46.85 480 80 480 113.2 503.4 136.6 526.45 159.65 559 160 559.5 160 560 160 561.6408203125 159.9962890625 562.7 160 563.7599609375 160.051171875 564.95 159.6 566.133984375 159.19765625 566.55 157.4 567.0220703125 155.6109375 566.15 151.5 565.278125 147.432421875 552.45 97.55 535.152734375 94.4552734375 537 64.65 538.8974609375 34.89375 557.85 14.35
L 556.35 14.25 556.35 9
Q 556.5 8.55 557.3 7.25
L 552.35 7.25 552.35 1.25 Z"/>
</g>

<g id="Layer1_2_FILL">
<path fill="#FFFFFF" fill-opacity="0.2" stroke="none" d="
M 653.6 65.25
Q 652.8322265625 63.6291015625 652.3 61.45
L 647.6 61.25
Q 647.6 60.076171875 647.55 58.7 645.5525390625 62.790625 645.35 66.25 647.1 66.5 644.6 66.5
L 641.05 66.35
Q 640 72.9673828125 640 80 640 113.2 663.4 136.6 686.8 160 720 160 722.330859375 159.996875 725.2 159.8 728.06640625 159.6548828125 729.55 158.3 731.0439453125 156.946875 729.85 152.35
L 715 104.8
Q 694.7626953125 114.0796875 658.6 64
L 658.6 65.25 653.6 65.25 Z"/>
</g>

<g id="Layer1_3_FILL">
<path fill="#FFFFFF" fill-opacity="0.050980392156862744" stroke="none" d="
M 844.6 114.85
L 844.6 117.25
Q 844.1623046875 117.48515625 843.65 117.7
L 844.75 117.75 844.75 122.25 832.6 122.25
Q 831.9689453125 122.4728515625 831.3 122.7
L 838.6 127.25 829.6 127.25 829.6 131.5 818.6 131.4
Q 820.8703125 134.0703125 823.4 136.6 846.8 160 880 160 881.155859375 160 882.3 159.95 884.5990234375 159.917578125 886.85 159.75 894.577734375 159.0048828125 873.85 103.75 870.62265625 122.2037109375 844.6 114.85 Z"/>
</g>

<g id="Layer1_4_FILL">
<path fill="#FFFFFF" fill-opacity="0.2" stroke="none" d="
M 298.1 25
Q 297.34140625 24.19140625 296.55 23.4 275.7341796875 2.5841796875 247.2 0.25 246.8173828125 0.244921875 246.4 0.2 231.69609375 -2.930078125 242.75 65.45 251.8935546875 60.8974609375 253 60.55 258.1470703125 56.91484375 263.25 54.35 262.9 50.4689453125 262.9 50.2 263.412109375 45.311328125 275.5 44.8
L 275.5 40.5
Q 276.457421875 40.5 277.35 40.5 277.8748046875 38.3185546875 278.2 37.25 279.0466796875 34.644921875 281.5 32.75 281.4181640625 32.632421875 281.35 32.5 281.5107421875 32.559765625 281.65 32.6 282.9130859375 31.6955078125 284.55 30.95 286.2966796875 30.148828125 288.7 29.4 288.401953125 27.7494140625 288.35 26.5 289.5041015625 26.9990234375 290.55 27.55 290.35 26.955859375 290.35 26.5 294.997265625 26.598828125 299.65 26.9 299.7546875 26.91640625 299.85 26.9 298.9994140625 25.943359375 298.1 25 Z"/>
</g>
</defs>

<g transform="matrix( 0.707000732421875, -0.7069854736328125, 0.7069854736328125, 0.707000732421875, 821.65,93.95) ">
<g transform="matrix( 1, 0, 0, 1, 0,0) ">
<use xlink:href="#root_0_Layer0_0_FILL"/>
</g>
</g>

<g transform="matrix( 1, 0, 0, 1, 0.3,-16.3) ">
<use xlink:href="#Layer2_0_MEMBER_1_FILL"/>
</g>

<g transform="matrix( 1, 0, 0, 1, 39.15,39.85) ">
<g transform="matrix( 1, 0, 0, 1, 0,0) ">
<use xlink:href="#root_0_Layer0_0_FILL"/>
</g>
</g>

<g transform="matrix( 1, 0, 0, 1, 0,0) ">
<use xlink:href="#Layer2_1_MEMBER_1_FILL"/>
</g>

<g transform="matrix( 0.000030517578125, 0.9997100830078125, -0.9995269775390625, 0.0002288818359375, 266.85,17.2) ">
<g transform="matrix( 1, 0, 0, 1, 0,0) ">
<use xlink:href="#root_0_Layer0_0_FILL"/>
</g>
</g>

<g transform="matrix( 1, 0, 0, 1, 0.2,0) ">
<use xlink:href="#Layer2_2_MEMBER_1_FILL"/>
</g>

<g transform="matrix( 0.7070770263671875, -0.7069854736328125, 0.7070770263671875, 0.70709228515625, 504.75,114) ">
<g transform="matrix( 1, 0, 0, 1, 0,0) ">
<use xlink:href="#root_0_Layer0_0_FILL"/>
</g>
</g>

<g transform="matrix( 1, 0, 0, 1, 7,9) ">
<use xlink:href="#Layer2_3_MEMBER_1_FILL"/>
</g>

<g transform="matrix( 0.865875244140625, -0.4998931884765625, 0.5000152587890625, 0.865875244140625, 335.35,87.25) ">
<g transform="matrix( 1, 0, 0, 1, 0,0) ">
<use xlink:href="#root_0_Layer0_0_FILL"/>
</g>
</g>

<g transform="matrix( 0.9658203125, 0.2588653564453125, -0.25885009765625, 0.9658355712890625, 36.7,-101.4) ">
<use xlink:href="#Layer2_4_MEMBER_1_FILL"/>
</g>

<g transform="matrix( 1, 0, 0, 1, 0,1) ">
<use xlink:href="#Layer2_5_FILL"/>
</g>

<g transform="matrix( 0.7070770263671875, -0.7069854736328125, 0.7070770263671875, 0.70709228515625, 664.75,114) ">
<g transform="matrix( 1, 0, 0, 1, 0,0) ">
<use xlink:href="#root_0_Layer0_0_FILL"/>
</g>
</g>

<g transform="matrix( 1, 0, 0, 1, 160,0) ">
<use xlink:href="#Layer2_6_MEMBER_1_FILL"/>
</g>

<g transform="matrix( 1, 0, 0, 1, 0,0) ">
<use xlink:href="#Layer1_0_FILL"/>
</g>

<g transform="matrix( 1, 0, 0, 1, 0,0) ">
<use xlink:href="#Layer1_1_FILL"/>
</g>

<g transform="matrix( 1, 0, 0, 1, 0,0) ">
<use xlink:href="#Layer1_2_FILL"/>
</g>

<g transform="matrix( 1, 0, 0, 1, 0,0) ">
<use xlink:href="#Layer1_3_FILL"/>
</g>

<g transform="matrix( 1, 0, 0, 1, 0,0) ">
<use xlink:href="#Layer1_4_FILL"/>
</g>
</svg>
