
<svg xmlns="http://www.w3.org/2000/svg" version="1.1" xmlns:xlink="http://www.w3.org/1999/xlink" preserveAspectRatio="none" x="0px" y="0px" width="960px" height="160px" viewBox="0 0 960 160">
<defs>
<g id="Layer2_0_FILL">
<path fill="#5A8AAD" stroke="none" d="
M 400.95 67.95
L 401.65 61 373.8 58.2 373.65 59.8 375.3 59.95 375.2 60.95 373.55 60.8 373.35 62.6 375 62.75 374.9 63.75 373.25 63.6 373.1 65.15 400.95 67.95
M 392.55 61.6
L 394.55 61.85 394.35 63.8 392.4 63.4 392.55 61.6
M 50 94.6
L 50 96.45 51.65 96.45 51.65 97.45 50 97.45 50 99 78 99 78 92 50 92 50 93.6 51.65 93.6 51.65 94.6 50 94.6
M 56 97.3
L 56 95.5 58 95.55 58 97.5 56 97.3
M 78 68
L 78 61 50 61 50 62.6 51.65 62.6 51.65 63.6 50 63.6 50 65.45 51.65 65.45 51.65 66.45 50 66.45 50 68 78 68
M 69 62.5
L 71 62.55 71 64.5 69 64.3 69 62.5
M 242.8 98.75
L 241 92 213.9 99.1 214.3 100.65 215.9 100.25 216.15 101.2 214.55 101.6 215.05 103.4 216.65 103 216.9 103.95 215.3 104.35 215.7 105.85 242.8 98.75
M 221.05 102.7
L 220.6 100.95 222.55 100.5 223.05 102.4 221.05 102.7
M 241 68
L 242.7 61.2 215.55 54.45 215.15 56 216.75 56.4 216.5 57.4 214.9 57 214.45 58.75 216.05 59.15 215.85 60.15 214.25 59.75 213.85 61.25 241 68
M 233.6 60.5
L 235.5 61 235.05 62.9 233.15 62.25 233.6 60.5
M 373.3 95.8
L 373.5 97.4 375.1 97.2 375.25 98.15 373.65 98.35 373.9 100.2 375.5 100 375.65 101 374.05 101.2 374.25 102.75 402 98.95 401.05 92 373.3 95.8
M 379.75 98.45
L 381.7 98.2 381.95 100.15 380 100.25 379.75 98.45
M 526.1 86.25
L 525.8 87.8 527.35 88.15 527.15 89.2 525.6 88.8 525.2 90.6 526.75 90.95 526.55 91.95 524.95 91.6 524.6 93.1 552.05 98.95 553.5 92 526.1 86.25
M 530.9 92.7
L 531.25 90.95 533.2 91.4 532.8 93.3 530.9 92.7
M 524.85 69.55
L 525.35 71.05 526.9 70.55 527.2 71.55 525.65 72.05 526.15 73.8 527.75 73.3 528.05 74.25 526.5 74.8 526.95 76.25 553.7 68 551.6 61.3 524.85 69.55
M 543.95 67.1
L 543.45 65.35 545.4 64.85 545.95 66.7 543.95 67.1
M 684.25 88.35
L 684.05 89.95 685.65 90.15 685.5 91.15 683.9 90.95 683.65 92.8 685.25 93 685.15 93.95 683.55 93.75 683.35 95.3 711.1 98.95 712 92 684.25 88.35
M 689.45 94.4
L 689.7 92.65 691.7 92.95 691.45 94.85 689.45 94.4
M 683.9 67.65
L 685.55 67.5 685.6 68.5 683.95 68.65 684.1 70.2 712 68 711.45 61 683.55 63.2 683.65 64.8 685.3 64.65 685.4 65.65 683.75 65.8 683.9 67.65
M 702.6 63.2
L 704.6 63.1 704.75 65.05 702.75 65 702.6 63.2
M 848 92
L 848 93.6 849.65 93.6 849.65 94.6 848 94.6 848 96.45 849.65 96.45 849.65 97.45 848 97.45 848 99 876 99 876 92 848 92
M 854 95.5
L 856 95.55 856 97.5 854 97.3 854 95.5
M 848 62.6
L 849.65 62.6 849.65 63.6 848 63.6 848 65.45 849.65 65.45 849.65 66.45 848 66.45 848 68 876 68 876 61 848 61 848 62.6
M 867 62.5
L 869 62.55 869 64.5 867 64.3 867 62.5 Z"/>

<path fill="#526E87" stroke="none" d="
M 394.55 61.85
L 392.55 61.6 392.4 63.4 394.35 63.8 394.55 61.85
M 56 95.5
L 56 97.3 58 97.5 58 95.55 56 95.5
M 71 62.55
L 69 62.5 69 64.3 71 64.5 71 62.55
M 220.6 100.95
L 221.05 102.7 223.05 102.4 222.55 100.5 220.6 100.95
M 235.5 61
L 233.6 60.5 233.15 62.25 235.05 62.9 235.5 61
M 381.7 98.2
L 379.75 98.45 380 100.25 381.95 100.15 381.7 98.2
M 531.25 90.95
L 530.9 92.7 532.8 93.3 533.2 91.4 531.25 90.95
M 543.45 65.35
L 543.95 67.1 545.95 66.7 545.4 64.85 543.45 65.35
M 689.7 92.65
L 689.45 94.4 691.45 94.85 691.7 92.95 689.7 92.65
M 704.6 63.1
L 702.6 63.2 702.75 65 704.75 65.05 704.6 63.1
M 856 95.55
L 854 95.5 854 97.3 856 97.5 856 95.55
M 869 62.55
L 867 62.5 867 64.3 869 64.5 869 62.55 Z"/>
</g>
</defs>

<g transform="matrix( 1, 0, 0, 1, 0,0) ">
<use xlink:href="#Layer2_0_FILL"/>
</g>
</svg>
