
<svg xmlns="http://www.w3.org/2000/svg" version="1.1" xmlns:xlink="http://www.w3.org/1999/xlink" preserveAspectRatio="none" x="0px" y="0px" width="960px" height="160px" viewBox="0 0 960 160">
<defs>
<g id="Layer2_0_FILL">
<path fill="#B6617D" stroke="none" d="
M 425.85 77.65
L 421.6 58.75 392.5 62 392.5 99 421.6 102.75 425.75 83.95 419.85 80.5 425.85 77.65 Z"/>
</g>

<g id="Layer2_1_FILL">
<path fill="#B6617D" stroke="none" d="
M 105.85 77.65
L 101.6 58.75 72.5 62 72.5 99 101.6 102.75 102.3 99.6 102.3 99.55 105.75 83.95 99.85 80.5 105.85 77.65 Z"/>
</g>

<g id="Layer2_2_FILL">
<path fill="#B6617D" stroke="none" d="
M 265.85 77.65
L 261.6 58.75 232.5 62 232.5 99 261.6 102.75 265.75 83.95 259.85 80.5 265.85 77.65 Z"/>
</g>

<g id="Layer2_3_FILL">
<path fill="#B6617D" stroke="none" d="
M 585.85 77.65
L 581.6 58.75 552.5 62 552.5 99 581.6 102.75 585.75 83.95 579.85 80.5 585.85 77.65 Z"/>
</g>

<g id="Layer2_4_FILL">
<path fill="#B6617D" stroke="none" d="
M 745.85 77.65
L 741.6 58.75 712.5 62 712.5 99 741.6 102.75 745.75 83.95 739.85 80.5 745.85 77.65 Z"/>
</g>

<g id="Layer2_5_FILL">
<path fill="#B6617D" stroke="none" d="
M 905.85 77.65
L 901.6 58.75 872.5 62 872.5 99 901.6 102.75 905.75 83.95 899.85 80.5 905.85 77.65 Z"/>
</g>

<g id="Layer2_6_FILL">
<path fill="#D9BFA1" stroke="none" d="
M 75.1 51.1
L 70.5 59 78.45 63.55 82.95 55.7 75.1 51.1 Z"/>
</g>

<g id="Layer2_7_FILL">
<path fill="#D9BFA1" stroke="none" d="
M 227.05 53.1
L 224.65 61.95 233.55 64.3 235.8 55.55 227.05 53.1 Z"/>
</g>

<g id="Layer2_8_FILL">
<path fill="#D9BFA1" stroke="none" d="
M 376.65 52.85
L 374.25 61.7 383.1 64 385.4 55.25 376.65 52.85 Z"/>
</g>

<g id="Layer2_9_FILL">
<path fill="#D9BFA1" stroke="none" d="
M 535.5 54
L 534.9 63.15 544.05 63.65 544.55 54.6 535.5 54 Z"/>
</g>

<g id="Layer2_10_FILL">
<path fill="#D9BFA1" stroke="none" d="
M 695.5 54
L 694.9 63.15 704.05 63.65 704.55 54.6 695.5 54 Z"/>
</g>

<g id="Layer2_11_FILL">
<path fill="#D9BFA1" stroke="none" d="
M 855.5 54
L 854.9 63.15 864.05 63.65 864.55 54.6 855.5 54 Z"/>
</g>

<g id="Layer2_12_FILL">
<path fill="#D9BFA1" stroke="none" d="
M 59.9 100.1
L 66.2 106.6 72.75 100.25 66.45 93.75 59.9 100.1 Z"/>
</g>

<g id="Layer2_13_FILL">
<path fill="#D9BFA1" stroke="none" d="
M 220.9 100.1
L 227.2 106.6 233.75 100.25 227.45 93.75 220.9 100.1 Z"/>
</g>

<g id="Layer2_14_FILL">
<path fill="#D9BFA1" stroke="none" d="
M 381.9 100.1
L 388.2 106.6 394.75 100.25 388.45 93.75 381.9 100.1 Z"/>
</g>

<g id="Layer2_15_FILL">
<path fill="#D9BFA1" stroke="none" d="
M 542.9 100.1
L 549.2 106.6 555.75 100.25 549.45 93.75 542.9 100.1 Z"/>
</g>

<g id="Layer2_16_FILL">
<path fill="#D9BFA1" stroke="none" d="
M 703.9 100.1
L 710.2 106.6 716.75 100.25 710.45 93.75 703.9 100.1 Z"/>
</g>

<g id="Layer2_17_FILL">
<path fill="#D9BFA1" stroke="none" d="
M 861.9 100.1
L 868.2 106.6 874.75 100.25 868.45 93.75 861.9 100.1 Z"/>
</g>
</defs>

<g transform="matrix( 1, 0, 0, 1, 0,0) ">
<use xlink:href="#Layer2_0_FILL"/>
</g>

<g transform="matrix( 1, 0, 0, 1, 0,0) ">
<use xlink:href="#Layer2_1_FILL"/>
</g>

<g transform="matrix( 1, 0, 0, 1, 0,0) ">
<use xlink:href="#Layer2_2_FILL"/>
</g>

<g transform="matrix( 1, 0, 0, 1, 0,0) ">
<use xlink:href="#Layer2_3_FILL"/>
</g>

<g transform="matrix( 1, 0, 0, 1, 0,0) ">
<use xlink:href="#Layer2_4_FILL"/>
</g>

<g transform="matrix( 1, 0, 0, 1, 0,0) ">
<use xlink:href="#Layer2_5_FILL"/>
</g>

<g transform="matrix( 1, 0, 0, 1, 0,0) ">
<use xlink:href="#Layer2_6_FILL"/>
</g>

<g transform="matrix( 1, 0, 0, 1, 0,0) ">
<use xlink:href="#Layer2_7_FILL"/>
</g>

<g transform="matrix( 1, 0, 0, 1, 0,0) ">
<use xlink:href="#Layer2_8_FILL"/>
</g>

<g transform="matrix( 1, 0, 0, 1, 0,0) ">
<use xlink:href="#Layer2_9_FILL"/>
</g>

<g transform="matrix( 1, 0, 0, 1, 0,0) ">
<use xlink:href="#Layer2_10_FILL"/>
</g>

<g transform="matrix( 1, 0, 0, 1, 0,0) ">
<use xlink:href="#Layer2_11_FILL"/>
</g>

<g transform="matrix( 1, 0, 0, 1, 0,0) ">
<use xlink:href="#Layer2_12_FILL"/>
</g>

<g transform="matrix( 1, 0, 0, 1, 0,0) ">
<use xlink:href="#Layer2_13_FILL"/>
</g>

<g transform="matrix( 1, 0, 0, 1, 0,0) ">
<use xlink:href="#Layer2_14_FILL"/>
</g>

<g transform="matrix( 1, 0, 0, 1, 0,0) ">
<use xlink:href="#Layer2_15_FILL"/>
</g>

<g transform="matrix( 1, 0, 0, 1, 0,0) ">
<use xlink:href="#Layer2_16_FILL"/>
</g>

<g transform="matrix( 1, 0, 0, 1, 0,0) ">
<use xlink:href="#Layer2_17_FILL"/>
</g>
</svg>
