
<svg xmlns="http://www.w3.org/2000/svg" version="1.1" xmlns:xlink="http://www.w3.org/1999/xlink" preserveAspectRatio="none" x="0px" y="0px" width="46px" height="46px" viewBox="0 0 46 46">
<defs>
<g id="Layer0_0_FILL">
<path fill="#5C6370" stroke="none" d="
M 4 41.9
L 8 41.9 8 5 4 5 4 41.9 Z"/>

<path fill="#EE789F" stroke="none" d="
M 41 20.8
L 41 5 8 5 8 41.9 41 41.9 41 25.9 46 28.65 46 17.8 41 20.8 Z"/>

<path fill="#FFFFFF" stroke="none" d="
M 87 20.8
L 87 5 50 5 50 41.9 87 41.9 87 25.9 92 28.65 92 17.8 87 20.8 Z"/>
</g>

<g id="Layer0_1_MEMBER_0_FILL">
<path fill="#CCCCFF" stroke="none" d="
M 8 14
L 8 32.85 12.9 32.85 9.8 27.35 14.15 23.4 9.9 19.45 12.8 14 8 14 Z"/>
</g>
</defs>

<g transform="matrix( 1, 0, 0, 1, 0,0) ">
<use xlink:href="#Layer0_0_FILL"/>
</g>

<g transform="matrix( 1, 0, 0, 1, 0,0) ">
<use xlink:href="#Layer0_1_MEMBER_0_FILL"/>
</g>
</svg>
