
<svg xmlns="http://www.w3.org/2000/svg" version="1.1" xmlns:xlink="http://www.w3.org/1999/xlink" preserveAspectRatio="none" x="0px" y="0px" width="137px" height="24px" viewBox="0 0 137 24">
<defs>
<g id="Layer0_0_FILL">
<path fill="#CCCCCC" stroke="none" d="
M 45.65 7.5
L 45.65 2.3 37 2.3 37 8.8 40.3 8.8 40.3 21.7 59.7 21.7 59.7 8.8 62.95 8.8 62.95 2.3 54.2 2.3 54.2 7.5 45.65 7.5
M 20.75 23.6
L 23.55 20.8 18.1 15.3 20.8 12.65 18.7 10.55 17.7 11.5 6.15 0 0 0 0 6.15 11.55 17.7 10.45 18.8 12.55 20.9 15.35 18.2 20.75 23.6
M 99.7 9.3
L 92.75 9.3 92.75 2.3 87.15 2.3 87.15 9.3 80.15 9.3 80.15 14.9 87.15 14.9 87.15 21.85 92.75 21.85 92.75 14.9 99.7 14.9 99.7 9.3
M 136.15 6.9
L 131.3 6.9 131.3 2.05 122.1 2.05 122.1 6.9 117.3 6.9 117.3 22 136.15 22 136.15 6.9 Z"/>
</g>
</defs>

<g transform="matrix( 1, 0, 0, 1, 0,0) ">
<use xlink:href="#Layer0_0_FILL"/>
</g>
</svg>
