
<svg xmlns="http://www.w3.org/2000/svg" version="1.1" xmlns:xlink="http://www.w3.org/1999/xlink" preserveAspectRatio="none" x="0px" y="0px" width="176px" height="35px" viewBox="0 0 176 35">
<defs>
<g id="Layer0_0_FILL">
<path fill="#FFCCCC" stroke="none" d="
M 155.95 78
L 139.95 78 139.95 94 155.95 94 155.95 78 Z"/>

<path fill="#FF9999" stroke="none" d="
M 139.95 78
L 123.95 78 123.95 94 139.95 94 139.95 78 Z"/>

<path fill="#FF6666" stroke="none" d="
M 107.95 78
L 107.95 94 123.95 94 123.95 78 107.95 78 Z"/>

<path fill="#FF0000" stroke="none" d="
M 91.95 94
L 91.95 78 75.95 78 75.95 94 91.95 94 Z"/>

<path fill="#FF3333" stroke="none" d="
M 91.95 78
L 91.95 94 107.95 94 107.95 78 91.95 78 Z"/>

<path fill="#0000FF" stroke="none" d="
M 219.95 78
L 219.95 94 235.95 94 235.95 78 219.95 78 Z"/>

<path fill="#00FFFF" stroke="none" d="
M 203.95 78
L 203.95 94 219.95 94 219.95 78 203.95 78 Z"/>

<path fill="#FFFFFF" stroke="none" d="
M 171.95 94
L 171.95 78 155.95 78 155.95 94 171.95 94 Z"/>

<path fill="#66FF33" stroke="none" d="
M 187.95 78
L 187.95 94 203.95 94 203.95 78 187.95 78 Z"/>

<path fill="#FFFF00" stroke="none" d="
M 171.95 94
L 187.95 94 187.95 78 171.95 78 171.95 94 Z"/>

<path fill="#000000" stroke="none" d="
M 251.95 94
L 251.95 78 235.95 78 235.95 94 251.95 94 Z"/>
</g>

<g id="Layer0_0_MEMBER_0_FILL">
<path fill="#CCCCCC" stroke="none" d="
M 84.45 60.95
Q 83.45 59.6 81.45 59.6 79.4 59.6 78.4 60.95 77.4 62.35 77.4 64.65 77.4 66.95 78.4 68.35 79.4 69.7 81.45 69.7 83.45 69.7 84.45 68.35 85.45 66.95 85.45 64.65 85.45 62.35 84.45 60.95
M 82.9 67
Q 82.4 67.9 81.45 67.9 80.45 67.9 80 67 79.55 66.15 79.55 64.65 79.55 63.2 80 62.3 80.45 61.4 81.45 61.4 82.4 61.4 82.9 62.3 83.35 63.2 83.35 64.65 83.35 66.15 82.9 67
M 241.7 59.8
L 237.75 59.8 237.75 61.7 239.6 61.7 239.6 69.6 241.7 69.6 241.7 59.8
M 247.8 59.6
Q 245.75 59.6 244.75 60.95 243.75 62.35 243.75 64.65 243.75 66.95 244.75 68.35 245.75 69.7 247.8 69.7 249.8 69.7 250.8 68.35 251.8 66.95 251.8 64.65 251.8 62.35 250.8 60.95 249.8 59.6 247.8 59.6
M 249.25 62.3
Q 249.7 63.2 249.7 64.65 249.7 66.15 249.25 67 248.75 67.9 247.8 67.9 246.8 67.9 246.35 67 245.9 66.15 245.9 64.65 245.9 63.2 246.35 62.3 246.8 61.4 247.8 61.4 248.75 61.4 249.25 62.3 Z"/>
</g>
</defs>

<g transform="matrix( 1, 0, 0, 1, -75.95,-59) ">
<use xlink:href="#Layer0_0_FILL"/>
</g>

<g transform="matrix( 1, 0, 0, 1, -75.95,-59) ">
<use xlink:href="#Layer0_0_MEMBER_0_FILL"/>
</g>
</svg>
