
<svg xmlns="http://www.w3.org/2000/svg" version="1.1" xmlns:xlink="http://www.w3.org/1999/xlink" preserveAspectRatio="none" x="0px" y="0px" width="36px" height="36px" viewBox="0 0 36 36">
<defs>
<g id="Layer0_0_FILL">
<path fill="#CCCCCC" stroke="none" d="
M 26.65 22.5
L 26.65 1 0.35 1 0.35 22.5 3.35 22.5 3.35 26 8.05 26 8.05 22.5 11 22.5 11 26 15.65 26 15.65 22.5 18.75 22.5 18.75 26 23.7 26 23.7 22.5 26.65 22.5
M 22.85 9.8
L 22.85 14.15 18.2 14.15 18.2 9.8 22.85 9.8
M 4.55 9.8
L 9 9.8 9 14.15 4.55 14.15 4.55 9.8
M 14.8 16
L 14.8 19.7 12.45 19.7 12.45 16 14.8 16 Z"/>
</g>
</defs>

<g transform="matrix( 0.543731689453125, 0, 0, 0.543731689453125, 10.65,10.65) ">
<use xlink:href="#Layer0_0_FILL"/>
</g>
</svg>
