
<svg xmlns="http://www.w3.org/2000/svg" version="1.1" xmlns:xlink="http://www.w3.org/1999/xlink" preserveAspectRatio="none" x="0px" y="0px" width="80px" height="80px" viewBox="0 0 80 80">
<defs>
<linearGradient id="Gradient_1" gradientUnits="userSpaceOnUse" x1="179.4625" y1="210.1125" x2="192.5375" y2="223.1875" spreadMethod="pad">
<stop  offset="0%" stop-color="#000000" stop-opacity="0.2"/>

<stop  offset="100%" stop-color="#000000" stop-opacity="0"/>
</linearGradient>

<linearGradient id="Gradient_2" gradientUnits="userSpaceOnUse" x1="122.41250000000001" y1="209.7125" x2="135.6875" y2="222.98749999999998" spreadMethod="pad">
<stop  offset="0%" stop-color="#000000" stop-opacity="0.2"/>

<stop  offset="100%" stop-color="#000000" stop-opacity="0"/>
</linearGradient>

<linearGradient id="Gradient_3" gradientUnits="userSpaceOnUse" x1="151.0125" y1="209.8125" x2="163.4875" y2="222.28750000000002" spreadMethod="pad">
<stop  offset="0%" stop-color="#000000" stop-opacity="0.2"/>

<stop  offset="100%" stop-color="#000000" stop-opacity="0"/>
</linearGradient>

<linearGradient id="Gradient_4" gradientUnits="userSpaceOnUse" x1="122.075" y1="152.625" x2="139.225" y2="169.77499999999998" spreadMethod="pad">
<stop  offset="0%" stop-color="#000000" stop-opacity="0.2"/>

<stop  offset="100%" stop-color="#000000" stop-opacity="0"/>
</linearGradient>

<linearGradient id="Gradient_5" gradientUnits="userSpaceOnUse" x1="122.275" y1="181.325" x2="138.025" y2="197.075" spreadMethod="pad">
<stop  offset="0%" stop-color="#000000" stop-opacity="0.2"/>

<stop  offset="100%" stop-color="#000000" stop-opacity="0"/>
</linearGradient>

<linearGradient id="Gradient_6" gradientUnits="userSpaceOnUse" x1="150.775" y1="152.825" x2="166.525" y2="168.575" spreadMethod="pad">
<stop  offset="0%" stop-color="#000000" stop-opacity="0.2"/>

<stop  offset="100%" stop-color="#000000" stop-opacity="0"/>
</linearGradient>

<linearGradient id="Gradient_7" gradientUnits="userSpaceOnUse" x1="179.51250000000002" y1="181.51250000000002" x2="191.2875" y2="193.2875" spreadMethod="pad">
<stop  offset="0%" stop-color="#000000" stop-opacity="0.2"/>

<stop  offset="100%" stop-color="#000000" stop-opacity="0"/>
</linearGradient>

<linearGradient id="Gradient_8" gradientUnits="userSpaceOnUse" x1="179.1125" y1="152.8125" x2="191.4875" y2="165.1875" spreadMethod="pad">
<stop  offset="0%" stop-color="#000000" stop-opacity="0.2"/>

<stop  offset="100%" stop-color="#000000" stop-opacity="0"/>
</linearGradient>

<g id="Layer0_0_MEMBER_0_FILL">
<path fill="#A5B499" stroke="none" d="
M 71.2 8.6
L 8.45 8.6 8.45 71.35 71.2 71.35 71.2 8.6 Z"/>
</g>

<g id="Layer0_0_MEMBER_0_MEMBER_0_FILL">
<path fill="#B2C2A5" stroke="none" d="
M 0.2 0.1
L 0.2 79.9 80 79.9 80 0.1 0.2 0.1
M 10.95 11.1
L 68.7 11.1 68.7 68.85 10.95 68.85 10.95 11.1 Z"/>
</g>

<g id="Layer0_0_MEMBER_0_MEMBER_0_MEMBER_0_FILL">
<path fill="#9FA892" stroke="none" d="
M 164.9 215.2
L 162.9 215.2 162.9 217.1 164.9 217.1 164.9 215.2
M 133.9 203.7
L 131.9 203.7 131.9 205.6 133.9 205.6 133.9 203.7
M 140.9 205.2
L 136.9 205.2 136.9 209.1 140.9 209.2 140.9 205.2
M 161.9 159.95
L 159.9 159.95 159.9 161.85 161.9 161.85 161.9 159.95
M 117.9 171.2
L 115.9 171.2 115.9 173.1 117.9 173.1 117.9 171.2
M 181.15 159.2
L 177.15 159.2 177.15 163.1 181.15 163.2 181.15 159.2 Z"/>
</g>

<g id="Layer0_0_MEMBER_0_MEMBER_0_MEMBER_1_FILL">
<path fill="#808080" stroke="none" d="
M 168.05 191.95
L 168.05 162.55 134.15 162.55 134.15 191.6 134.35 191.95 151.6 200.65 168.05 191.95
M 151.35 169.55
Q 154.05 169.55 155.7 171.05 157.4 172.45 157.4 175.05 157.4 176.1 157.05 176.75 156.8 177.25 156.7 177.55 156.6 177.7 156.15 178.25 155.7 178.7 155.65 178.85 154.9 179.55 154.3 180.1 153.65 180.75 153.5 181.1 153.3 181.55 153.3 182.25
L 153.3 183.9 148.95 183.9 148.95 181.8
Q 148.95 180.65 149.3 180.1 149.6 179.5 150.55 178.5
L 152.5 176.55
Q 152.85 176 152.85 175.2 152.85 174.4 152.45 173.9 152 173.25 151.25 173.25 150.55 173.25 150.05 174 149.5 174.6 149.4 175.65
L 144.9 175.65
Q 145.25 172.8 147 171.15 148.7 169.55 151.35 169.55
M 149.4 189.35
Q 148.7 188.65 148.7 187.55 148.7 186.6 149.4 185.8 150.1 185.1 151.2 185.1 152.25 185.1 152.95 185.8 153.65 186.6 153.65 187.55 153.65 188.65 152.95 189.35 152.25 190.15 151.2 190.15 150.1 190.15 149.4 189.35 Z"/>
</g>

<g id="Layer0_0_MEMBER_0_MEMBER_0_MEMBER_2_FILL">
<path fill="#C9D9BB" stroke="none" d="
M 186 216.55
L 186 203 172.45 203 172.45 216.55 186 216.55
M 128.55 216.55
L 128.55 203 115.8 203 115.8 216.55 128.55 216.55
M 158.05 216.55
L 158.05 203 143.9 203 143.9 216.55 158.05 216.55
M 115.8 146.35
L 115.8 159.1 128.55 159.1 128.55 146.35 115.8 146.35
M 115.8 174.45
L 115.8 188.6 128.55 188.6 128.55 174.45 115.8 174.45
M 158.05 146.35
L 143.9 146.35 143.9 159.1 158.05 159.1 158.05 146.35
M 172.45 174.45
L 172.45 188.6 186 188.6 186 174.45 172.45 174.45
M 186 146.35
L 172.45 146.35 172.45 159.1 186 159.1 186 146.35 Z"/>

<path fill="url(#Gradient_1)" stroke="none" d="
M 190.8 207.8
L 186 203 186 216.55 172.45 216.55 177.2 221.35 190.8 221.35 190.8 207.8 Z"/>

<path fill="url(#Gradient_2)" stroke="none" d="
M 128.55 203
L 128.55 216.55 115.8 216.55 120.85 221.45 120.85 221.4 137.65 221.4 142.3 216.75 128.55 203 Z"/>

<path fill="url(#Gradient_3)" stroke="none" d="
M 143.9 216.55
L 149 221.4 164.8 221.4 170.65 215.55 158.05 203 158.05 216.55 143.9 216.55 Z"/>

<path fill="url(#Gradient_4)" stroke="none" d="
M 132.75 176.05
L 145.5 163.3 128.55 146.35 128.55 159.1 115.8 159.1 132.75 176.05 Z"/>

<path fill="url(#Gradient_5)" stroke="none" d="
M 144.6 190.5
L 128.55 174.45 128.55 188.6 115.8 188.6 131.15 203.95 144.6 190.5 Z"/>

<path fill="url(#Gradient_6)" stroke="none" d="
M 143.9 159.1
L 159.95 175.15 173.4 161.7 158.05 146.35 158.05 159.1 143.9 159.1 Z"/>

<path fill="url(#Gradient_7)" stroke="none" d="
M 190.8 179.25
L 186 174.45 186 188.6 172.45 188.6 184.3 200.5 190.8 194 190.8 179.25 Z"/>

<path fill="url(#Gradient_8)" stroke="none" d="
M 185.1 171.75
L 190.8 166.05 190.8 151.15 186 146.35 186 159.1 172.45 159.1 185.1 171.75 Z"/>
</g>

<g id="Layer0_0_MEMBER_1_FILL">
<path fill="#FFFFFF" stroke="none" d="
M 190.8 141.45
L 110.8 141.45 110.8 221.45 190.8 221.45 190.8 141.45
M 113.8 144.45
L 187.8 144.45 187.8 218.45 113.8 218.45 113.8 144.45
M 141.15 187.6
L 138.35 187.6 138.35 200.2 141.15 200.2 141.15 195.25 146.15 195.25 146.15 200.2 148.95 200.2 148.95 187.6 146.15 187.6 146.15 192.85 141.15 192.85 141.15 187.6
M 131 187.35
Q 129.05 187.35 127.8 188.3 126.5 189.3 126.5 191.05 126.5 192.85 127.5 193.7 128.55 194.55 130.7 195.05 132.1 195.4 132.55 195.75 133.05 196.05 133.05 196.6 133.05 197.2 132.6 197.55 132.15 197.85 131.4 197.85 129.65 197.85 127.6 196.1
L 125.95 198.15
Q 128.35 200.35 131.35 200.35 133.4 200.35 134.65 199.3 135.95 198.25 135.95 196.55 135.95 194.85 134.95 193.95 133.95 193.1 132.15 192.65 130.4 192.2 129.9 191.9 129.4 191.55 129.4 191 129.4 190.45 129.8 190.15 130.2 189.8 130.9 189.8 132.65 189.8 134.3 191.05
L 135.7 189
Q 134.75 188.2 133.5 187.75 132.25 187.35 131 187.35
M 149.4 167.6
L 142.8 167.6 142.8 178.55 159.5 178.55 159.5 167.6 152.7 167.6 152.7 170.3 149.4 170.3 149.4 167.6
M 142.8 162.95
L 142.8 165.55 159.7 165.55 159.7 162.95 142.8 162.95
M 169.7 196.7
L 171.4 196.7
Q 174.15 196.7 175.55 195.6 176.9 194.55 176.9 192.2 176.9 189.85 175.55 188.75 174.25 187.6 171.35 187.6
L 166.9 187.6 166.9 200.2 169.7 200.2 169.7 196.7
M 169.7 190.05
L 171.3 190.05
Q 172.7 190.05 173.35 190.5 174 190.95 174 192.05 174 193.1 173.5 193.7 173 194.25 171.6 194.25
L 169.7 194.25 169.7 190.05
M 164.55 193.85
Q 164.55 191.05 162.65 189.2 160.7 187.35 157.95 187.35 155.15 187.35 153.25 189.2 151.35 191.05 151.35 193.85 151.35 196.6 153.25 198.45 155.15 200.3 157.95 200.3 160.7 200.3 162.65 198.45 164.55 196.6 164.55 193.85
M 157.95 189.8
Q 159.5 189.8 160.6 190.95 161.7 192.15 161.7 193.85 161.7 195.5 160.6 196.7 159.5 197.9 157.95 197.9 156.35 197.9 155.3 196.7 154.2 195.5 154.2 193.85 154.2 192.15 155.3 190.95 156.35 189.8 157.95 189.8 Z"/>
</g>
</defs>

<g transform="matrix( 1, 0, 0, 1, 0,0) ">
<use xlink:href="#Layer0_0_MEMBER_0_FILL"/>
</g>

<g transform="matrix( 1, 0, 0, 1, 0,0) ">
<use xlink:href="#Layer0_0_MEMBER_0_MEMBER_0_FILL"/>
</g>

<g transform="matrix( 1, 0, 0, 1, -110.8,-141.45) ">
<use xlink:href="#Layer0_0_MEMBER_0_MEMBER_0_MEMBER_0_FILL"/>
</g>

<g transform="matrix( 1, 0, 0, 1, -110.8,-141.45) ">
<use xlink:href="#Layer0_0_MEMBER_0_MEMBER_0_MEMBER_1_FILL"/>
</g>

<g transform="matrix( 1, 0, 0, 1, -110.8,-141.45) ">
<use xlink:href="#Layer0_0_MEMBER_0_MEMBER_0_MEMBER_2_FILL"/>
</g>

<g transform="matrix( 1, 0, 0, 1, -110.8,-141.45) ">
<use xlink:href="#Layer0_0_MEMBER_1_FILL"/>
</g>
</svg>
