
<svg xmlns="http://www.w3.org/2000/svg" version="1.1" xmlns:xlink="http://www.w3.org/1999/xlink" preserveAspectRatio="none" x="0px" y="0px" width="36px" height="36px" viewBox="0 0 36 36">
<defs>
<g id="Layer0_0_FILL">
<path fill="#CCCCCC" stroke="none" d="
M 27.65 0.45
L 23.3 0.45 14.1 9.65 4.85 0.4 0.5 0.4 0.5 4.75 9.75 14 7.15 16.6 4.4 13.75 2.2 15.95 5.75 19.55 0.4 24.75 3.2 27.6 8.45 22.4 12.15 25.95 14.15 24 16 25.85 19.6 22.3 24.8 27.65 27.65 24.85 22.45 19.6 26 15.9 23.9 13.8 21 16.55 18.45 14 27.65 4.8 27.65 0.45
M 14.1 18.35
L 16.65 20.9 13.95 23.55 11.5 20.95 14.1 18.35 Z"/>
</g>
</defs>

<g transform="matrix( 0.4835662841796875, 0, 0, 0.4835662841796875, 11.25,11.25) ">
<use xlink:href="#Layer0_0_FILL"/>
</g>
</svg>
