
<svg xmlns="http://www.w3.org/2000/svg" version="1.1" xmlns:xlink="http://www.w3.org/1999/xlink" preserveAspectRatio="none" x="0px" y="0px" width="46px" height="46px" viewBox="0 0 46 46">
<defs>
<g id="Layer0_0_FILL">
<path fill="#3675BB" stroke="none" d="
M 5 30.4
L 4.95 30.3 4.95 41.9 8.95 41.9 8.95 30.45 5.05 30.45 5 30.4
M 4.95 16.35
L 5 16.3 8.95 16.3 8.95 5 4.95 5 4.95 16.35 Z"/>

<path fill="#DBD6CD" stroke="none" d="
M 5 16.3
L 4.95 16.35 0.55 23.25 4.95 30.3 5 30.4 5.05 30.45 8.95 30.45 8.95 16.3 5 16.3 Z"/>

<path fill="#5C6370" stroke="none" d="
M 42 41.9
L 42 5 8.95 5 8.95 16.3 8.95 30.45 8.95 41.9 42 41.9 Z"/>

<path fill="#FFFFFF" stroke="none" d="
M 88 41.9
L 88 5 51 5 51 16.3 50.95 16.35 46.55 23.25 51 30.35 51 41.9 88 41.9 Z"/>
</g>
</defs>

<g transform="matrix( 1, 0, 0, 1, 0,0) ">
<use xlink:href="#Layer0_0_FILL"/>
</g>
</svg>
