
<svg xmlns="http://www.w3.org/2000/svg" version="1.1" xmlns:xlink="http://www.w3.org/1999/xlink" preserveAspectRatio="none" x="0px" y="0px" width="46px" height="46px" viewBox="0 0 46 46">
<defs>
<g id="Layer0_0_FILL">
<path fill="#588C2B" stroke="none" d="
M 18 41.8
L 18 46 22 46 22 41.8 18 41.8
M 22 5
L 22 0 18 0 18 5 22 5 Z"/>

<path fill="#EE5A48" stroke="none" d="
M 9.1 5
L 5.1 5 5.1 41.8 9.1 41.8 9.1 5 Z"/>

<path fill="#689F3A" stroke="none" d="
M 41 41.8
L 41 5 22 5 18 5 9.1 5 9.1 41.8 18 41.8 22 41.8 41 41.8 Z"/>

<path fill="#FFFFFF" stroke="none" d="
M 87 41.8
L 87 5 68 5 68 0 64 0 64 5 51.1 5 51.1 8 49 8 49 17.6 51.1 17.6 51.1 29.2 49 29.2 49 38.8 51.1 38.8 51.1 41.8 64 41.8 64 46 68 46 68 41.8 87 41.8 Z"/>
</g>

<g id="Layer0_1_FILL">
<path fill="#E9E9E9" stroke="none" d="
M 6.1 8
L 3 8 3 17.6 6.1 17.6 6.1 8
M 3 38.8
L 6.1 38.8 6.1 29.2 3 29.2 3 38.8 Z"/>
</g>
</defs>

<g transform="matrix( 1, 0, 0, 1, 0,0) ">
<use xlink:href="#Layer0_0_FILL"/>
</g>

<g transform="matrix( 1, 0, 0, 1, 0,0) ">
<use xlink:href="#Layer0_1_FILL"/>
</g>
</svg>
