
<svg xmlns="http://www.w3.org/2000/svg" version="1.1" xmlns:xlink="http://www.w3.org/1999/xlink" preserveAspectRatio="none" x="0px" y="0px" width="46px" height="46px" viewBox="0 0 46 46">
<defs>
<g id="Layer0_0_FILL">
<path fill="#AAA699" stroke="none" d="
M 41 41
L 41 5 22 5 22 41 41 41 Z"/>

<path fill="#FFFFFF" stroke="none" d="
M 87 41
L 87 5 68 5 68 4 60.75 4 60.75 0 56.75 0 56.75 4 50 4 50 42 56.75 42 56.75 46 60.75 46 60.75 42 68 42 68 41 87 41 Z"/>
</g>

<g id="Layer0_1_FILL">
<path fill="#C94D3E" stroke="none" d="
M 10.75 46
L 14.75 46 14.75 42 10.75 42 10.75 46
M 10.75 0
L 10.75 4 14.75 4 14.75 0 10.75 0 Z"/>

<path fill="#EE5A48" stroke="none" d="
M 14.75 4
L 10.75 4 4 4 4 42 10.75 42 14.75 42 22 42 22 4 14.75 4 Z"/>
</g>

<g id="Layer0_1_MEMBER_0_FILL">
<path fill="#5F5953" stroke="none" d="
M 5.9 11.8
L 5.9 34.2 6.85 34.2 6.85 11.8 5.9 11.8 Z"/>
</g>
</defs>

<g transform="matrix( 1, 0, 0, 1, 0,0) ">
<use xlink:href="#Layer0_0_FILL"/>
</g>

<g transform="matrix( 1, 0, 0, 1, 0,0) ">
<use xlink:href="#Layer0_1_FILL"/>
</g>

<g transform="matrix( 1, 0, 0, 1, 0,0) ">
<use xlink:href="#Layer0_1_MEMBER_0_FILL"/>
</g>
</svg>
