
<svg xmlns="http://www.w3.org/2000/svg" version="1.1" xmlns:xlink="http://www.w3.org/1999/xlink" preserveAspectRatio="none" x="0px" y="0px" width="550px" height="350px" viewBox="0 0 550 350">
<defs>
<linearGradient id="Gradient_1" gradientUnits="userSpaceOnUse" x1="443.425" y1="244.75" x2="469.575" y2="244.75" spreadMethod="pad">
<stop  offset="0%" stop-color="#D4CDCD"/>

<stop  offset="100%" stop-color="#BFB7B7"/>

<stop  offset="100%" stop-color="#BFB7B7"/>
</linearGradient>

<linearGradient id="Gradient_2" gradientUnits="userSpaceOnUse" x1="448.8" y1="326.7375" x2="413.90000000000003" y2="314.3625" spreadMethod="pad">
<stop  offset="0%" stop-color="#878791"/>

<stop  offset="100%" stop-color="#6F7179"/>
</linearGradient>

<linearGradient id="Gradient_3" gradientUnits="userSpaceOnUse" x1="371.25" y1="299.3625" x2="406.15" y2="311.7375" spreadMethod="pad">
<stop  offset="0%" stop-color="#878791"/>

<stop  offset="100%" stop-color="#6F7179"/>
</linearGradient>

<linearGradient id="Gradient_4" gradientUnits="userSpaceOnUse" x1="220.375" y1="262.6125" x2="234.425" y2="314.3875" spreadMethod="pad">
<stop  offset="0%" stop-color="#D4CDCD"/>

<stop  offset="100%" stop-color="#BFB7B7"/>

<stop  offset="100%" stop-color="#BFB7B7"/>
</linearGradient>

<g id="Layer0_0_FILL">
<path fill="#495BC9" stroke="none" d="
M 550 350
L 550 0 0 0 0 349.9 550 350 Z"/>
</g>

<g id="Layer0_1_MEMBER_0_FILL">
<path fill="#C6AE93" stroke="none" d="
M 376.9 231.7
L 356.6 276.6 373.7 282 376.9 231.7 Z"/>

<path fill="#BFB7B7" stroke="none" d="
M 461.35 254.7
L 467.45 248.55 458.45 243.3 461.35 254.7 Z"/>

<path fill="#DEC8AF" stroke="none" d="
M 439.75 270.15
L 438.1 264.3 436.55 258.85 430.5 237.45 426.65 276 439.75 270.15
M 433.6 205.95
L 433.65 205.35 378.85 201.4 376.9 231.7 381.45 232.15 430.55 236.9 433.6 205.95
M 412.4 218.65
L 419.5 225.4
Q 416.5 234.05 410.65 227.4 403.4 233 400.95 224.15
L 412.4 218.65
M 418.6 207.4
L 427.2 207.15 418.6 207.4
M 393.9 204.15
L 402.5 206.9 393.9 204.15 Z"/>

<path fill="#DE4330" stroke="none" d="
M 430.5 237.45
L 430.55 236.95 404.05 292.2 381.45 232.15 376.9 231.7 373.7 282 372.7 298.45 424.3 299.45 426.65 276 430.5 237.45 Z"/>

<path fill="#9F3325" stroke="none" d="
M 430.55 236.95
L 430.55 236.9 381.45 232.15 404.05 292.2 430.55 236.95 Z"/>

<path fill="#CDA64F" stroke="none" d="
M 419.5 225.4
L 412.4 218.65 400.95 224.15
Q 403.4 233 410.65 227.4 416.5 234.05 419.5 225.4 Z"/>

<path fill="#6D6B64" stroke="none" d="
M 433.65 205.35
L 434.25 199.4 379.2 195.2 378.85 201.2 378.85 201.4 433.65 205.35 Z"/>

<path fill="#877B61" stroke="none" d="
M 451 231.55
L 456.4 233.5 458.7 229.55 453.75 226.3 451 231.55
M 449.4 245.2
L 447.1 238.9 436.55 258.85 438.1 264.3 449.4 245.2 Z"/>

<path fill="url(#Gradient_1)" stroke="none" d="
M 447.1 238.9
L 449.4 245.2 455.15 260.8 461.35 254.7 458.45 243.3 467.45 248.55 469.55 238.3 456.4 233.5 451 231.55 443.4 228.75 447.1 238.9 Z"/>

<path fill="#E9DECE" stroke="none" d="
M 438.4 196.9
L 434.55 196.6 434.25 199.4 433.65 205.35 433.6 205.95 445.7 206.65 441.55 189.65 438.4 196.9
M 379.2 195.2
L 379.4 192.1 373.8 192.1 370.05 182.4 365.4 201.2 378.85 201.2 379.2 195.2 Z"/>

<path fill="#807E77" stroke="none" d="
M 379.4 192.1
L 379.2 195.2 434.25 199.4 434.55 196.6 436.25 179.4 380.65 173.4 379.4 192.1 Z"/>
</g>

<g id="Layer0_1_MEMBER_0_MEMBER_0_FILL">
<path fill="#000000" stroke="none" d="
M 400.75 210.3
L 395.4 209.95 395.1 215.15 400.45 215.5 400.75 210.3
M 424.95 211.7
L 419.65 211.35 419.3 216.55 424.65 216.85 424.95 211.7 Z"/>
</g>

<g id="Layer0_1_MEMBER_1_FILL">
<path fill="#494E56" stroke="none" d="
M 166.15 253.3
L 176.55 247.6 161.8 217.4 166.15 253.3
M 88.9 257.2
L 98.05 265.95 111.45 249 109.4 231.25 88.9 257.2
M 111.95 187.6
L 104.45 188.65 107.55 215.5 160.45 206.3 157.4 181.15 150.85 181.9 143.25 183.2 143.1 183.35 143 183.2 111.95 187.6 Z"/>

<path fill="#AAA699" stroke="none" d="
M 111.45 249
L 116.55 293.2 137.9 291.65 109.4 231.25 111.45 249
M 161.8 217.4
L 161.3 213.25 154.15 290.4 170.45 289.2 166.15 253.3 161.8 217.4 Z"/>

<path fill="#DEC8AF" stroke="none" d="
M 160.85 209.65
L 160.45 206.3 107.55 215.5 108.55 223.95 161.3 213.05 160.85 209.65 Z"/>

<path fill="#DE4330" stroke="none" d="
M 161.3 213.15
L 161.3 213.05 108.55 223.95 104 224.85 109.4 231.25 141.75 268.2 161.3 213.15
M 115.9 173.15
L 111.95 187.6 143 183.2 138.95 179.05 131.45 171.3 126.45 182.05 115.9 173.15 Z"/>

<path fill="#918E83" stroke="none" d="
M 161.3 213.25
L 161.3 213.15 141.75 268.2 109.4 231.25 137.9 291.65 154.15 290.4 161.3 213.25 Z"/>

<path fill="#9F3325" stroke="none" d="
M 161.3 213.15
L 161.3 213.25 161.8 217.4 170 219.95 166.75 205.95 160.85 209.65 161.3 213.05 161.3 213.15
M 143 183.2
L 143.1 183.35 143.25 183.2 150.85 181.9 144.4 170.15 138.95 179.05 143 183.2 Z"/>
</g>

<g id="Layer0_1_MEMBER_1_MEMBER_0_FILL">
<path fill="#FFFFFF" stroke="none" d="
M 123.1 217.9
L 122.25 212.8 116.95 213.45 117.85 218.7 123.1 217.9
M 147.85 208.9
L 142.5 209.6 143.35 214.85 148.75 214 147.85 208.9 Z"/>
</g>

<g id="Layer0_1_MEMBER_2_MEMBER_1_FILL">
<path fill="#929873" stroke="none" d="
M 209.55 281.7
L 234.05 280.4 230.15 220.4 209.55 281.7
M 178 283.4
L 195.5 282.45 174.9 224.85 178 283.4
M 227.75 183.25
L 227.75 183.1 227.3 176.35 210.5 177.45 172.45 179.85 174.9 224.85 179.1 224.5 176.75 187.1 222.3 183.5 224.55 220.85 230.15 220.4 227.75 183.25 Z"/>

<path fill="#70774F" stroke="none" d="
M 230.15 220.4
L 224.55 220.85 179.1 224.5 174.9 224.85 195.5 282.45 178 283.4 174.9 224.85 162.1 284.25 216.05 369.1 252 279.5 230.15 220.4 234.05 280.4 209.55 281.7 230.15 220.4 Z"/>

<path fill="#343943" stroke="none" d="
M 222.3 183.5
L 176.75 187.1 179.1 224.5 224.55 220.85 222.3 183.5 Z"/>

<path fill="#9F3325" stroke="none" d="
M 221.8 165.95
L 212.1 172.6 210.5 177.45 218.4 174.55 221.8 165.95 Z"/>

<path fill="#DE4330" stroke="none" d="
M 226.6 171.55
L 228.1 158.8 215.35 162.5 212.1 172.6 221.8 165.95 218.4 174.55 226.6 171.55 Z"/>
</g>

<g id="Layer0_1_MEMBER_2_MEMBER_1_MEMBER_0_FILL">
<path fill="#FFFFFF" stroke="none" d="
M 190.15 201.25
L 184.8 201.35 185.2 206.65 190.5 206.45 190.15 201.25
M 212.45 200.35
L 207.05 200.55 207.4 205.8 212.85 205.55 212.45 200.35 Z"/>
</g>

<g id="Layer0_1_MEMBER_3_FILL">
<path fill="#DE4330" stroke="none" d="
M 313.55 228.75
L 310.25 256.2 338.25 261.95 313.55 228.75
M 342.2 263.45
L 364.95 268.4 368.15 233.5 342.2 263.45
M 373.75 196.3
L 375.9 176.9 320.7 169.9 317 200.4 332 195.65 387.3 204.25 387.3 199.3 373.75 196.3 Z"/>

<path fill="#9F3325" stroke="none" d="
M 372.05 264.9
L 370.6 254.35 368.15 233.5 364.95 268.4 363.95 276.65 373.6 276.65 372.05 264.9
M 342.2 258.2
L 342.2 263.45 368.15 233.5 313.55 228.7 298.25 257.6 308.2 273.05 310.25 256.2 313.55 228.75 338.25 261.95 338.25 258.2 342.2 258.2
M 372.25 206.8
L 387.3 204.25 332 195.65 317 200.4 372.25 206.8 Z"/>

<path fill="#343943" stroke="none" d="
M 342.2 263.45
L 342.2 258.2 338.25 258.2 338.25 261.95 310.25 256.2 308.2 273.05 306.2 289.95 361.4 298.45 363.95 276.65 364.95 268.4 342.2 263.45 Z"/>

<path fill="#DEC8AF" stroke="none" d="
M 368.15 233.5
L 372.25 206.8 317 200.4 313.55 228.7 368.15 233.5
M 348 226.25
L 345.75 222.5 338.95 224.7 335.15 220.3 338.95 224.7 345.75 222.5 348 226.25 Z"/>

<path fill="#6B6F77" stroke="none" d="
M 381.3 232.7
L 383.8 226.2 374.45 231.95 375.95 242.45 370.6 254.35 372.05 264.9 382.95 245.95 392.3 243.6 392.3 230.45 387.4 236.45 381.3 232.7 Z"/>
</g>

<g id="Layer0_1_MEMBER_3_MEMBER_0_FILL">
<path fill="#000000" stroke="none" d="
M 335.6 213.65
L 336.4 207.55 330.75 206.7 329.95 212.8 335.6 213.65
M 359.9 211.05
L 354.2 210.2 353.4 216.3 359.1 217.15 359.9 211.05 Z"/>
</g>

<g id="Layer0_1_MEMBER_4_FILL">
<path fill="#343943" stroke="none" d="
M 241.25 210.6
L 232.85 211.3 240.8 235 241.15 222 241.25 210.6
M 303.8 233.4
L 294.75 234.15 292.25 267.45 271.3 297.3 265.7 277.65 243.2 320.6 239.8 274.35 194.6 367.55 359.75 369.45 303.8 233.4
M 295.75 220.6
L 295.7 221.6 300.15 221.2 296.6 209.6 296.05 217.45 297.6 217.35 295.75 220.6 Z"/>

<path fill="#9F3325" stroke="none" d="
M 294.75 234.15
L 288.2 234.65 265.7 277.65 271.3 297.3 292.25 267.45 294.75 234.15 Z"/>

<path fill="#494E56" stroke="none" d="
M 295.25 221.6
L 295.75 220.6 297.6 217.35 296.05 217.45 241.15 222 240.8 235 239.8 274.35 243.2 320.6 265.7 277.65 288.2 234.65 295.25 221.6 Z"/>

<path fill="#DEC8AF" stroke="none" d="
M 295.7 221.6
L 295.25 221.6 288.2 234.65 294.75 234.15 303.8 233.4 312.45 232.7 311.8 220.35 300.15 221.2 295.7 221.6
M 298.15 190.6
L 241.7 188.25 241.25 210.6 241.15 222 296.05 217.45 296.6 209.6 298.15 190.6 Z"/>

<path fill="#C6C1B6" stroke="none" d="
M 242.2 167.9
L 241.95 180.35 241.7 188.25 298.15 190.6 299.7 171.6 246.85 168.15 242.2 167.9 Z"/>

<path fill="#B4AB99" stroke="none" d="
M 236.15 159.9
L 225.95 186.65 241.95 180.35 242.2 167.9 246.85 168.15 236.15 159.9 Z"/>
</g>

<g id="Layer0_1_MEMBER_4_MEMBER_0_FILL">
<path fill="#FFFFFF" stroke="none" d="
M 260.3 199.65
L 253.25 199.15 254.85 205.15 260.35 205.15 260.3 199.65
M 284.75 205.3
L 287.2 199.7 279.25 199.9 279.25 205.35 284.75 205.3 Z"/>
</g>

<g id="Layer0_1_MEMBER_4_MEMBER_1_FILL">
<path fill="#B4E4FF" stroke="none" d="
M 309.95 226.9
L 308.5 228.25 309.9 229.65 311.3 228.25 309.95 226.9
M 318.95 229.65
L 323.2 225.4 319 221.2 314.7 225.4 318.95 229.65
M 295.3 215.45
L 292.4 218.3 295.25 221.1 298.1 218.25 295.3 215.45
M 317.85 217.2
L 309.4 208.75 300.95 217.2 309.4 225.65 317.85 217.2
M 305.85 199.4
L 307.25 198 305.9 196.65 304.45 198 305.85 199.4
M 318.8 205.95
L 317.35 207.3 318.8 208.75 320.2 207.35 318.8 205.95 Z"/>
</g>

<g id="Layer0_1_MEMBER_5_FILL">
<path fill="#AAA699" stroke="none" d="
M 529.6 361.55
L 530.4 355 534.85 316.85 511.75 359.45 529.6 361.55
M 479 316.8
L 474.5 355.05 511.75 359.45 495.25 337.95 488.15 348.8 497.15 312.4 486.4 306.55 479 316.8 Z"/>

<path fill="#918E83" stroke="none" d="
M 530.4 355
L 541.4 350.3 534.85 316.85 530.4 355
M 515.9 341.05
L 519.1 315 497.15 312.4 488.15 348.8 495.25 337.95 511.75 359.45 534.85 316.85 523.25 315.5 518.5 341.6 515.9 341.05 Z"/>

<path fill="#807E77" stroke="none" d="
M 523.25 315.5
L 519.1 315 515.9 341.05 518.5 341.6 523.25 315.5
M 485.1 264.65
L 479 316.8 486.4 306.55 497.15 312.4 500.25 285.85 495.65 285.3 496.65 277.05 501.25 277.6 502.5 266.7 485.1 264.65 Z"/>

<path fill="#9F3325" stroke="none" d="
M 544.45 282.7
L 543.55 290.4 549.5 291.1 550.4 283.4 544.45 282.7
M 495.65 285.3
L 500.25 285.85 503.9 286.3 504.9 278.05 501.25 277.6 496.65 277.05 495.65 285.3 Z"/>

<path fill="#DE4330" stroke="none" d="
M 503 262.65
L 502.5 266.7 501.25 277.6 504.9 278.05 503.9 286.3 500.25 285.85 497.15 312.4 519.1 315 523.25 315.5 534.85 316.85 540.35 317.5 543.55 290.4 544.45 282.7 546.25 267.55 503 262.65
M 513.35 285.6
L 514 280.1 538.8 283.05 538.15 288.55 513.35 285.6 Z"/>

<path fill="#343943" stroke="none" d="
M 514 280.1
L 513.35 285.6 538.15 288.55 538.8 283.05 514 280.1 Z"/>
</g>

<g id="Layer0_1_MEMBER_6_FILL">
<path fill="#BFB7B7" stroke="none" d="
M 4.1 329.85
L 7.5 337.6 10.85 332.05 4.1 329.85 Z"/>

<path fill="#C6AE93" stroke="none" d="
M 15.3 338.75
L 9.75 346.4 16.3 349.8 15.3 338.75
M 69 331.9
L 69.6 343.1 72.45 349.7 83.1 346.4 77.25 331.75 69 331.9 Z"/>

<path fill="#A87840" stroke="none" d="
M 14.2 326.5
L 14.2 326.55 15.3 338.75 16.3 349.8 17.75 366 25 359.05 40.4 359.05 30.85 343 13 313.4 14.2 326.5
M 69.6 343.1
L 69 331.9 68 313.4 43 359.05 62.3 359.05 70.6 361 69.6 343.1 Z"/>

<path fill="#D4CDCD" stroke="none" d="
M 10.85 332.05
L 14.2 326.55 14.2 326.5 -15 312.05 3.9 343.55 7.5 337.6 4.1 329.85 10.85 332.05 Z"/>

<path fill="#505868" stroke="none" d="
M 14.2 326.55
L 10.85 332.05 7.5 337.6 3.9 343.55 1.9 346.85 7.4 349.7 9.75 346.4 15.3 338.75 14.2 326.55 Z"/>

<path fill="#DEC8AF" stroke="none" d="
M 11.15 297.35
L 11.7 304.2 67.05 298.95 66.35 291.8 11.15 297.35 Z"/>

<path fill="#8E673A" stroke="none" d="
M 69 331.9
L 77.25 331.75 67.65 307.55 30.85 343 40.4 359.05 43 359.05 68 313.4 69 331.9 Z"/>

<path fill="#494E56" stroke="none" d="
M 67.65 307.55
L 67.05 298.95 11.7 304.2 7.9 304.6 13 313.4 30.85 343 67.65 307.55 Z"/>

<path fill="#343943" stroke="none" d="
M 67.65 307.55
L 76.55 314.9 73.45 292.85 67.05 298.95 67.65 307.55 Z"/>

<path fill="#DE4330" stroke="none" d="
M 51.7 259.6
L 54.55 251.45 8.55 265.95 11.15 297.35 66.35 291.8 64.35 259.6 51.7 259.6 Z"/>
</g>

<g id="Layer0_1_MEMBER_6_MEMBER_0_FILL">
<path fill="#000000" stroke="none" d="
M 48.15 293.75
L 42.75 294.3 43.25 299.7 48.65 299.15 48.15 293.75
M 25.15 295.7
L 19.7 296.2 20.25 301.55 25.65 301.05 25.15 295.7 Z"/>
</g>

<g id="Layer0_1_MEMBER_7_FILL">
<path fill="#DE4330" stroke="none" d="
M 75.8 332.85
L 79.55 357.85 130.5 359.35 129.15 346.65 122.85 348.65 119.15 326.8 75.8 332.85
M 118.75 265.3
L 116.5 265
Q 117.65 264.9 118.85 265
L 124.05 245.55 114.55 245.55 114.55 261.05 104 250.3 98 256.05 105.3 261.8 109.75 261.8 109.75 265.3 118.75 265.3 Z"/>

<path fill="#8A7B60" stroke="none" d="
M 64.9 340.15
L 60.2 345.85 64.5 363.55 68.9 363.55 64.9 340.15
M 52.5 313.7
L 53.65 318.5 53.7 318.6 53.65 318.6 55.85 327.75 60.05 311.85 60 311.75 52.5 313.7 Z"/>

<path fill="#9F8E6D" stroke="none" d="
M 55.85 327.75
L 56.85 331.95 62.3 325 60.05 311.85 55.85 327.75 Z"/>

<path fill="#AD9F87" stroke="none" d="
M 63.75 310.8
L 63.9 300.5 63.95 294.8 39.5 297.8 45.25 321.55 53.65 318.6 53.65 318.5 51.25 314.05 52.5 313.7 60 311.75 63.75 310.8
M 44.85 303.4
L 48.6 303.5 48.6 307.15 44.85 307.05 44.85 303.4 Z"/>

<path fill="#5F5953" stroke="none" d="
M 79 307.85
L 76.75 307.85 76.75 311.85 72.65 311.85 62.3 325 56.85 331.95 50.5 340.05 59.25 347.05 60.2 345.85 64.9 340.15 75.05 327.8 75.8 332.85 119.15 326.8 122.85 348.65 129.15 346.65 133.05 345.4 125.1 308.65 123.3 291.35 105.55 319.35 95.1 311.85 89.25 311.85 89.25 307.85 87 307.85 87 312.1 79 312.1 79 307.85 Z"/>

<path fill="#9F3325" stroke="none" d="
M 118.85 265
L 121.1 270.95
Q 125.55 273 129.5 275.75 135.35 279.85 136.9 283.25
L 141 283.25 141 279.5
Q 138.9 274.95 131.5 270 128.25 267.8 125.25 266.6
L 144.05 259.05 137.55 250.3 118.85 265
M 118.75 265.3
L 118.85 265
Q 117.65 264.9 116.5 265
L 118.75 265.3 Z"/>

<path fill="#E2D4BB" stroke="none" d="
M 109.75 261.8
L 105.3 261.8 63.95 261.8 63.95 294.8 63.9 300.5 63.95 307.85 68.75 307.85 68.75 311.85 72.65 311.85 76.75 311.85 76.75 307.85 79 307.85 79 312.1 87 312.1 87 307.85 89.25 307.85 89.25 311.85 95.1 311.85 97.25 311.85 97.25 307.85 109.75 307.85 109.75 265.3 109.75 261.8
M 88 287.35
L 95.45 287.5 95.55 293.9 88 293.9 88 287.35
M 70.5 287.85
L 77 287.85 77 294.15 70.5 294.15 70.5 287.85 Z"/>

<path fill="#4D463F" stroke="none" d="
M 77 287.85
L 70.5 287.85 70.5 294.15 77 294.15 77 287.85
M 95.45 287.5
L 88 287.35 88 293.9 95.55 293.9 95.45 287.5
M 118.85 265
L 118.75 265.3 109.75 265.3 109.75 307.85 97.25 307.85 97.25 311.85 95.1 311.85 105.55 319.35 123.3 291.35 121.1 270.95 118.85 265 Z"/>
</g>

<g id="Layer0_1_MEMBER_8_FILL">
<path fill="#343943" stroke="none" d="
M 496.15 334.8
L 493 338.4 495.6 340.5 498.65 338.05 496.15 334.8 Z"/>

<path fill="#588C2B" stroke="none" d="
M 492.65 286.65
L 486.8 286.65 486 298.05 492.65 286.65
M 432.7 338.65
L 433.55 307 416.85 349.7 427.25 352.15 432.7 338.65
M 434.3 287.2
L 424.75 287.2 433.8 299.75 434.3 287.2 Z"/>

<path fill="#8E673A" stroke="none" d="
M 472.45 338.6
L 433.55 307 456.6 359.5 472.45 338.6 Z"/>

<path fill="#494E56" stroke="none" d="
M 482.8 338.6
L 481.7 352.75 493.15 361.35 503.9 347.1 495.6 340.5 493 338.4 486.65 333.3 482.8 338.6 Z"/>

<path fill="#A87840" stroke="none" d="
M 433.55 307
L 432.7 338.65 432.15 359.5 456.6 359.5 433.55 307
M 482.8 338.6
L 484 323.35 478.4 343.4 472.45 338.6 456.6 359.5 481.15 359.5 481.7 352.75 482.8 338.6 Z"/>

<path fill="#9F3325" stroke="none" d="
M 433.8 299.75
L 427.8 299.75 427.8 311.5 433.55 307 433.8 299.75 Z"/>

<path fill="#DE4330" stroke="none" d="
M 478.4 343.4
L 484 323.35 490.2 299.75 485.85 299.75 433.8 299.75 433.55 307 472.45 338.6 478.4 343.4 Z"/>

<path fill="#689F3A" stroke="none" d="
M 435.2 264.3
L 434.3 287.2 433.8 299.75 485.85 299.75 486 298.05 486.8 286.65 488.3 265.9 435.2 264.3 Z"/>
</g>

<g id="Layer0_1_MEMBER_8_MEMBER_0_FILL">
<path fill="#494E56" stroke="none" d="
M 483.2 289.65
Q 483.3 290.2 483.3 290.75 483.3 292.7 481.9 294.2
L 486.2 294.2 486.7 289.65 483.2 289.65
M 459 290.75
Q 459 292.7 457.65 294.2
L 474.8 294.2
Q 473.45 292.7 473.45 290.75 473.45 290.2 473.55 289.65
L 458.9 289.65
Q 459 290.2 459 290.75
M 434.1 289.65
L 434.1 293.35 450.55 294.2
Q 449.15 292.7 449.15 290.75 449.15 290.2 449.25 289.65
L 434.1 289.65 Z"/>

<path fill="#609EC2" stroke="none" d="
M 474.8 294.2
L 474.85 294.25
Q 476.3 295.7 478.35 295.7 480.35 295.7 481.85 294.25
L 481.9 294.2
Q 483.3 292.7 483.3 290.75 483.3 290.2 483.2 289.65 482.95 288.3 481.85 287.25 480.35 285.75 478.35 285.75 476.3 285.75 474.85 287.25 473.8 288.3 473.55 289.65 473.45 290.2 473.45 290.75 473.45 292.7 474.8 294.2
M 450.6 294.25
Q 452.05 295.7 454.05 295.7 456.1 295.7 457.6 294.25
L 457.65 294.2
Q 459 292.7 459 290.75 459 290.2 458.9 289.65 458.65 288.3 457.6 287.25 456.1 285.75 454.05 285.75 452.05 285.75 450.6 287.25 449.5 288.3 449.25 289.65 449.15 290.2 449.15 290.75 449.15 292.7 450.55 294.2
L 450.6 294.25 Z"/>
</g>

<g id="Layer0_1_MEMBER_8_MEMBER_1_FILL">
<path fill="#FFCC00" fill-opacity="0.2" stroke="none" d="
M 510.7 335.1
L 498.05 322.45 485.5 335 498.15 347.65 510.7 335.1 Z"/>
</g>

<g id="Layer0_1_MEMBER_8_MEMBER_1_MEMBER_0_FILL">
<path fill="#FFCC00" fill-opacity="0.5019607843137255" stroke="none" d="
M 498.15 329
L 491.95 335.2 498.2 341.45 504.4 335.25 498.15 329 Z"/>
</g>

<g id="Layer0_1_MEMBER_9_FILL">
<path fill="#C6AE93" stroke="none" d="
M 185.25 330.65
L 170.55 333.85 174.4 350.8 182.9 349.25 188.8 348.2 185.25 330.65 Z"/>

<path fill="#DE4330" stroke="none" d="
M 181.2 310.6
L 165.6 312.05 166.75 316.95 153.2 354.8 183.15 354.8 182.9 349.25 174.4 350.8 170.55 333.85 185.25 330.65 181.2 310.6
M 131 329.9
L 131.2 330 134 354.8 144.8 354.8 129.8 315.95 131 329.9 Z"/>

<path fill="#BB994E" stroke="none" d="
M 165.75 257.55
L 168.7 268.2 169.8 257.85 165.75 257.55
M 135.6 254.8
L 139.2 268.95 140.2 255.2 135.6 254.8
M 155.05 256.6
L 150.95 256.2 153.4 263.1 155.05 256.6 Z"/>

<path fill="#DEC8AF" stroke="none" d="
M 118.8 299.6
L 116.25 312.7 127.6 299.55 118.8 299.6
M 128.4 305.7
L 128.4 305.75 129.55 315.3 165.6 312.05 181.2 310.6 180 280.25 180 280.5 125.6 282.7 127.65 299.55 128.4 305.7
M 141 285.8
L 133.8 284.4 141 285.8
M 147 307.2
L 149.8 303.4 156.8 305.8 149.8 303.4 147 307.2
M 156.4 285
L 163.8 283.4 156.4 285 Z"/>

<path fill="#9F3325" stroke="none" d="
M 128.4 305.75
L 127.4 306.85 115.05 322.45 131 329.9 129.8 315.95 144.8 354.8 153.2 354.8 166.75 316.95 165.6 312.05 129.55 315.3 128.4 305.75 Z"/>

<path fill="#505868" stroke="none" d="
M 127.65 299.55
L 127.6 299.55 116.25 312.7 96.4 335.6 101.2 339.5 115.05 322.45 127.4 306.85 128.4 305.7 127.65 299.55 Z"/>

<path fill="#646E80" stroke="none" d="
M 124.75 274.75
Q 124.6708984375 273.76484375 124.55 272.75
L 123.85 266.85 110.4 280 127.65 299.55 125.6 282.7 125.6 282.65
Q 125.1857421875 278.7044921875 124.75 274.75 Z"/>

<path fill="#CDA64F" stroke="none" d="
M 153.4 263.1
L 150.95 256.2 140.2 255.2 139.2 268.95 135.6 254.8 122.4 253.6 123.85 266.85 124.55 272.75
Q 124.6708984375 273.76484375 124.75 274.75 125.1857421875 278.7044921875 125.6 282.65
L 125.6 282.7 180 280.5 180 280.25 179.4 266.4 183.75 266.4 183.75 259.2 169.8 257.85 168.7 268.2 165.75 257.55 155.05 256.6 153.4 263.1 Z"/>
</g>

<g id="Layer0_1_MEMBER_9_MEMBER_0_FILL">
<path fill="#000000" stroke="none" d="
M 140.9 290.1
L 135.55 290.35 135.8 295.6 141.15 295.35 140.9 290.1
M 157.65 289.4
L 157.9 294.65 163.3 294.4 163.05 289.15 157.65 289.4 Z"/>
</g>

<g id="Layer0_1_MEMBER_10_MEMBER_0_MEMBER_0_FILL">
<path fill="url(#Gradient_2)" stroke="none" d="
M 417.15 305.6
L 410.75 323.35 445.65 335.7 417.15 305.6 Z"/>

<path fill="#878791" stroke="none" d="
M 445.65 335.7
L 463.4 322 417.15 305.6 445.65 335.7
M 356.65 304.15
L 402.9 320.55 374.4 290.45 356.65 304.15 Z"/>

<path fill="url(#Gradient_3)" stroke="none" d="
M 402.9 320.55
L 409.3 302.85 374.4 290.45 402.9 320.55 Z"/>
</g>

<g id="Layer0_1_MEMBER_10_MEMBER_1_FILL">
<path fill="#9F3325" stroke="none" d="
M 406 356.6
L 410 356.6 428.25 319.3 384.75 313.55 406 356.6 Z"/>

<path fill="#DE4330" stroke="none" d="
M 410 356.6
L 424.7 356.6 425 353.4 428.25 319.3 410 356.6
M 384.75 313.55
L 375.85 323.3 374 356.6 406 356.6 384.75 313.55 Z"/>

<path fill="#494E56" stroke="none" d="
M 425 353.4
L 433.6 350.5 428.25 319.3 425 353.4
M 383.8 293.1
L 377.5 292.2 377.3 297 376.6 309.95 384.7 313.55 384.75 313.55 428.25 319.3 430.05 299.95 399.25 296.3 399.2 296.3 398.45 296.9
Q 392.7 301.3 387 305.75
L 383.8 293.1 Z"/>

<path fill="#343943" stroke="none" d="
M 376.6 309.95
L 367.25 305.8 365.85 319.45 375.85 323.3 384.75 313.55 384.7 313.55 376.6 309.95 Z"/>

<path fill="#665953" stroke="none" d="
M 377.5 292.2
L 383.8 293.1 378.65 272.65 379 266.25 371.5 264.05 367.5 303 377.3 297 377.5 292.2 Z"/>

<path fill="#77665F" stroke="none" d="
M 417.4 282.25
L 431.55 283.85 433.6 264.9 379.6 259.8 379 266.25 378.65 272.65 383.8 293.1 387 305.75
Q 392.7 301.3 398.45 296.9
L 399.2 296.3 399.25 296.3 417.4 282.25 Z"/>

<path fill="#DEC8AF" stroke="none" d="
M 431.55 283.85
L 417.4 282.25 399.25 296.3 430.05 299.95 431.55 283.85
M 418.1 288.45
L 422.9 287.75 425 287.35 422.9 287.75 422.9 294.85 418.1 294.85 418.1 288.45 Z"/>

<path fill="#000000" stroke="none" d="
M 422.9 287.75
L 418.1 288.45 418.1 294.85 422.9 294.85 422.9 287.75 Z"/>
</g>

<g id="Layer0_1_MEMBER_11_FILL">
<path fill="#DE4330" stroke="none" d="
M 315.6 349.6
L 308.95 348.05 308.6 354.8 340.8 354.8 320.75 313.3 315.6 349.6
M 343.45 354.8
L 362.75 354.8 366.65 317.2 343.45 354.8 Z"/>

<path fill="#343943" stroke="none" d="
M 310.7 312.35
L 310.7 312.6 303.1 346.7 308.95 348.05 315.6 349.6 320.75 313.3 320.75 313.25 310.7 312.35
M 354.65 283.8
L 354.65 283.85 370 285 378.4 285.6 370.65 279.1 312.5 275.55 307.45 280.4 312.25 280.75 323.4 281.45 354.5 283.85 354.65 283.8 Z"/>

<path fill="#494E56" stroke="none" d="
M 323.4 281.45
L 312.25 280.75 310.7 312.35 320.75 313.25 323.4 281.45
M 371.4 350
L 366.65 317.2 362.75 354.8 371.4 350
M 370.65 279.1
L 372.95 256.4 313.65 251.6 312.5 275.55 370.65 279.1
M 354.65 283.85
L 354.65 283.8 354.5 283.85 354.65 283.85 Z"/>

<path fill="#9F3325" stroke="none" d="
M 340.8 354.8
L 343.45 354.8 366.65 317.2 320.75 313.25 320.75 313.3 340.8 354.8 Z"/>

<path fill="#C9C3BA" stroke="none" d="
M 354.65 283.85
L 354.65 283.9 354.65 283.95 354.5 283.85 323.4 281.45 320.75 313.25 366.65 317.2 370 285 354.65 283.85
M 352.65 283.85
L 352.65 283.9 352.65 283.95 352.65 283.85 Z"/>
</g>

<g id="Layer0_1_MEMBER_11_MEMBER_0_FILL">
<path fill="#609EC2" stroke="none" d="
M 359.95 296.9
Q 361.85 296.9 363.25 295.55 364.6 294.15 364.6 292.25 364.6 290.35 363.25 289 361.85 287.6 359.95 287.6 358.05 287.6 356.7 289 355.35 290.35 355.35 292.25 355.35 294.15 356.7 295.55 358.05 296.9 359.95 296.9
M 342.5 294.05
Q 343.9 292.7 343.9 290.8 343.9 288.9 342.5 287.5 341.15 286.15 339.25 286.15 337.35 286.15 336 287.5 334.6 288.9 334.6 290.8 334.6 292.7 336 294.05 337.35 295.45 339.25 295.45 341.15 295.45 342.5 294.05 Z"/>
</g>

<g id="Layer0_1_MEMBER_11_MEMBER_1_FILL">
<path fill="#E9DECE" stroke="none" d="
M 352.75 286.65
L 352.75 286.7 343.85 306 362.85 309.25 352.75 286.65 Z"/>
</g>

<g id="Layer0_1_MEMBER_12_FILL">
<path fill="#DE4330" stroke="none" d="
M 200.3 337.85
L 193.3 353.3 208.2 353.45 200.3 337.85
M 200.3 337.85
L 200.25 337.75 190.45 342.05 191.35 353.3 193.3 353.3 200.3 337.85
M 188.1 310.8
L 187.85 310.45 188.15 314.05 182.95 320 189.15 326.4 189.45 329.55 194.8 327 188.1 310.8
M 187.85 310.45
L 188.1 310.8 187.8 310.1 187.85 310.45
M 221.2 314.65
L 203.8 322.8 209.55 333.65 228.85 325.15 208.2 353.45 243.1 353.75 241.2 308.2 229.1 324.85 221.2 314.65
M 183.8 258.35
L 185.35 276.7 239.9 272.45 239.05 256.45 183.8 258.35 Z"/>

<path fill="#9F3325" stroke="none" d="
M 200.3 337.85
L 200.4 337.7 200.25 337.75 200.3 337.85
M 194.8 327
L 199.3 324.9 188.1 310.8 194.8 327
M 228.85 325.15
L 209.55 333.65 200.65 337.55 200.4 337.7 200.3 337.85 208.2 353.45 228.85 325.15
M 203.8 322.8
L 221.2 314.65 229.1 324.85 241.2 308.2 187.8 310.1 188.1 310.8 199.3 324.9 203.8 322.8
M 246.5 282.1
L 246.45 268.7 239.9 272.45 240.25 278.25 246.5 282.1 Z"/>

<path fill="#C6AE93" stroke="none" d="
M 173.15 334.75
L 172.25 332.3 171.55 333.1 173.15 334.75
M 176.65 327.2
Q 178.98671875 334.73984375 182.1 339.95
L 187.3 333.4 186.5 330.95 189.45 329.55 189.15 326.4 182.95 320 176.65 327.2 Z"/>

<path fill="#DEC8AF" stroke="none" d="
M 209.55 333.65
L 203.8 322.8 199.3 324.9 194.8 327 189.45 329.55 186.5 330.95 187.3 333.4 190.45 342.05 200.25 337.75 200.4 337.7 200.65 337.55 209.55 333.65
M 191.2 292.2
L 190.9 289.05 186.25 289.4 187.8 310.1 241.2 308.2 240.4 285.35 216.5 286.85 216.8 290.4 210.8 290.85 210.45 287.2 210.45 287.3 195.6 288.65 195.95 291.9 191.2 292.2
M 202.85 304.05
L 211.55 299.55 202.85 304.05 Z"/>

<path fill="#000000" stroke="none" d="
M 210.45 287.2
L 210.8 290.85 216.8 290.4 216.5 286.85 216.5 286.75 210.45 287.2
M 190.9 289.05
L 191.2 292.2 195.95 291.9 195.6 288.65 190.9 289.05 Z"/>

<path fill="#877B61" stroke="none" d="
M 171.85 290.3
L 167.75 290.3
Q 165.4 314.35 172.25 332.3
L 173.15 334.75
Q 177.3 343.3 181.65 349.75 186 356.15 190.3 359.85
L 192.05 356
Q 188.25 351.5 182.1 339.95 178.98671875 334.73984375 176.65 327.2 170.95 311 171.85 290.3 Z"/>

<path fill="#494E56" stroke="none" d="
M 186.25 289.4
L 190.9 289.05 195.6 288.65 210.45 287.3 210.45 287.2 216.5 286.75 216.5 286.85 240.4 285.35 240.25 278.25 239.9 272.45 185.35 276.7 186.25 289.4 Z"/>
</g>

<g id="Layer0_1_MEMBER_13_FILL">
<path fill="#9F3325" stroke="none" d="
M 248 314.25
L 277.5 355.45 303.1 312.25 248 314.25 Z"/>

<path fill="#DEC8AF" stroke="none" d="
M 303.1 325.1
L 303.1 338 306.6 345.75 315.8 339.85 308.2 320.7 303.1 325.1
M 230.2 324.7
L 226.95 327.75 221.3 332.95 230.25 342.3 230.45 342.15 234.5 338.3 243.45 329.9 238.15 319.7 238.35 322.65 230.2 324.7
M 246.2 292.25
L 246.1 290.65 247.65 308.4 248 314.25 303.1 312.25 303.1 307.65 303.1 277.4 245.15 280.6 246.2 292.25
M 288.45 297.7
L 288.4 305.55 270.3 306.65 288.45 297.7 Z"/>

<path fill="#DE4330" stroke="none" d="
M 303.1 307.65
L 303.1 312.25 277.5 355.45 303.1 355.45 303.1 338 303.1 325.1 308.2 320.7 303.1 307.65
M 237.95 317.5
L 238.15 319.7 243.45 329.9 249.15 324.6 251.85 355.45 277.5 355.45 248 314.25 247.65 308.4 237.95 317.5 Z"/>

<path fill="url(#Gradient_4)" stroke="none" d="
M 220.85 319
L 233.8 315.3 226.15 257.45 220.85 319 Z"/>

<path fill="#646E80" stroke="none" d="
M 230.45 342.15
L 230.8 343.6 235.4 342.55 234.5 338.3 230.45 342.15
M 230.2 324.7
L 226.4 325.6 226.95 327.75 230.2 324.7 Z"/>

<path fill="#505868" stroke="none" d="
M 238.15 319.7
L 237.95 317.5 237.7 314.1 233.8 315.3 220.85 319 217.15 320.15 218.75 327.4 226.4 325.6 230.2 324.7 238.35 322.65 238.15 319.7 Z"/>

<path fill="#D4CDCD" stroke="none" d="
M 214.65 250.85
L 208.55 261.5 220.85 319 226.15 257.45 214.65 250.85 Z"/>

<path fill="#77665F" stroke="none" d="
M 309.8 266.05
L 309.8 256.7 254.85 256.75 253.1 246.75 242.55 249.5 245.15 280.6 303.1 277.4 303.1 266.3 309.8 266.05 Z"/>

<path fill="#FFFFFF" stroke="none" d="
M 288.4 305.55
L 288.45 297.7 270.3 306.65 288.4 305.55 Z"/>
</g>

<g id="Layer0_1_MEMBER_13_MEMBER_0_FILL">
<path fill="#000000" stroke="none" d="
M 290.1 286.8
L 283.95 286.8 283.95 292.95 290.1 292.95 290.1 286.8
M 264.75 286.8
L 258.6 286.8 258.6 292.95 264.75 292.95 264.75 286.8 Z"/>
</g>

<g id="Layer0_2_MEMBER_0_FILL">
<path fill="#FFFFFF" stroke="none" d="
M 201.75 31.35
Q 200.4 29.9 197.75 29.1 194.95 28.2 191.25 28.2
L 177.3 28.2 177.3 64.45 192.95 64.45
Q 200.65 64.45 203.6 61 206.25 58.2 206.25 54.35 206.25 50.9 204.25 48.65 202.25 46.4 198.8 45.6 199.75 45.05 200.15 44.9 200.55 44.8 201.35 44 204.25 42 204.25 37.75 204.25 34.15 201.75 31.35
M 185.25 34.95
L 189.1 34.95
Q 192.85 34.95 194.3 35.75 195.9 36.55 195.9 38.95 195.9 41.35 194.15 42.15 192.55 42.95 189.1 42.95
L 185.25 42.95 185.25 34.95
M 185.25 49.2
L 190.05 49.2
Q 194.15 49.2 196 50.1 197.9 50.75 197.9 53.3 197.9 55.95 196 56.75 194.4 57.55 190.95 57.55
L 185.25 57.55 185.25 49.2
M 217.95 37.1
L 219.15 37.1 219.15 35.1 216.1 35.1 216.1 25.8 211.95 25.8 211.95 35.1 209.05 35.1 209.05 37.1 210.25 37.1 210.25 64.45 214.1 68.3 217.95 64.45 217.95 37.1
M 247.05 60.75
Q 251.3 56.6 251.3 50.5 251.3 44.4 247.05 40.3 242.8 36 236.4 36 230.05 36 225.9 40.3 221.65 44.4 221.65 50.5 221.65 56.6 225.9 60.75 230.05 64.85 236.4 64.85 242.8 64.85 247.05 60.75
M 236.4 42.65
Q 239.45 42.65 241.45 44.9 243.3 46.9 243.3 50.5 243.3 53.95 241.45 56.1 239.45 58.2 236.4 58.2 233.35 58.2 231.5 56.1 229.5 53.95 229.5 50.5 229.5 46.9 231.5 44.9 233.35 42.65 236.4 42.65
M 268 36
Q 262.05 36 257.65 40 253.25 44 253.25 50.5 253.25 56.9 257.65 60.85 261.9 64.85 268.3 64.85 274.55 64.85 280 59.25
L 275.35 54.1
Q 272.15 57.95 268.3 57.95 265.25 57.95 262.95 55.95 261 54.1 261 50.5 261 46.9 262.95 44.9 265.25 42.95 268.4 42.95 270.3 42.95 272.25 43.75 274.25 44.65 275.6 46.25
L 279.6 41.05
Q 277.3 38.55 274.25 37.2 271.1 36 268 36
M 290.85 45.6
L 290.85 25.8 283.05 25.8 283.05 64.45 290.85 64.45 290.85 56.35 293.4 53.85 300.55 64.45 309.75 64.45 298.7 47.7 309.45 36.4 299.65 36.4 290.85 45.6
M 334.3 39.5
Q 330.35 36 324.6 36 318.75 36 314.65 39.9 310.25 43.75 310.25 50.5 310.25 57 314.5 61 318.65 64.85 325 64.85 331.4 64.85 336.15 60.45
L 331.65 55.7
Q 329.15 58.5 325 58.5 322.5 58.5 320.35 56.9 318.35 55.55 317.95 53.15
L 338.45 53.15 338.45 49.05
Q 338.45 42.95 334.3 39.5
M 328.75 43.75
Q 330.35 45.05 330.6 47.7
L 318.25 47.7
Q 318.5 45.2 320.5 43.85 322.5 42.4 324.75 42.4 327.15 42.4 328.75 43.75
M 372.7 39.6
L 372.7 36.3 345.75 36.3 345.75 32.45 342.55 32.45 342.55 64.45 369.25 64.45 369.25 39.6 372.7 39.6
M 346.8 46.4
L 346.8 45.3 351.3 45.3 351.3 46.4 346.8 46.4
M 347.35 48.1
L 350.8 48.1 350.8 51.55 347.35 51.55 347.35 48.1
M 364.45 46.4
L 359.7 46.4 359.7 45.3 364.45 45.3 364.45 46.4
M 360.35 48.1
L 363.95 48.1 363.95 51.55 360.35 51.55 360.35 48.1 Z"/>
</g>

<path id="Layer0_1_MEMBER_0_1_STROKES" stroke="#CDA64F" stroke-width="3" stroke-linejoin="miter" stroke-linecap="square" stroke-miterlimit="3" fill="none" d="
M 418.6 207.4
L 427.2 207.15
M 393.9 204.15
L 402.5 206.9"/>

<path id="Layer0_1_MEMBER_2_MEMBER_0_1_STROKES" stroke="#9F8E6D" stroke-width="7" stroke-linejoin="miter" stroke-linecap="butt" stroke-miterlimit="3" fill="none" d="
M 174.8 262.9
L 164.75 235.2 169.2 221.7 157.2 212.8 148 224.95 156.65 232.15 159.9 221.7"/>

<path id="Layer0_1_MEMBER_3_1_STROKES" stroke="#C9B196" stroke-width="2" stroke-linejoin="miter" stroke-linecap="square" stroke-miterlimit="3" fill="none" d="
M 348 226.25
L 345.75 222.5 338.95 224.7 335.15 220.3"/>

<path id="Layer0_1_MEMBER_3_MEMBER_0_1_STROKES" stroke="#62524B" stroke-width="3" stroke-linejoin="miter" stroke-linecap="square" stroke-miterlimit="3" fill="none" d="
M 354 207.3
L 361.4 207.3
M 337.8 204.55
L 330.65 202.05"/>

<path id="Layer0_1_MEMBER_4_MEMBER_0_1_STROKES" stroke="#79665D" stroke-width="3" stroke-linejoin="miter" stroke-linecap="square" stroke-miterlimit="3" fill="none" d="
M 261.55 196.9
L 253.45 193.5
M 278.3 196.95
L 285.8 193"/>

<path id="Layer0_1_MEMBER_8_MEMBER_0_1_STROKES" stroke="#E7E7E7" stroke-width="3" stroke-linejoin="miter" stroke-linecap="round" stroke-miterlimit="3" fill="none" d="
M 450.55 294.2
Q 449.15 292.7 449.15 290.75 449.15 290.2 449.25 289.65 449.5 288.3 450.6 287.25 452.05 285.75 454.05 285.75 456.1 285.75 457.6 287.25 458.65 288.3 458.9 289.65
M 473.55 289.65
Q 473.8 288.3 474.85 287.25 476.3 285.75 478.35 285.75 480.35 285.75 481.85 287.25 482.95 288.3 483.2 289.65
M 481.9 294.2
L 481.85 294.25
Q 480.35 295.7 478.35 295.7 476.3 295.7 474.85 294.25
L 474.8 294.2
M 457.65 294.2
L 457.6 294.25
Q 456.1 295.7 454.05 295.7 452.05 295.7 450.6 294.25
L 450.55 294.2
M 458.9 289.65
Q 459 290.2 459 290.75 459 292.7 457.65 294.2
M 474.8 294.2
Q 473.45 292.7 473.45 290.75 473.45 290.2 473.55 289.65
M 483.2 289.65
Q 483.3 290.2 483.3 290.75 483.3 292.7 481.9 294.2"/>

<path id="Layer0_1_MEMBER_9_1_STROKES" stroke="#62524B" stroke-width="3" stroke-linejoin="miter" stroke-linecap="square" stroke-miterlimit="3" fill="none" d="
M 141 285.8
L 133.8 284.4
M 156.4 285
L 163.8 283.4"/>

<path id="Layer0_1_MEMBER_9_2_STROKES" stroke="#C6AE93" stroke-width="2" stroke-linejoin="miter" stroke-linecap="square" stroke-miterlimit="3" fill="none" d="
M 147 307.2
L 149.8 303.4 156.8 305.8"/>

<path id="Layer0_1_MEMBER_10_MEMBER_0_MEMBER_1_MEMBER_0_1_STROKES" stroke="#646E80" stroke-width="7" stroke-linejoin="miter" stroke-linecap="square" stroke-miterlimit="3" fill="none" d="
M 401.2 310.05
L 406.95 322.15 419.3 316.45 413.3 304.3 401.2 310.05 Z"/>

<path id="Layer0_1_MEMBER_10_MEMBER_1_1_STROKES" stroke="#62524B" stroke-width="3" stroke-linejoin="miter" stroke-linecap="square" stroke-miterlimit="3" fill="none" d="
M 418.1 288.45
L 422.9 287.75 425 287.35"/>

<path id="Layer0_1_MEMBER_11_MEMBER_0_1_STROKES" stroke="#494E56" stroke-width="3" stroke-linejoin="miter" stroke-linecap="square" stroke-miterlimit="3" fill="none" d="
M 343.9 290.8
Q 343.9 292.7 342.5 294.05 341.15 295.45 339.25 295.45 337.35 295.45 336 294.05 334.6 292.7 334.6 290.8 334.6 288.9 336 287.5 337.35 286.15 339.25 286.15 341.15 286.15 342.5 287.5 343.9 288.9 343.9 290.8 Z
M 364.6 292.25
Q 364.6 294.15 363.25 295.55 361.85 296.9 359.95 296.9 358.05 296.9 356.7 295.55 355.35 294.15 355.35 292.25 355.35 290.35 356.7 289 358.05 287.6 359.95 287.6 361.85 287.6 363.25 289 364.6 290.35 364.6 292.25 Z"/>

<path id="Layer0_1_MEMBER_12_1_STROKES" stroke="#C6AE93" stroke-width="2" stroke-linejoin="miter" stroke-linecap="square" stroke-miterlimit="3" fill="none" d="
M 202.85 304.05
L 211.55 299.55"/>

<path id="Layer0_1_MEMBER_12_2_STROKES" stroke="#CCCCCC" stroke-width="1" stroke-linejoin="miter" stroke-linecap="square" stroke-miterlimit="3" fill="none" d="
M 193.3 353.3
L 192.05 356 190.3 359.85 189.3 362.05
M 200.3 337.85
L 193.3 353.3
M 171.85 290.3
L 187.85 310.45
M 199.3 324.9
L 188.1 310.8 187.85 310.45
M 200.65 337.55
L 200.4 337.7 200.3 337.85"/>

<path id="Layer0_1_MEMBER_13_MEMBER_1_1_STROKES" stroke="#62524B" stroke-width="3" stroke-linejoin="miter" stroke-linecap="square" stroke-miterlimit="3" fill="none" d="
M 264.95 282.75
L 255.4 280.05
M 285.15 281.25
L 294.15 277.9"/>

<path id="Layer0_2_MEMBER_1_1_STROKES" stroke="#FFFFFF" stroke-width="5" stroke-linejoin="miter" stroke-linecap="butt" stroke-miterlimit="3" fill="none" d="
M 281.35 84.25
L 316.5 84.25 316.5 119.4 294.8 119.4 294.8 127.8 316.5 127.8 316.5 141.3 281.35 141.3 281.35 105.9 303 105.9 303 97.7 281.35 97.7 281.35 84.25 Z
M 233.15 123.55
L 251.3 141.85 270.45 122.7 270.45 84.25 255.95 84.25 255.95 115.3 251.3 119.95 246.75 115.3 246.75 84.25 233.15 84.25 233.15 123.55 Z"/>
</defs>

<g transform="matrix( 1, 0, 0, 1, 0,0) ">
<use xlink:href="#Layer0_0_FILL"/>
</g>

<g transform="matrix( 1, 0, 0, 1, 0,0) ">
<use xlink:href="#Layer0_1_MEMBER_0_FILL"/>

<use xlink:href="#Layer0_1_MEMBER_0_1_STROKES"/>
</g>

<g transform="matrix( 1, 0, 0, 1, 0,0) ">
<use xlink:href="#Layer0_1_MEMBER_0_MEMBER_0_FILL"/>
</g>

<g transform="matrix( 1, 0, 0, 1, 0,0) ">
<use xlink:href="#Layer0_1_MEMBER_1_FILL"/>
</g>

<g transform="matrix( 1, 0, 0, 1, 0,0) ">
<use xlink:href="#Layer0_1_MEMBER_1_MEMBER_0_FILL"/>
</g>

<g transform="matrix( 1, 0, 0, 1, 0,0) ">
<use xlink:href="#Layer0_1_MEMBER_2_MEMBER_0_1_STROKES"/>
</g>

<g transform="matrix( 1, 0, 0, 1, 0,0) ">
<use xlink:href="#Layer0_1_MEMBER_2_MEMBER_1_FILL"/>
</g>

<g transform="matrix( 1, 0, 0, 1, 0,0) ">
<use xlink:href="#Layer0_1_MEMBER_2_MEMBER_1_MEMBER_0_FILL"/>
</g>

<g transform="matrix( 1, 0, 0, 1, 0,0) ">
<use xlink:href="#Layer0_1_MEMBER_3_FILL"/>

<use xlink:href="#Layer0_1_MEMBER_3_1_STROKES"/>
</g>

<g transform="matrix( 1, 0, 0, 1, 0,0) ">
<use xlink:href="#Layer0_1_MEMBER_3_MEMBER_0_FILL"/>

<use xlink:href="#Layer0_1_MEMBER_3_MEMBER_0_1_STROKES"/>
</g>

<g transform="matrix( 1, 0, 0, 1, 0,0) ">
<use xlink:href="#Layer0_1_MEMBER_4_FILL"/>
</g>

<g transform="matrix( 1, 0, 0, 1, 0,0) ">
<use xlink:href="#Layer0_1_MEMBER_4_MEMBER_0_FILL"/>

<use xlink:href="#Layer0_1_MEMBER_4_MEMBER_0_1_STROKES"/>
</g>

<g transform="matrix( 1, 0, 0, 1, 0,0) ">
<use xlink:href="#Layer0_1_MEMBER_4_MEMBER_1_FILL"/>
</g>

<g transform="matrix( 1, 0, 0, 1, 0,0) ">
<use xlink:href="#Layer0_1_MEMBER_5_FILL"/>
</g>

<g transform="matrix( 1, 0, 0, 1, 0,0) ">
<use xlink:href="#Layer0_1_MEMBER_6_FILL"/>
</g>

<g transform="matrix( 1, 0, 0, 1, 0,0) ">
<use xlink:href="#Layer0_1_MEMBER_6_MEMBER_0_FILL"/>
</g>

<g transform="matrix( 1, 0, 0, 1, 0,0) ">
<use xlink:href="#Layer0_1_MEMBER_7_FILL"/>
</g>

<g transform="matrix( 1, 0, 0, 1, 0,0) ">
<use xlink:href="#Layer0_1_MEMBER_8_FILL"/>
</g>

<g transform="matrix( 1, 0, 0, 1, 0,0) ">
<use xlink:href="#Layer0_1_MEMBER_8_MEMBER_0_FILL"/>

<use xlink:href="#Layer0_1_MEMBER_8_MEMBER_0_1_STROKES"/>
</g>

<g transform="matrix( 1, 0, 0, 1, 0,0) ">
<use xlink:href="#Layer0_1_MEMBER_8_MEMBER_1_FILL"/>
</g>

<g transform="matrix( 1, 0, 0, 1, 0,0) ">
<use xlink:href="#Layer0_1_MEMBER_8_MEMBER_1_MEMBER_0_FILL"/>
</g>

<g transform="matrix( 1, 0, 0, 1, 0,0) ">
<use xlink:href="#Layer0_1_MEMBER_9_FILL"/>

<use xlink:href="#Layer0_1_MEMBER_9_1_STROKES"/>

<use xlink:href="#Layer0_1_MEMBER_9_2_STROKES"/>
</g>

<g transform="matrix( 1, 0, 0, 1, 0,0) ">
<use xlink:href="#Layer0_1_MEMBER_9_MEMBER_0_FILL"/>
</g>

<g transform="matrix( 1, 0, 0, 1, 0,0) ">
<use xlink:href="#Layer0_1_MEMBER_10_MEMBER_0_MEMBER_0_FILL"/>
</g>

<g transform="matrix( 1, 0, 0, 1, 0,0) ">
<use xlink:href="#Layer0_1_MEMBER_10_MEMBER_0_MEMBER_1_MEMBER_0_1_STROKES"/>
</g>

<g transform="matrix( 1, 0, 0, 1, 0,0) ">
<use xlink:href="#Layer0_1_MEMBER_10_MEMBER_1_FILL"/>

<use xlink:href="#Layer0_1_MEMBER_10_MEMBER_1_1_STROKES"/>
</g>

<g transform="matrix( 1, 0, 0, 1, 0,0) ">
<use xlink:href="#Layer0_1_MEMBER_11_FILL"/>
</g>

<g transform="matrix( 1, 0, 0, 1, 0,0) ">
<use xlink:href="#Layer0_1_MEMBER_11_MEMBER_0_FILL"/>

<use xlink:href="#Layer0_1_MEMBER_11_MEMBER_0_1_STROKES"/>
</g>

<g transform="matrix( 1, 0, 0, 1, 0,0) ">
<use xlink:href="#Layer0_1_MEMBER_11_MEMBER_1_FILL"/>
</g>

<g transform="matrix( 1, 0, 0, 1, 0,0) ">
<use xlink:href="#Layer0_1_MEMBER_12_FILL"/>

<use xlink:href="#Layer0_1_MEMBER_12_1_STROKES"/>

<use xlink:href="#Layer0_1_MEMBER_12_2_STROKES"/>
</g>

<g transform="matrix( 1, 0, 0, 1, 0,0) ">
<use xlink:href="#Layer0_1_MEMBER_13_FILL"/>
</g>

<g transform="matrix( 1, 0, 0, 1, 0,0) ">
<use xlink:href="#Layer0_1_MEMBER_13_MEMBER_0_FILL"/>
</g>

<g transform="matrix( 1, 0, 0, 1, 0,0) ">
<use xlink:href="#Layer0_1_MEMBER_13_MEMBER_1_1_STROKES"/>
</g>

<g transform="matrix( 1, 0, 0, 1, 0,0) ">
<use xlink:href="#Layer0_2_MEMBER_0_FILL"/>
</g>

<g transform="matrix( 1, 0, 0, 1, 0,0) ">
<use xlink:href="#Layer0_2_MEMBER_1_1_STROKES"/>
</g>
</svg>
