
<svg xmlns="http://www.w3.org/2000/svg" version="1.1" xmlns:xlink="http://www.w3.org/1999/xlink" preserveAspectRatio="none" x="0px" y="0px" width="960px" height="160px" viewBox="0 0 960 160">
<defs>
<g id="Layer2_0_FILL">
<path fill="#689F3A" stroke="none" d="
M 75.1 51.1
L 70.5 59 78.45 63.55 82.95 55.7 75.1 51.1 Z"/>
</g>

<g id="Layer2_1_FILL">
<path fill="#689F3A" stroke="none" d="
M 59.9 100.1
L 66.2 106.6 72.75 100.25 66.45 93.75 59.9 100.1 Z"/>
</g>

<g id="Layer2_2_FILL">
<path fill="#727157" stroke="none" d="
M 101.35 94.5
L 92.25 94.5 92.25 101.1 101.35 101.1 101.35 94.5
M 101.35 65.5
L 101.35 58.9 92.25 58.9 92.25 65.5 101.35 65.5 Z"/>

<path fill="#696853" stroke="none" d="
M 92.25 92
L 92.25 94.5 101.35 94.5 101.35 92 92.25 92
M 101.35 68
L 101.35 65.5 92.25 65.5 92.25 68 101.35 68 Z"/>

<path fill="#7E785C" stroke="none" d="
M 105.25 68
L 101.35 68 92.25 68 88 68 88 92 92.25 92 101.35 92 105.25 92 105.25 68 Z"/>
</g>

<g id="Layer2_3_FILL">
<path fill="#689F3A" stroke="none" d="
M 220.9 100.1
L 227.2 106.6 233.75 100.25 227.45 93.75 220.9 100.1
M 227.05 53.1
L 224.65 61.95 233.55 64.3 235.8 55.55 227.05 53.1 Z"/>
</g>

<g id="Layer2_4_FILL">
<path fill="#689F3A" stroke="none" d="
M 381.9 100.1
L 388.2 106.6 394.75 100.25 388.45 93.75 381.9 100.1
M 376.65 52.85
L 374.25 61.7 383.1 64 385.4 55.25 376.65 52.85 Z"/>
</g>

<g id="Layer2_5_FILL">
<path fill="#689F3A" stroke="none" d="
M 542.9 100.1
L 549.2 106.6 555.75 100.25 549.45 93.75 542.9 100.1
M 535.5 54
L 534.9 63.15 544.05 63.65 544.55 54.6 535.5 54 Z"/>
</g>

<g id="Layer2_6_FILL">
<path fill="#689F3A" stroke="none" d="
M 703.9 100.1
L 710.2 106.6 716.75 100.25 710.45 93.75 703.9 100.1
M 695.5 54
L 694.9 63.15 704.05 63.65 704.55 54.6 695.5 54 Z"/>
</g>

<g id="Layer2_7_FILL">
<path fill="#689F3A" stroke="none" d="
M 861.9 100.1
L 868.2 106.6 874.75 100.25 868.45 93.75 861.9 100.1
M 855.5 54
L 854.9 63.15 864.05 63.65 864.55 54.6 855.5 54 Z"/>
</g>

<g id="Layer2_8_FILL">
<path fill="#727157" stroke="none" d="
M 261.35 94.5
L 252.25 94.5 252.25 101.1 261.35 101.1 261.35 94.5
M 252.25 65.5
L 261.35 65.5 261.35 58.9 252.25 58.9 252.25 65.5 Z"/>

<path fill="#696853" stroke="none" d="
M 252.25 92
L 252.25 94.5 261.35 94.5 261.35 92 252.25 92
M 261.35 65.5
L 252.25 65.5 252.25 68 261.35 68 261.35 65.5 Z"/>

<path fill="#7E785C" stroke="none" d="
M 261.35 68
L 252.25 68 248 68 248 92 252.25 92 261.35 92 265.25 92 265.25 68 261.35 68 Z"/>
</g>

<g id="Layer2_9_FILL">
<path fill="#727157" stroke="none" d="
M 421.35 94.5
L 412.25 94.5 412.25 101.1 421.35 101.1 421.35 94.5
M 412.25 65.5
L 421.35 65.5 421.35 58.9 412.25 58.9 412.25 65.5 Z"/>

<path fill="#696853" stroke="none" d="
M 412.25 92
L 412.25 94.5 421.35 94.5 421.35 92 412.25 92
M 412.25 68
L 421.35 68 421.35 65.5 412.25 65.5 412.25 68 Z"/>

<path fill="#7E785C" stroke="none" d="
M 421.35 68
L 412.25 68 408 68 408 92 412.25 92 421.35 92 425.25 92 425.25 68 421.35 68 Z"/>
</g>

<g id="Layer2_10_FILL">
<path fill="#727157" stroke="none" d="
M 581.35 94.5
L 572.25 94.5 572.25 101.1 581.35 101.1 581.35 94.5
M 572.25 58.9
L 572.25 65.5 581.35 65.5 581.35 58.9 572.25 58.9 Z"/>

<path fill="#696853" stroke="none" d="
M 572.25 92
L 572.25 94.5 581.35 94.5 581.35 92 572.25 92
M 572.25 65.5
L 572.25 68 581.35 68 581.35 65.5 572.25 65.5 Z"/>

<path fill="#7E785C" stroke="none" d="
M 572.25 68
L 568 68 568 92 572.25 92 581.35 92 585.25 92 585.25 68 581.35 68 572.25 68 Z"/>
</g>

<g id="Layer2_11_FILL">
<path fill="#727157" stroke="none" d="
M 741.35 94.5
L 732.25 94.5 732.25 101.1 741.35 101.1 741.35 94.5
M 732.25 65.5
L 741.35 65.5 741.35 58.9 732.25 58.9 732.25 65.5 Z"/>

<path fill="#696853" stroke="none" d="
M 741.35 92
L 732.25 92 732.25 94.5 741.35 94.5 741.35 92
M 732.25 65.5
L 732.25 68 741.35 68 741.35 65.5 732.25 65.5 Z"/>

<path fill="#7E785C" stroke="none" d="
M 741.35 68
L 732.25 68 728 68 728 92 732.25 92 741.35 92 745.25 92 745.25 68 741.35 68 Z"/>
</g>

<g id="Layer2_12_FILL">
<path fill="#727157" stroke="none" d="
M 901.35 94.5
L 892.25 94.5 892.25 101.1 901.35 101.1 901.35 94.5
M 892.25 65.5
L 901.35 65.5 901.35 58.9 892.25 58.9 892.25 65.5 Z"/>

<path fill="#696853" stroke="none" d="
M 901.35 92
L 892.25 92 892.25 94.5 901.35 94.5 901.35 92
M 892.25 65.5
L 892.25 68 901.35 68 901.35 65.5 892.25 65.5 Z"/>

<path fill="#7E785C" stroke="none" d="
M 901.35 68
L 892.25 68 888 68 888 92 892.25 92 901.35 92 905.25 92 905.25 68 901.35 68 Z"/>
</g>
</defs>

<g transform="matrix( 1, 0, 0, 1, 0,0) ">
<use xlink:href="#Layer2_0_FILL"/>
</g>

<g transform="matrix( 1, 0, 0, 1, 0,0) ">
<use xlink:href="#Layer2_1_FILL"/>
</g>

<g transform="matrix( 1, 0, 0, 1, 0,0) ">
<use xlink:href="#Layer2_2_FILL"/>
</g>

<g transform="matrix( 1, 0, 0, 1, 0,0) ">
<use xlink:href="#Layer2_3_FILL"/>
</g>

<g transform="matrix( 1, 0, 0, 1, 0,0) ">
<use xlink:href="#Layer2_4_FILL"/>
</g>

<g transform="matrix( 1, 0, 0, 1, 0,0) ">
<use xlink:href="#Layer2_5_FILL"/>
</g>

<g transform="matrix( 1, 0, 0, 1, 0,0) ">
<use xlink:href="#Layer2_6_FILL"/>
</g>

<g transform="matrix( 1, 0, 0, 1, 0,0) ">
<use xlink:href="#Layer2_7_FILL"/>
</g>

<g transform="matrix( 1, 0, 0, 1, 0,0) ">
<use xlink:href="#Layer2_8_FILL"/>
</g>

<g transform="matrix( 1, 0, 0, 1, 0,0) ">
<use xlink:href="#Layer2_9_FILL"/>
</g>

<g transform="matrix( 1, 0, 0, 1, 0,0) ">
<use xlink:href="#Layer2_10_FILL"/>
</g>

<g transform="matrix( 1, 0, 0, 1, 0,0) ">
<use xlink:href="#Layer2_11_FILL"/>
</g>

<g transform="matrix( 1, 0, 0, 1, 0,0) ">
<use xlink:href="#Layer2_12_FILL"/>
</g>
</svg>
