
<svg xmlns="http://www.w3.org/2000/svg" version="1.1" xmlns:xlink="http://www.w3.org/1999/xlink" preserveAspectRatio="none" x="0px" y="0px" width="47px" height="13px" viewBox="0 0 47 13">
<defs>
<g id="Layer0_0_FILL">
<path fill="#000000" stroke="none" d="
M 21.7 4.1
L 21.7 2.45 0.5 2.45 5.75 10.6 21.75 10.6 21.7 8.9 19.3 6.5 21.7 4.1
M 46.55 10.6
L 41.3 2.45 25.3 2.45 25.3 4.25 27.6 6.5 25.3 8.7 25.35 10.6 46.55 10.6
M 21.7 8.9
L 21.7 4.1 19.3 6.5 21.7 8.9
M 25.3 8.7
L 27.6 6.5 25.3 4.25 25.3 8.7 Z"/>
</g>

<path id="Layer0_0_1_STROKES" stroke="#000000" stroke-width="3.5" stroke-linejoin="miter" stroke-linecap="square" stroke-miterlimit="3" fill="none" d="
M 25.3 4.275
L 27.6 6.5 25.325 8.7
M 25.3 4.275
L 23.4 2.4 21.7 4.1
M 21.725 8.925
L 23.4 10.6 25.325 8.7
M 21.7 4.1
L 19.3 6.5 21.725 8.925"/>
</defs>

<g transform="matrix( 1, 0, 0, 1, 0,0) ">
<use xlink:href="#Layer0_0_FILL"/>

<use xlink:href="#Layer0_0_1_STROKES"/>
</g>
</svg>
