
<svg xmlns="http://www.w3.org/2000/svg" version="1.1" xmlns:xlink="http://www.w3.org/1999/xlink" preserveAspectRatio="none" x="0px" y="0px" width="960px" height="160px" viewBox="0 0 960 160">
<defs>
<linearGradient id="Gradient_1" gradientUnits="userSpaceOnUse" x1="22.8" y1="12.1" x2="0" y2="12.1" spreadMethod="pad">
<stop  offset="0%" stop-color="#BFB7B7"/>

<stop  offset="100%" stop-color="#D4CDCD"/>
</linearGradient>

<g id="dagger_0_Layer0_0_FILL">
<path fill="url(#Gradient_1)" stroke="none" d="
M 17.95 8.35
L 20.05 6.4 20.05 1.1 -3.8 8.35 20.05 15.1 20.05 10.3 17.95 8.35 Z"/>

<path fill="#646E80" stroke="none" d="
M 23.6 -1.2
L 20.05 -1.2 20.05 1.1 20.05 6.4 17.95 8.35 20.05 10.3 20.05 15.1 20.05 17.7 23.6 17.7 23.6 10.65 23.6 5.5 23.6 -1.2 Z"/>

<path fill="#515969" stroke="none" d="
M 31.7 9.9
L 31.7 6.15 23.6 5.5 23.6 10.65 31.7 9.9 Z"/>
</g>

<g id="Layer2_6_FILL">
<path fill="#D9BFA1" stroke="none" d="
M 66.2 106.6
L 72.75 100.25 66.45 93.75 59.9 100.1 66.2 106.6
M 83.45 63.55
L 87.95 55.7 80.1 51.1 75.5 59 83.45 63.55
M 227.2 106.6
L 233.75 100.25 227.45 93.75 220.9 100.1 227.2 106.6
M 235.8 55.55
L 227.05 53.1 224.65 61.95 233.55 64.3 235.8 55.55
M 388.2 106.6
L 394.75 100.25 388.45 93.75 381.9 100.1 388.2 106.6
M 385.4 55.25
L 376.65 52.85 374.25 61.7 383.1 64 385.4 55.25
M 549.2 106.6
L 555.75 100.25 549.45 93.75 542.9 100.1 549.2 106.6
M 544.55 54.6
L 535.5 54 534.9 63.15 544.05 63.65 544.55 54.6
M 710.2 106.6
L 716.75 100.25 710.45 93.75 703.9 100.1 710.2 106.6
M 704.55 54.6
L 695.5 54 694.9 63.15 704.05 63.65 704.55 54.6
M 866.2 106.6
L 872.75 100.25 866.45 93.75 859.9 100.1 866.2 106.6
M 887.95 55.7
L 880.1 51.1 875.5 59 883.45 63.55 887.95 55.7 Z"/>
</g>
</defs>

<g transform="matrix( 1, 0, 0, 1, 198.9,51.1) ">
<g transform="matrix( 1, 0, 0, 1, 0,0) ">
<use xlink:href="#dagger_0_Layer0_0_FILL"/>
</g>
</g>

<g transform="matrix( 1, 0, 0, 1, 348.5,51.1) ">
<g transform="matrix( 1, 0, 0, 1, 0,0) ">
<use xlink:href="#dagger_0_Layer0_0_FILL"/>
</g>
</g>

<g transform="matrix( 1, 0, 0, 1, 508.5,51.1) ">
<g transform="matrix( 1, 0, 0, 1, 0,0) ">
<use xlink:href="#dagger_0_Layer0_0_FILL"/>
</g>
</g>

<g transform="matrix( 1, 0, 0, 1, 667.7,51.1) ">
<g transform="matrix( 1, 0, 0, 1, 0,0) ">
<use xlink:href="#dagger_0_Layer0_0_FILL"/>
</g>
</g>

<g transform="matrix( 1, 0, 0, 1, 851.7,49.5) ">
<g transform="matrix( 1, 0, 0, 1, 0,0) ">
<use xlink:href="#dagger_0_Layer0_0_FILL"/>
</g>
</g>

<g transform="matrix( 1, 0, 0, 1, 51.75,48.9) ">
<g transform="matrix( 1, 0, 0, 1, 0,0) ">
<use xlink:href="#dagger_0_Layer0_0_FILL"/>
</g>
</g>

<g transform="matrix( 1, 0, 0, 1, 0,0) ">
<use xlink:href="#Layer2_6_FILL"/>
</g>
</svg>
