
<svg xmlns="http://www.w3.org/2000/svg" version="1.1" xmlns:xlink="http://www.w3.org/1999/xlink" preserveAspectRatio="none" x="0px" y="0px" width="960px" height="160px" viewBox="0 0 960 160">
<defs>
<g id="bone_0_Layer0_0_FILL">
<path fill="#776553" stroke="none" d="
M 20.4 8.95
L 9.25 8.4 9.25 15.75 19.95 15.2 20.4 8.95
M 35.05 9.7
L 35.05 14.5 41.55 14.2 40.35 10 35.05 9.7
M 47.4 13.9
L 50.85 13.75 50.85 10.55 47.4 10.4 47.4 13.9
M 46.65 10.35
L 41.15 10.05 42.4 14.15 46.65 13.95 46.65 10.35 Z"/>

<path fill="#877B61" stroke="none" d="
M 35.05 14.5
L 35.05 9.7 20.4 8.95 19.95 15.2 35.05 14.5
M 41.55 14.2
L 42.4 14.15 41.15 10.05 40.35 10 41.55 14.2
M 47.4 10.4
L 46.65 10.35 46.65 13.95 47.4 13.9 47.4 10.4
M 55 10.8
L 50.85 10.55 50.85 13.75 55 13.55 55 10.8 Z"/>
</g>

<g id="bone_0_Layer0_1_FILL">
<path fill="#C2B49C" stroke="none" d="
M 20.55 7.5
L 20.4 5.25 6.3 5.05 6.5 18.95 18 18.3 17.8 7.8 20.55 7.5
M 14.9 6.6
L 14.9 7.55 11.6 7.55 11.6 6.6 14.9 6.6 Z"/>
</g>

<g id="Layer2_6_FILL">
<path fill="#5F5953" stroke="none" d="
M 227.2 106.6
L 233.75 100.25 227.45 93.75 220.9 100.1 227.2 106.6
M 235.8 55.55
L 227.05 53.1 224.65 61.95 233.55 64.3 235.8 55.55 Z"/>
</g>

<g id="Layer2_7_FILL">
<path fill="#5F5953" stroke="none" d="
M 388.2 106.6
L 394.75 100.25 388.45 93.75 381.9 100.1 388.2 106.6
M 385.4 55.25
L 376.65 52.85 374.25 61.7 383.1 64 385.4 55.25 Z"/>
</g>

<g id="Layer2_8_FILL">
<path fill="#5F5953" stroke="none" d="
M 549.2 106.6
L 555.75 100.25 549.45 93.75 542.9 100.1 549.2 106.6
M 544.55 54.6
L 535.5 54 534.9 63.15 544.05 63.65 544.55 54.6 Z"/>
</g>

<g id="Layer2_9_FILL">
<path fill="#5F5953" stroke="none" d="
M 710.2 106.6
L 716.75 100.25 710.45 93.75 703.9 100.1 710.2 106.6
M 704.55 54.6
L 695.5 54 694.9 63.15 704.05 63.65 704.55 54.6 Z"/>
</g>

<g id="Layer2_10_FILL">
<path fill="#5F5953" stroke="none" d="
M 83.45 63.55
L 87.95 55.7 80.1 51.1 75.5 59 83.45 63.55 Z"/>
</g>

<g id="Layer2_11_FILL">
<path fill="#5F5953" stroke="none" d="
M 66.2 106.6
L 72.75 100.25 66.45 93.75 59.9 100.1 66.2 106.6 Z"/>
</g>

<g id="Layer2_12_FILL">
<path fill="#5F5953" stroke="none" d="
M 887.95 55.7
L 880.1 51.1 875.5 59 883.45 63.55 887.95 55.7 Z"/>
</g>

<g id="Layer2_13_FILL">
<path fill="#5F5953" stroke="none" d="
M 866.2 106.6
L 872.75 100.25 866.45 93.75 859.9 100.1 866.2 106.6 Z"/>
</g>
</defs>

<g transform="matrix( 0.983917236328125, 0.178680419921875, -0.178680419921875, 0.983917236328125, 197.15,41.15) ">
<g transform="matrix( 1, 0, 0, 1, 0,0) ">
<use xlink:href="#bone_0_Layer0_0_FILL"/>
</g>

<g transform="matrix( 1, 0, 0, 1, 0,0) ">
<use xlink:href="#bone_0_Layer0_1_FILL"/>
</g>
</g>

<g transform="matrix( 0.98541259765625, 0.1701507568359375, -0.1701507568359375, 0.98541259765625, 344.9,42.65) ">
<g transform="matrix( 1, 0, 0, 1, 0,0) ">
<use xlink:href="#bone_0_Layer0_0_FILL"/>
</g>

<g transform="matrix( 1, 0, 0, 1, 0,0) ">
<use xlink:href="#bone_0_Layer0_1_FILL"/>
</g>
</g>

<g transform="matrix( 0.990081787109375, 0.140533447265625, -0.140533447265625, 0.990081787109375, 503.25,44.2) ">
<g transform="matrix( 1, 0, 0, 1, 0,0) ">
<use xlink:href="#bone_0_Layer0_0_FILL"/>
</g>

<g transform="matrix( 1, 0, 0, 1, 0,0) ">
<use xlink:href="#bone_0_Layer0_1_FILL"/>
</g>
</g>

<g transform="matrix( 0.983917236328125, 0.1785736083984375, -0.1785736083984375, 0.983917236328125, 664.65,42.25) ">
<g transform="matrix( 1, 0, 0, 1, 0,0) ">
<use xlink:href="#bone_0_Layer0_0_FILL"/>
</g>

<g transform="matrix( 1, 0, 0, 1, 0,0) ">
<use xlink:href="#bone_0_Layer0_1_FILL"/>
</g>
</g>

<g transform="matrix( 0.9659271240234375, 0.2588043212890625, -0.2588043212890625, 0.9659271240234375, 847.1,34.9) ">
<g transform="matrix( 1, 0, 0, 1, 0,0) ">
<use xlink:href="#bone_0_Layer0_0_FILL"/>
</g>

<g transform="matrix( 1, 0, 0, 1, 0,0) ">
<use xlink:href="#bone_0_Layer0_1_FILL"/>
</g>
</g>

<g transform="matrix( 0.9659271240234375, 0.2588043212890625, -0.2588043212890625, 0.9659271240234375, 52.1,34.9) ">
<g transform="matrix( 1, 0, 0, 1, 0,0) ">
<use xlink:href="#bone_0_Layer0_0_FILL"/>
</g>

<g transform="matrix( 1, 0, 0, 1, 0,0) ">
<use xlink:href="#bone_0_Layer0_1_FILL"/>
</g>
</g>

<g transform="matrix( 1, 0, 0, 1, 0,0) ">
<use xlink:href="#Layer2_6_FILL"/>
</g>

<g transform="matrix( 1, 0, 0, 1, 0,0) ">
<use xlink:href="#Layer2_7_FILL"/>
</g>

<g transform="matrix( 1, 0, 0, 1, 0,0) ">
<use xlink:href="#Layer2_8_FILL"/>
</g>

<g transform="matrix( 1, 0, 0, 1, 0,0) ">
<use xlink:href="#Layer2_9_FILL"/>
</g>

<g transform="matrix( 1, 0, 0, 1, 0,0) ">
<use xlink:href="#Layer2_10_FILL"/>
</g>

<g transform="matrix( 1, 0, 0, 1, 0,0) ">
<use xlink:href="#Layer2_11_FILL"/>
</g>

<g transform="matrix( 1, 0, 0, 1, 0,0) ">
<use xlink:href="#Layer2_12_FILL"/>
</g>

<g transform="matrix( 1, 0, 0, 1, 0,0) ">
<use xlink:href="#Layer2_13_FILL"/>
</g>
</svg>
