
<svg xmlns="http://www.w3.org/2000/svg" version="1.1" xmlns:xlink="http://www.w3.org/1999/xlink" preserveAspectRatio="none" x="0px" y="0px" width="960px" height="160px" viewBox="0 0 960 160">
<defs>
<g id="rod_0_Layer0_0_FILL">
<path fill="#877B61" stroke="none" d="
M 34.1 14.6
L 23.45 8.75 23.35 8.75 12.75 3.5 3.65 14.4 14.5 25.25 22.9 16.65 15.05 11.2 11.5 15 16.4 18.6 9.75 15.55 14.65 10 22.95 15.2 34.1 14.6
M 41.55 14.2
L 42.4 14.15 41.15 10.05 40.35 10 41.55 14.2
M 47.4 10.4
L 46.65 10.35 46.65 13.95 47.4 13.9 47.4 10.4
M 55 10.8
L 50.85 10.55 50.85 13.75 55 13.55 55 10.8 Z"/>

<path fill="#776553" stroke="none" d="
M 23.45 8.75
L 34.1 14.6 41.55 14.2 40.35 10 23.9 9 23.45 8.75
M 50.85 10.55
L 47.4 10.4 47.4 13.9 50.85 13.75 50.85 10.55
M 46.65 10.35
L 41.15 10.05 42.4 14.15 46.65 13.95 46.65 10.35 Z"/>
</g>

<g id="Layer2_6_FILL">
<path fill="#5C6370" stroke="none" d="
M 66.2 106.6
L 72.75 100.25 66.45 93.75 59.9 100.1 66.2 106.6
M 83.45 63.55
L 87.95 55.7 80.1 51.1 75.5 59 83.45 63.55
M 227.2 106.6
L 233.75 100.25 227.45 93.75 220.9 100.1 227.2 106.6
M 235.8 55.55
L 227.05 53.1 224.65 61.95 233.55 64.3 235.8 55.55
M 388.2 106.6
L 394.75 100.25 388.45 93.75 381.9 100.1 388.2 106.6
M 385.4 55.25
L 376.65 52.85 374.25 61.7 383.1 64 385.4 55.25
M 549.2 106.6
L 555.75 100.25 549.45 93.75 542.9 100.1 549.2 106.6
M 544.55 54.6
L 535.5 54 534.9 63.15 544.05 63.65 544.55 54.6
M 710.2 106.6
L 716.75 100.25 710.45 93.75 703.9 100.1 710.2 106.6
M 704.55 54.6
L 695.5 54 694.9 63.15 704.05 63.65 704.55 54.6
M 866.2 106.6
L 872.75 100.25 866.45 93.75 859.9 100.1 866.2 106.6
M 887.95 55.7
L 880.1 51.1 875.5 59 883.45 63.55 887.95 55.7 Z"/>
</g>

<g id="Layer2_7_FILL">
<path fill="#899167" stroke="none" d="
M 106.5 80.5
L 101.6 58.75 72.5 62 72.5 99 101.6 102.75 106.5 80.5
M 266.5 80.5
L 261.6 58.75 232.5 62 232.5 99 261.6 102.75 266.5 80.5
M 426.5 80.5
L 421.6 58.75 392.5 62 392.5 99 421.6 102.75 426.5 80.5
M 586.5 80.5
L 581.6 58.75 552.5 62 552.5 99 581.6 102.75 586.5 80.5
M 746.5 80.5
L 741.6 58.75 712.5 62 712.5 99 741.6 102.75 746.5 80.5
M 906.5 80.5
L 901.6 58.75 872.5 62 872.5 99 901.6 102.75 906.5 80.5 Z"/>
</g>
</defs>

<g transform="matrix( 0.983917236328125, 0.178680419921875, -0.178680419921875, 0.983917236328125, 197.15,41.15) ">
<g transform="matrix( 1, 0, 0, 1, 0,0) ">
<use xlink:href="#rod_0_Layer0_0_FILL"/>
</g>
</g>

<g transform="matrix( 0.98541259765625, 0.1701507568359375, -0.1701507568359375, 0.98541259765625, 344.9,42.65) ">
<g transform="matrix( 1, 0, 0, 1, 0,0) ">
<use xlink:href="#rod_0_Layer0_0_FILL"/>
</g>
</g>

<g transform="matrix( 0.990081787109375, 0.140533447265625, -0.140533447265625, 0.990081787109375, 503.25,44.2) ">
<g transform="matrix( 1, 0, 0, 1, 0,0) ">
<use xlink:href="#rod_0_Layer0_0_FILL"/>
</g>
</g>

<g transform="matrix( 0.983917236328125, 0.1785736083984375, -0.1785736083984375, 0.983917236328125, 664.65,42.25) ">
<g transform="matrix( 1, 0, 0, 1, 0,0) ">
<use xlink:href="#rod_0_Layer0_0_FILL"/>
</g>
</g>

<g transform="matrix( 0.9659271240234375, 0.2588043212890625, -0.2588043212890625, 0.9659271240234375, 847.1,34.9) ">
<g transform="matrix( 1, 0, 0, 1, 0,0) ">
<use xlink:href="#rod_0_Layer0_0_FILL"/>
</g>
</g>

<g transform="matrix( 0.9659271240234375, 0.2588043212890625, -0.2588043212890625, 0.9659271240234375, 52.1,34.9) ">
<g transform="matrix( 1, 0, 0, 1, 0,0) ">
<use xlink:href="#rod_0_Layer0_0_FILL"/>
</g>
</g>

<g transform="matrix( 1, 0, 0, 1, 0,0) ">
<use xlink:href="#Layer2_6_FILL"/>
</g>

<g transform="matrix( 1, 0, 0, 1, 0,0) ">
<use xlink:href="#Layer2_7_FILL"/>
</g>
</svg>
